<?xml version="1.0" standalone="yes"?>
<svg xmlns="http://www.w3.org/2000/svg" width="225" height="180">
<path style="fill:#ffffff; stroke:none;" d="M0 0L0 225L225 225L225 0L0 0z"/>
<path style="fill:#ada7a8; stroke:none;" d="M186 53L187 54L186 53z"/>
<path style="fill:#b23250; stroke:none;" d="M187 53L115 81L116 111L188 84L187 53z"/>
<path style="fill:#ada7a8; stroke:none;" d="M184 54L185 55L184 54M181 55L182 56L181 55M178 56L179 57L178 56M176 57L177 58L176 57M173 58L174 59L173 58M171 59L172 60L171 59M168 60L169 61L168 60M165 61L166 62L165 61M163 62L164 63L163 62M160 63L161 64L160 63M158 64L159 65L158 64M155 65L156 66L155 65M152 66L153 67L152 66M150 67L151 68L150 67M147 68L148 69L147 68M145 69L146 70L145 69M142 70L143 71L142 70M139 71L140 72L139 71M137 72L138 73L137 72M134 73L135 74L134 73M132 74L133 75L132 74M129 75L130 76L129 75M126 76L127 77L126 76M124 77L125 78L124 77M121 78L122 79L121 78M119 79L120 80L119 79M116 80L117 81L116 80M115 82C115 88.7675 111.826 107.478 117 112L115 82M185 84L186 85L185 84M183 85L184 86L183 85M180 86L181 87L180 86M178 87L179 88L178 87M175 88L176 89L175 88M173 89L174 90L173 89M170 90L171 91L170 90M167 91L168 92L167 91M165 92L166 93L165 92M162 93L163 94L162 93M160 94L161 95L160 94M157 95L158 96L157 95M155 96L156 97L155 96M152 97L153 98L152 97M149 98L150 99L149 98M147 99L148 100L147 99M144 100L145 101L144 100M142 101L143 102L142 101M139 102L140 103L139 102M137 103L138 104L137 103M134 104L135 105L134 104M131 105L132 106L131 105M129 106L130 107L129 106M126 107L127 108L126 107M124 108L125 109L124 108M121 109L122 110L121 109M119 110L120 111L119 110M16 112L16 113L27 113L16 112M53 112L53 113L64 113L53 112M90 112L90 113L101 113L90 112M12 113L13 114L12 113z"/>
<path style="fill:#545454; stroke:none;" d="M13 113L14 114L13 113z"/>
<path style="fill:#020202; stroke:none;" d="M38 136L25 136C24.6534 140.581 19.3961 146.604 18.1481 138.98C17.2017 133.198 21.1894 112.806 25 127L38 127C37.7006 113.018 18.4895 107.257 8.21373 116.419C2.57824 121.444 3.91176 130.212 4.00386 137C4.28407 157.654 37.9383 157.502 38 136z"/>
<path style="fill:#545454; stroke:none;" d="M29 113L30 114L29 113z"/>
<path style="fill:#ada7a8; stroke:none;" d="M30 113L31 114L30 113M49 113L50 114L49 113z"/>
<path style="fill:#545454; stroke:none;" d="M50 113L51 114L50 113z"/>
<path style="fill:#020202; stroke:none;" d="M51 113.533C39.7028 116.284 37.434 136.156 42.858 144.985C47.3144 152.238 57.471 153.151 65 151.072C76.4299 147.915 79.5675 125.951 72.3472 117.225C67.9118 111.864 57.2123 112.021 51 113.533z"/>
<path style="fill:#545454; stroke:none;" d="M66 113L67 114L66 113z"/>
<path style="fill:#ada7a8; stroke:none;" d="M67 113L68 114L67 113M86 113L87 114L86 113z"/>
<path style="fill:#545454; stroke:none;" d="M87 113L88 114L87 113z"/>
<path style="fill:#020202; stroke:none;" d="M88 113.533C76.3621 116.367 74.6365 137.359 80.7029 145.956C85.2248 152.364 94.9421 153.032 102 151.316C114.112 148.371 117.151 127.358 110.297 118.108C105.763 111.989 94.7818 111.882 88 113.533z"/>
<path style="fill:#545454; stroke:none;" d="M103 113L104 114L103 113z"/>
<path style="fill:#ada7a8; stroke:none;" d="M104 113L105 114L104 113M115 113L115 114L138 114L115 113M151 113L151 114L181 114L181 122L165 122L165 128L166 128L166 123C169.93 123 176.092 124.163 179.682 122.397C182.737 120.893 182.737 115.107 179.682 113.603C172.816 110.224 158.636 113 151 113M183 151L184 151L184 114L208 114L199 113L184.603 114.028L183 124L183 151z"/>
<path style="fill:#545454; stroke:none;" d="M10 114L11 115L10 114M32 114L33 115L32 114M47 114L48 115L47 114z"/>
<path style="fill:#ada7a8; stroke:none;" d="M69 114L70 115L69 114z"/>
<path style="fill:#545454; stroke:none;" d="M84 114L85 115L84 114z"/>
<path style="fill:#ada7a8; stroke:none;" d="M106 114L107 115L106 114z"/>
<path style="fill:#545454; stroke:none;" d="M115 114L115 140L116.603 149.972L129 151L129 150L116 150C116 139.613 119.011 123.56 115 114z"/>
<path style="fill:#020202; stroke:none;" d="M116 114L116 150L129 150L129 139C134.123 139 140.329 139.851 144.786 136.772C150.766 132.641 150.503 120.995 144.867 116.703C137.914 111.408 124.249 114 116 114z"/>
<path style="fill:#545454; stroke:none;" d="M140 114L141 115L140 114z"/>
<path style="fill:#ada7a8; stroke:none;" d="M141 114L142 115L141 114z"/>
<path style="fill:#020202; stroke:none;" d="M151 114C153.471 124.38 153.471 139.62 151 150L181 150L181 142L165 142L165 136L181 136L181 128L165 128L165 122L181 122L181 114L151 114M184 114L184 150L197 150L197 122C204.707 122.588 205.461 129.836 198 132C203.768 146.06 205.481 150 221 150L212 133C218.799 129.646 220.585 119.456 212.956 115.573C205.228 111.639 192.475 114 184 114z"/>
<path style="fill:#545454; stroke:none;" d="M210 114L211 115L210 114z"/>
<path style="fill:#ada7a8; stroke:none;" d="M211 114L212 115L211 114M8 115L9 116L8 115M34 115L35 116L34 115M45 115L46 116L45 115M82 115L83 116L82 115M108 115L109 116L108 115z"/>
<path style="fill:#545454; stroke:none;" d="M143 115L144 116L143 115M151 115L151 149L152 149L151 115z"/>
<path style="fill:#ada7a8; stroke:none;" d="M213 115L214 116L213 115M7 116L8 117L7 116M35 116L36 117L35 116M44 116L45 117L44 116M81 116L82 117L81 116M109 116L110 117L109 116M145 116L146 117L145 116M6 117L7 118L6 117M36 117L37 118L36 117M43 117L44 118L43 117M110 117L111 118L110 117M146 117L147 118L146 117z"/>
<path style="fill:#545454; stroke:none;" d="M73 118L74 119L73 118z"/>
<path style="fill:#ada7a8; stroke:none;" d="M147 118L148 119L147 118z"/>
<path style="fill:#545454; stroke:none;" d="M5 119L6 120L5 119z"/>
<path style="fill:#ada7a8; stroke:none;" d="M37 119L38 120L37 119z"/>
<path style="fill:#545454; stroke:none;" d="M42 119L43 120L42 119z"/>
<path style="fill:#ada7a8; stroke:none;" d="M79 119L80 120L79 119z"/>
<path style="fill:#545454; stroke:none;" d="M111 119L112 120L111 119M217 119L218 120L217 119M20.6667 120.333L21.3333 120.667L20.6667 120.333M37 120L38 121L37 120M57.6667 120.333L58.3333 120.667L57.6667 120.333M74 120L75 121L74 120M79 120L80 121L79 120M94.6667 120.333L95.3333 120.667L94.6667 120.333z"/>
<path style="fill:#ada7a8; stroke:none;" d="M148 120L149 121L148 120M4 121L5 122L4 121z"/>
<path style="fill:#545454; stroke:none;" d="M23 121L24 122L23 121z"/>
<path style="fill:#ada7a8; stroke:none;" d="M41 121L42 122L41 121z"/>
<path style="fill:#ffffff; stroke:none;" d="M56.723 122.086C53.0566 124.721 54.4785 145.381 59.4159 141.914C63.0298 139.376 61.3664 118.75 56.723 122.086z"/>
<path style="fill:#545454; stroke:none;" d="M60 121L61 122L60 121z"/>
<path style="fill:#ada7a8; stroke:none;" d="M93 121L92 123L93 121z"/>
<path style="fill:#ffffff; stroke:none;" d="M98 143L98 134L97.9992 129C97.8721 110.565 82.851 141.792 98 143z"/>
<path style="fill:#ada7a8; stroke:none;" d="M97 121L98 122L97 121M112 121L113 122L112 121z"/>
<path style="fill:#545454; stroke:none;" d="M148 121L149 122L148 121z"/>
<path style="fill:#ada7a8; stroke:none;" d="M218 121L218 126L219 126L218 121M18 122L19 123L18 122M38 122L38 125L39 125L38 122z"/>
<path style="fill:#545454; stroke:none;" d="M41 122L42 123L41 122z"/>
<path style="fill:#ada7a8; stroke:none;" d="M55 122L56 123L55 122M78 122L79 123L78 122z"/>
<path style="fill:#545454; stroke:none;" d="M98 122L99 123L98 122M112 122L113 123L112 122z"/>
<path style="fill:#ffffff; stroke:none;" d="M129 122L129 131C137.172 130.377 137.172 122.623 129 122z"/>
<path style="fill:#545454; stroke:none;" d="M134 122L135 123L134 122z"/>
<path style="fill:#ada7a8; stroke:none;" d="M197 122L198 123L197 122z"/>
<path style="fill:#ffffff; stroke:none;" d="M198 122L198 132C204.458 129.858 205.694 123.227 198 122z"/>
<path style="fill:#ada7a8; stroke:none;" d="M202 122L203 123L202 122M75.3333 123.667L75.6667 124.333L75.3333 123.667z"/>
<path style="fill:#545454; stroke:none;" d="M78.3333 123.667L78.6667 124.333L78.3333 123.667z"/>
<path style="fill:#ada7a8; stroke:none;" d="M98 123L98 142L99 142L98 123z"/>
<path style="fill:#545454; stroke:none;" d="M135 123L136 124L135 123z"/>
<path style="fill:#ada7a8; stroke:none;" d="M149 123L149 130L150 130L149 123z"/>
<path style="fill:#545454; stroke:none;" d="M197 123L197 133L198 133L197 123z"/>
<path style="fill:#ada7a8; stroke:none;" d="M203 123L204 124L203 123M3 124L3 129L4 129L3 124z"/>
<path style="fill:#545454; stroke:none;" d="M24.3333 124.667L24.6667 125.333L24.3333 124.667M61 124L61 141L62 141L61 124M38 125L25 127L25 128C27.9311 128 39.7533 129.651 38 125z"/>
<path style="fill:#ada7a8; stroke:none;" d="M40 125L40 131L41 131L40 125z"/>
<path style="fill:#545454; stroke:none;" d="M75 125L75 138L76 138L75 125z"/>
<path style="fill:#ada7a8; stroke:none;" d="M24.3333 126.667L24.6667 127.333L24.3333 126.667z"/>
<path style="fill:#545454; stroke:none;" d="M136 126L137 127L136 126z"/>
<path style="fill:#ada7a8; stroke:none;" d="M113 128L113 135L114 135L113 128z"/>
<path style="fill:#545454; stroke:none;" d="M217 128L218 129L217 128M3 129L3 137L4 137L3 129z"/>
<path style="fill:#ada7a8; stroke:none;" d="M135 129L136 130L135 129M203 129L204 130L203 129M217 129L218 130L217 129M134 130L135 131L134 130z"/>
<path style="fill:#545454; stroke:none;" d="M216 130L217 131L216 130M40 131L40 135L41 135L40 131M129 131L129 132L133 132L129 131z"/>
<path style="fill:#ada7a8; stroke:none;" d="M199.667 131.333L200.333 131.667L199.667 131.333z"/>
<path style="fill:#545454; stroke:none;" d="M201 131L202 132L201 131M215 131L216 132L215 131M148 132L149 133L148 132M214 132L215 133L214 132z"/>
<path style="fill:#ada7a8; stroke:none;" d="M197.667 133.333L198.333 133.667L197.667 133.333z"/>
<path style="fill:#545454; stroke:none;" d="M212.333 133.667L212.667 134.333L212.333 133.667M147 134L148 135L147 134M197 134L197 150L184 150L184 151C195.399 151 202.448 146.984 197 134z"/>
<path style="fill:#ada7a8; stroke:none;" d="M40 135L40 140L41 140L40 135z"/>
<path style="fill:#545454; stroke:none;" d="M199 135L200 136L199 135z"/>
<path style="fill:#ada7a8; stroke:none;" d="M24.3333 136.667L24.6667 137.333L24.3333 136.667z"/>
<path style="fill:#545454; stroke:none;" d="M38 136L38 140L39 140L38 136M145 136L146 137L145 136z"/>
<path style="fill:#ada7a8; stroke:none;" d="M165 136L165 142L166 142L165 136M199 136L200 137L199 136z"/>
<path style="fill:#545454; stroke:none;" d="M213 136L214 137L213 136z"/>
<path style="fill:#ada7a8; stroke:none;" d="M3 137L3 141L4 141L3 137M144 137L145 138L144 137z"/>
<path style="fill:#545454; stroke:none;" d="M200 137L201 138L200 137z"/>
<path style="fill:#ada7a8; stroke:none;" d="M214 137L215 138L214 137z"/>
<path style="fill:#545454; stroke:none;" d="M24 138L25 139L24 138z"/>
<path style="fill:#ada7a8; stroke:none;" d="M75 138L75 141L76 141L75 138z"/>
<path style="fill:#545454; stroke:none;" d="M141 138L142 139L141 138z"/>
<path style="fill:#ada7a8; stroke:none;" d="M142 138L143 139L142 138M200 138L201 139L200 138M24.3333 139.667L24.6667 140.333L24.3333 139.667z"/>
<path style="fill:#545454; stroke:none;" d="M129 139L129 140L135 140L129 139z"/>
<path style="fill:#ada7a8; stroke:none;" d="M135 139L135 140L140 140L135 139M215 139L216 140L215 139M38.3333 140.667L38.6667 141.333L38.3333 140.667z"/>
<path style="fill:#545454; stroke:none;" d="M112 140L113 141L112 140z"/>
<path style="fill:#ada7a8; stroke:none;" d="M201 140L202 141L201 140z"/>
<path style="fill:#545454; stroke:none;" d="M24 141L25 142L24 141M78 141L79 142L78 141z"/>
<path style="fill:#ada7a8; stroke:none;" d="M92 141L93 142L92 141M112.333 141.667L112.667 142.333L112.333 141.667M216 141L217 142L216 141z"/>
<path style="fill:#545454; stroke:none;" d="M18 142L19 143L18 142M41 142L42 143L41 142M55 142L56 143L55 142z"/>
<path style="fill:#ada7a8; stroke:none;" d="M60 142L61 143L60 142M78.3333 142.667L78.6667 143.333L78.3333 142.667z"/>
<path style="fill:#545454; stroke:none;" d="M92 142L93 143L92 142M202 142L203 143L202 142z"/>
<path style="fill:#ada7a8; stroke:none;" d="M4 143L5 144L4 143z"/>
<path style="fill:#545454; stroke:none;" d="M19 143L20 144L19 143z"/>
<path style="fill:#ada7a8; stroke:none;" d="M20 143L20 144L23 144L20 143M41 143L42 144L41 143z"/>
<path style="fill:#545454; stroke:none;" d="M56 143L57 144L56 143z"/>
<path style="fill:#ada7a8; stroke:none;" d="M57.6667 143.333L58.3333 143.667L57.6667 143.333z"/>
<path style="fill:#545454; stroke:none;" d="M59 143L60 144L59 143z"/>
<path style="fill:#ada7a8; stroke:none;" d="M74 143L75 144L74 143M94 143L94 144L97 144L94 143z"/>
<path style="fill:#545454; stroke:none;" d="M217 143L218 144L217 143M37 144L38 145L37 144M79 144L80 145L79 144z"/>
<path style="fill:#ada7a8; stroke:none;" d="M111 144L112 145L111 144z"/>
<path style="fill:#545454; stroke:none;" d="M203 144L204 145L203 144M5 145L6 146L5 145z"/>
<path style="fill:#ada7a8; stroke:none;" d="M37 145L38 146L37 145M42 145L43 146L42 145z"/>
<path style="fill:#545454; stroke:none;" d="M73 145L74 146L73 145z"/>
<path style="fill:#ada7a8; stroke:none;" d="M203 145L204 146L203 145z"/>
<path style="fill:#545454; stroke:none;" d="M218 145L219 146L218 145M36 146L37 147L36 146z"/>
<path style="fill:#ada7a8; stroke:none;" d="M43 146L44 147L43 146M80 146L81 147L80 146M110 146L111 147L110 146M219 146L220 147L219 146z"/>
<path style="fill:#545454; stroke:none;" d="M44 147L45 148L44 147z"/>
<path style="fill:#ada7a8; stroke:none;" d="M72 147L73 148L72 147z"/>
<path style="fill:#545454; stroke:none;" d="M81 147L82 148L81 147M109 147L110 148L109 147z"/>
<path style="fill:#ada7a8; stroke:none;" d="M204 147L205 148L204 147M35 148L36 149L35 148z"/>
<path style="fill:#545454; stroke:none;" d="M45 148L46 149L45 148z"/>
<path style="fill:#ada7a8; stroke:none;" d="M71 148L72 149L71 148z"/>
<path style="fill:#545454; stroke:none;" d="M82 148L83 149L82 148M108 148L109 149L108 148z"/>
<path style="fill:#ada7a8; stroke:none;" d="M220 148L221 149L220 148z"/>
<path style="fill:#545454; stroke:none;" d="M9 149L10 150L9 149z"/>
<path style="fill:#ada7a8; stroke:none;" d="M46 149L47 150L46 149z"/>
<path style="fill:#545454; stroke:none;" d="M69 149L70 150L69 149z"/>
<path style="fill:#ada7a8; stroke:none;" d="M83 149L84 150L83 149M107 149L108 150L107 149M205 149L206 150L205 149M10 150L11 151L10 150z"/>
<path style="fill:#545454; stroke:none;" d="M11 150L12 151L11 150z"/>
<path style="fill:#ada7a8; stroke:none;" d="M32 150L33 151L32 150z"/>
<path style="fill:#545454; stroke:none;" d="M48 150L49 151L48 150M67 150L68 151L67 150z"/>
<path style="fill:#ada7a8; stroke:none;" d="M68 150L69 151L68 150M85 150L86 151L85 150M105 150L106 151L105 150M115 150L116 151L115 150M151 150L152 151L151 150z"/>
<path style="fill:#545454; stroke:none;" d="M152 150L152 151L181 151L152 150z"/>
<path style="fill:#ada7a8; stroke:none;" d="M197 150L198 151L197 150z"/>
<path style="fill:#545454; stroke:none;" d="M206 150L206 151L221 151L206 150z"/>
<path style="fill:#ada7a8; stroke:none;" d="M221 150L222 151L221 150M13.6667 151.333L14.3333 151.667L13.6667 151.333z"/>
<path style="fill:#545454; stroke:none;" d="M15 151L16 152L15 151M27.6667 151.333L28.3333 151.667L27.6667 151.333z"/>
<path style="fill:#ada7a8; stroke:none;" d="M29 151L30 152L29 151M50.6667 151.333L51.3333 151.667L50.6667 151.333z"/>
<path style="fill:#545454; stroke:none;" d="M52 151L53 152L52 151M63.6667 151.333L64.3333 151.667L63.6667 151.333z"/>
<path style="fill:#ada7a8; stroke:none;" d="M65 151L66 152L65 151M87.6667 151.333L88.3333 151.667L87.6667 151.333z"/>
<path style="fill:#545454; stroke:none;" d="M89 151L90 152L89 151M101 151L102 152L101 151z"/>
<path style="fill:#ada7a8; stroke:none;" d="M102 151L103 152L102 151z"/>
</svg>
