<?xml version="1.0" standalone="yes"?>
<svg xmlns="http://www.w3.org/2000/svg" width="225" height="225">
<path style="fill:#ffffff; stroke:none;" d="M0 0L0 225L225 225L225 0L0 0z"/>
<path style="fill:#555886; stroke:none;" d="M60 69L61 70L60 69z"/>
<path style="fill:#043cfb; stroke:none;" d="M61 69L89 98.0394L98.9444 110L89.0895 121.985L60 152C77.3223 152 86.3875 137.613 98 126C102.023 121.977 109.746 116.413 109.442 110C109.157 103.983 101.882 98.882 98 95C86.9681 83.9681 77.5243 69 61 69z"/>
<path style="fill:#555886; stroke:none;" d="M97 69L85 82L97 69z"/>
<path style="fill:#02095a; stroke:none;" d="M85 82L85 83L90 88L91 88L109 69C97.3465 69 93.049 73.951 85 82z"/>
<path style="fill:#969fd7; stroke:none;" d="M109 69L110 70L109 69M61 70L62 71L61 70z"/>
<path style="fill:#555886; stroke:none;" d="M62 71L63 72L62 71z"/>
<path style="fill:#969fd7; stroke:none;" d="M63 72L64 73L63 72z"/>
<path style="fill:#555886; stroke:none;" d="M64 73L65 74L64 73z"/>
<path style="fill:#969fd7; stroke:none;" d="M65 74L66 75L65 74M66 75L67 76L66 75M67 76L68 77L67 76M68 77L69 78L68 77M69 78L70 79L69 78M70 79L71 80L70 79M71 80L72 81L71 80M72 81L73 82L72 81M73 82L74 83L73 82M74 83L75 84L74 83M75 84L76 85L75 84M76 85L77 86L76 85M77 86L78 87L77 86M78 87L79 88L78 87M29 88L30 89L29 88z"/>
<path style="fill:#555886; stroke:none;" d="M30 88L31 89L30 88z"/>
<path style="fill:#02095a; stroke:none;" d="M5 132C18.7273 131.989 27.4913 111.18 31 99L33 99C37.6897 110.205 45.5321 131.952 59 132C55.6071 120.222 47.5973 108.646 41.5756 98C39.5743 94.4617 37.0061 88.1922 32 88.662C26.9549 89.1355 24.7449 95.2149 22.6914 99C16.7924 109.873 9.77657 120.588 5 132z"/>
<path style="fill:#555886; stroke:none;" d="M34 88L35 89L34 88M78 88L61 106C66.4408 102.167 76.4027 94.5896 78 88z"/>
<path style="fill:#969fd7; stroke:none;" d="M134 88L135 89L134 88z"/>
<path style="fill:#555886; stroke:none;" d="M135 88L136 89L135 88z"/>
<path style="fill:#043cfb; stroke:none;" d="M136 88.4684C106.578 93.459 114.644 136.276 144 131.787C171.117 127.641 162.926 83.901 136 88.4684z"/>
<path style="fill:#555886; stroke:none;" d="M142 88L143 89L142 88z"/>
<path style="fill:#969fd7; stroke:none;" d="M143.667 88.3333L144.333 88.6667L143.667 88.3333M188 88L189 89L188 88z"/>
<path style="fill:#555886; stroke:none;" d="M189 88L190 89L189 88z"/>
<path style="fill:#043cfb; stroke:none;" d="M171 132L179 132C179 123.81 176.64 111.246 181.009 104.004C187.283 93.605 201.595 94.2102 206.106 106C208.926 113.368 207 124.188 207 132L215 132C215 121.918 217.544 107.923 212.005 99C202.844 84.2406 180.457 85.0771 172.92 101C168.773 109.761 171 122.518 171 132z"/>
<path style="fill:#555886; stroke:none;" d="M196 88L197 89L196 88z"/>
<path style="fill:#969fd7; stroke:none;" d="M197.667 88.3333L198.333 88.6667L197.667 88.3333z"/>
<path style="fill:#555886; stroke:none;" d="M28 89L29 90L28 89z"/>
<path style="fill:#969fd7; stroke:none;" d="M36 89L37 90L36 89z"/>
<path style="fill:#02095a; stroke:none;" d="M68 111C71.7175 107.282 82.7932 99.61 82.7932 94.0201C82.7932 90.1021 78.5383 89.692 76 91.3765C71.0867 94.6372 63.6234 101.668 61.0316 107C57.7941 113.661 73.2387 132.522 79.9367 130.654C89.533 127.979 70.9981 113.112 68 111z"/>
<path style="fill:#969fd7; stroke:none;" d="M131 89L132 90L131 89z"/>
<path style="fill:#555886; stroke:none;" d="M146 89L147 90L146 89z"/>
<path style="fill:#969fd7; stroke:none;" d="M147 89L148 90L147 89M184 89L185 90L184 89z"/>
<path style="fill:#555886; stroke:none;" d="M185 89L186 90L185 89M200 89L201 90L200 89z"/>
<path style="fill:#969fd7; stroke:none;" d="M201 89L202 90L201 89z"/>
<path style="fill:#555886; stroke:none;" d="M27 90L28 91L27 90z"/>
<path style="fill:#969fd7; stroke:none;" d="M37 90L38 91L37 90M128 90L129 91L128 90M149 90L150 91L149 90M182 90L183 91L182 90M203 90L204 91L203 90M26 91L27 92L26 91z"/>
<path style="fill:#555886; stroke:none;" d="M127 91L128 92L127 91z"/>
<path style="fill:#969fd7; stroke:none;" d="M38 92L39 93L38 92M125 92L126 93L125 92M152 92L153 93L152 92M179 92L180 93L179 92M206 92L207 93L206 92M25 93L26 94L25 93M124 93L125 94L124 93z"/>
<path style="fill:#555886; stroke:none;" d="M153 93L154 94L153 93z"/>
<path style="fill:#969fd7; stroke:none;" d="M178 93L179 94L178 93M207 93L208 94L207 93z"/>
<path style="fill:#555886; stroke:none;" d="M39 94L40 95L39 94z"/>
<path style="fill:#ffffff; stroke:none;" d="M84 94C80.1332 97.8668 71.7013 103.562 70.3457 109C69.2064 113.57 81.4298 125.794 86 124.654C91.438 123.299 97.1332 114.867 101 111L101 110L84 94z"/>
<path style="fill:#969fd7; stroke:none;" d="M85 94L86 95L85 94M123 94L124 95L123 94z"/>
<path style="fill:#555886; stroke:none;" d="M177 94L178 95L177 94M208 94L209 95L208 94z"/>
<path style="fill:#969fd7; stroke:none;" d="M24 95L25 96L24 95M86 95L87 96L86 95M122 95L123 96L122 95z"/>
<path style="fill:#555886; stroke:none;" d="M176 95L177 96L176 95M209 95L210 96L209 95M40 96L41 97L40 96z"/>
<path style="fill:#969fd7; stroke:none;" d="M87 96L88 97L87 96M121 96L122 97L121 96M136 96L136 97L142 97L136 96z"/>
<path style="fill:#555886; stroke:none;" d="M142 96L143 97L142 96M156 96L157 97L156 96z"/>
<path style="fill:#969fd7; stroke:none;" d="M175 96L176 97L175 96z"/>
<path style="fill:#555886; stroke:none;" d="M189 96L190 97L189 96z"/>
<path style="fill:#969fd7; stroke:none;" d="M190 96L190 97L196 97L190 96z"/>
<path style="fill:#555886; stroke:none;" d="M196 96L197 97L196 96z"/>
<path style="fill:#969fd7; stroke:none;" d="M210 96L211 97L210 96z"/>
<path style="fill:#555886; stroke:none;" d="M23 97L24 98L23 97z"/>
<path style="fill:#969fd7; stroke:none;" d="M41 97L42 98L41 97M88 97L89 98L88 97M133 97L134 98L133 97z"/>
<path style="fill:#ffffff; stroke:none;" d="M134.015 97.7029C117.323 103.499 127.51 128.936 143.996 123.297C160.963 117.493 150.956 91.8202 134.015 97.7029z"/>
<path style="fill:#969fd7; stroke:none;" d="M144 97L145 98L144 97M157 97L158 98L157 97M174 97L175 98L174 97M187 97L188 98L187 97M198 97L199 98L198 97M211 97L212 98L211 97M89 98L90 99L89 98M131 98L132 99L131 98M146 98L147 99L146 98M185 98L186 99L185 98M200 98L201 99L200 98z"/>
<path style="fill:#555886; stroke:none;" d="M22 99L23 100L22 99M31 99L32 100L31 99z"/>
<path style="fill:#969fd7; stroke:none;" d="M42 99L43 100L42 99M90 99L91 100L90 99M119 99L120 100L119 99M130 99L131 100L130 99z"/>
<path style="fill:#555886; stroke:none;" d="M158 99L159 100L158 99z"/>
<path style="fill:#969fd7; stroke:none;" d="M173 99L174 100L173 99M212 99L213 100L212 99M21 100L22 101L21 100M31 100L32 101L31 100z"/>
<path style="fill:#555886; stroke:none;" d="M33 100L34 101L33 100z"/>
<path style="fill:#969fd7; stroke:none;" d="M91 100L92 101L91 100z"/>
<path style="fill:#555886; stroke:none;" d="M21 101L22 102L21 101M30 101L31 102L30 101z"/>
<path style="fill:#969fd7; stroke:none;" d="M43 101L44 102L43 101M92 101L93 102L92 101M118 101L119 102L118 101M128 101L129 102L128 101z"/>
<path style="fill:#555886; stroke:none;" d="M159 101L160 102L159 101z"/>
<path style="fill:#969fd7; stroke:none;" d="M172 101L173 102L172 101M213 101L214 102L213 101M20 102L21 103L20 102M34 102L35 103L34 102M93 102L94 103L93 102M127 102L128 103L127 102M150 102L151 103L150 102M181 102L182 103L181 102M204 102L205 103L204 102z"/>
<path style="fill:#555886; stroke:none;" d="M29 103L30 104L29 103z"/>
<path style="fill:#969fd7; stroke:none;" d="M44 103L45 104L44 103M94 103L95 104L94 103z"/>
<path style="fill:#555886; stroke:none;" d="M151 103L152 104L151 103z"/>
<path style="fill:#969fd7; stroke:none;" d="M160 103L161 104L160 103M171.333 103.667L171.667 104.333L171.333 103.667z"/>
<path style="fill:#555886; stroke:none;" d="M205 103L206 104L205 103z"/>
<path style="fill:#969fd7; stroke:none;" d="M214.333 103.667L214.667 104.333L214.333 103.667M19 104L20 105L19 104M35 104L36 105L35 104M95 104L96 105L95 104M117 104L118 105L117 104M126 104L127 105L126 104z"/>
<path style="fill:#555886; stroke:none;" d="M160 104L161 105L160 104z"/>
<path style="fill:#969fd7; stroke:none;" d="M28 105L29 106L28 105z"/>
<path style="fill:#555886; stroke:none;" d="M45 105L46 106L45 105z"/>
<path style="fill:#969fd7; stroke:none;" d="M96 105L97 106L96 105z"/>
<path style="fill:#555886; stroke:none;" d="M117 105L118 106L117 105M152 105L153 106L152 105z"/>
<path style="fill:#969fd7; stroke:none;" d="M18 106L19 107L18 106M36 106L37 107L36 106M60 106L61 107L60 106M97 106L98 107L97 106M125.333 106.667L125.667 107.333L125.333 106.667M152 106L153 107L152 106M179 106L180 107L179 106M206 106L207 107L206 106M27 107L28 108L27 107z"/>
<path style="fill:#555886; stroke:none;" d="M37 107L38 108L37 107M46 107L47 108L46 107z"/>
<path style="fill:#969fd7; stroke:none;" d="M98 107L99 108L98 107M109 107L110 108L109 107M161 107L161 114L162 114L161 107z"/>
<path style="fill:#555886; stroke:none;" d="M17 108L18 109L17 108z"/>
<path style="fill:#969fd7; stroke:none;" d="M37 108L38 109L37 108M47 108L48 109L47 108M99 108L100 109L99 108z"/>
<path style="fill:#555886; stroke:none;" d="M109 108L110 109L109 108z"/>
<path style="fill:#969fd7; stroke:none;" d="M170 108L170 132L171 132L170 108M215 108L215 132L216 132L215 108M26 109L27 110L26 109z"/>
<path style="fill:#555886; stroke:none;" d="M38 109L39 110L38 109z"/>
<path style="fill:#969fd7; stroke:none;" d="M59 109L59 112L60 112L59 109M100 109L101 110L100 109M116.333 109.667L116.667 110.333L116.333 109.667z"/>
<path style="fill:#555886; stroke:none;" d="M16 110L17 111L16 110z"/>
<path style="fill:#969fd7; stroke:none;" d="M48 110L49 111L48 110M68 110L69 111L68 110M15 111L16 112L15 111M25 111L26 112L25 111z"/>
<path style="fill:#555886; stroke:none;" d="M39 111L40 112L39 111z"/>
<path style="fill:#969fd7; stroke:none;" d="M69 111L70 112L69 111z"/>
<path style="fill:#555886; stroke:none;" d="M15 112L16 113L15 112M24 112L25 113L24 112z"/>
<path style="fill:#969fd7; stroke:none;" d="M49 112L50 113L49 112M70 112L71 113L70 112M109 112L110 113L109 112M14 113L15 114L14 113M40 113L41 114L40 113z"/>
<path style="fill:#555886; stroke:none;" d="M60 113L61 114L60 113z"/>
<path style="fill:#969fd7; stroke:none;" d="M71 113L72 114L71 113M125 113L126 114L125 113z"/>
<path style="fill:#555886; stroke:none;" d="M23 114L24 115L23 114z"/>
<path style="fill:#969fd7; stroke:none;" d="M50 114L51 115L50 114M72 114L73 115L72 114z"/>
<path style="fill:#555886; stroke:none;" d="M108 114L109 115L108 114M125 114L126 115L125 114z"/>
<path style="fill:#969fd7; stroke:none;" d="M152 114L153 115L152 114M13 115L14 116L13 115M41 115L42 116L41 115M61 115L62 116L61 115M73 115L74 116L73 115z"/>
<path style="fill:#555886; stroke:none;" d="M117 115L118 116L117 115z"/>
<path style="fill:#969fd7; stroke:none;" d="M22 116L23 117L22 116z"/>
<path style="fill:#555886; stroke:none;" d="M51 116L52 117L51 116z"/>
<path style="fill:#969fd7; stroke:none;" d="M62 116L63 117L62 116M74 116L75 117L74 116M117 116L118 117L117 116M126 116L127 117L126 116M160.333 116.667L160.667 117.333L160.333 116.667M12 117L13 118L12 117M42 117L43 118L42 117M63 117L64 118L63 117M75 117L76 118L75 117z"/>
<path style="fill:#555886; stroke:none;" d="M151 117L152 118L151 117z"/>
<path style="fill:#969fd7; stroke:none;" d="M21 118L22 119L21 118z"/>
<path style="fill:#555886; stroke:none;" d="M43 118L44 119L43 118M52 118L53 119L52 118z"/>
<path style="fill:#969fd7; stroke:none;" d="M64 118L65 119L64 118M76 118L77 119L76 118M127 118L128 119L127 118M150 118L151 119L150 118z"/>
<path style="fill:#555886; stroke:none;" d="M11 119L12 120L11 119z"/>
<path style="fill:#969fd7; stroke:none;" d="M43 119L44 120L43 119M53 119L54 120L53 119M65 119L66 120L65 119M77 119L78 120L77 119M118 119L119 120L118 119M128 119L129 120L128 119M159 119L160 120L159 119M20 120L21 121L20 120z"/>
<path style="fill:#555886; stroke:none;" d="M44 120L45 121L44 120z"/>
<path style="fill:#969fd7; stroke:none;" d="M66 120L67 121L66 120M78 120L79 121L78 120M129 120L130 121L129 120z"/>
<path style="fill:#555886; stroke:none;" d="M10 121L11 122L10 121z"/>
<path style="fill:#969fd7; stroke:none;" d="M54 121L55 122L54 121M67 121L68 122L67 121M79 121L80 122L79 121M119 121L120 122L119 121M130 121L131 122L130 121M147 121L148 122L147 121M158 121L159 122L158 121M9 122L10 123L9 122M19 122L20 123L19 122z"/>
<path style="fill:#555886; stroke:none;" d="M45 122L46 123L45 122z"/>
<path style="fill:#969fd7; stroke:none;" d="M68 122L69 123L68 122M80 122L81 123L80 122z"/>
<path style="fill:#555886; stroke:none;" d="M120 122L121 123L120 122M146 122L147 123L146 122M9 123L10 124L9 123M18 123L19 124L18 123z"/>
<path style="fill:#969fd7; stroke:none;" d="M55 123L56 124L55 123M69 123L70 124L69 123M81 123L82 124L81 123z"/>
<path style="fill:#555886; stroke:none;" d="M133 123L134 124L133 123z"/>
<path style="fill:#969fd7; stroke:none;" d="M134 123L135 124L134 123M144 123L145 124L144 123M8 124L9 125L8 124M46 124L47 125L46 124M70 124L71 125L70 124M82 124L83 125L82 124M121 124L122 125L121 124z"/>
<path style="fill:#555886; stroke:none;" d="M136 124L137 125L136 124z"/>
<path style="fill:#969fd7; stroke:none;" d="M137 124L137 125L141 125L137 124z"/>
<path style="fill:#555886; stroke:none;" d="M141 124L142 125L141 124z"/>
<path style="fill:#969fd7; stroke:none;" d="M156 124L157 125L156 124z"/>
<path style="fill:#555886; stroke:none;" d="M17 125L18 126L17 125z"/>
<path style="fill:#969fd7; stroke:none;" d="M56 125L57 126L56 125M71 125L72 126L71 125M83 125L84 126L83 125M122 125L123 126L122 125M155 125L156 126L155 125M7 126L8 127L7 126M47 126L48 127L47 126M72 126L73 127L72 126M84 126L85 127L84 126z"/>
<path style="fill:#555886; stroke:none;" d="M85 126L86 127L85 126z"/>
<path style="fill:#969fd7; stroke:none;" d="M123 126L124 127L123 126z"/>
<path style="fill:#555886; stroke:none;" d="M154 126L155 127L154 126z"/>
<path style="fill:#969fd7; stroke:none;" d="M16 127L17 128L16 127z"/>
<path style="fill:#555886; stroke:none;" d="M57 127L58 128L57 127z"/>
<path style="fill:#969fd7; stroke:none;" d="M73 127L74 128L73 127M124 127L125 128L124 127M153 127L154 128L153 127M6 128L7 129L6 128M48 128L49 129L48 128M74 128L75 129L74 128M152 128L153 129L152 128M15 129L16 130L15 129z"/>
<path style="fill:#555886; stroke:none;" d="M49 129L50 130L49 129M58 129L59 130L58 129z"/>
<path style="fill:#969fd7; stroke:none;" d="M75 129L76 130L75 129M127 129L128 130L127 129z"/>
<path style="fill:#555886; stroke:none;" d="M150 129L151 130L150 129M5 130L6 131L5 130z"/>
<path style="fill:#969fd7; stroke:none;" d="M49 130L50 131L49 130M59 130L60 131L59 130M76 130L77 131L76 130M129 130L130 131L129 130z"/>
<path style="fill:#555886; stroke:none;" d="M148 130L149 131L148 130z"/>
<path style="fill:#969fd7; stroke:none;" d="M14 131L15 132L14 131z"/>
<path style="fill:#555886; stroke:none;" d="M50 131L51 132L50 131M59 131L60 132L59 131z"/>
<path style="fill:#969fd7; stroke:none;" d="M77 131L78 132L77 131M131 131L132 132L131 131M146 131L147 132L146 131M78 132L79 133L78 132M134 132L134 133L137 133L134 132z"/>
<path style="fill:#555886; stroke:none;" d="M137 132L137 133L142 133L137 132z"/>
<path style="fill:#969fd7; stroke:none;" d="M142.667 132.333L143.333 132.667L142.667 132.333z"/>
<path style="fill:#555886; stroke:none;" d="M78 133L79 134L78 133z"/>
<path style="fill:#02095a; stroke:none;" d="M90 133L85 138L85 139C93.049 147.049 97.3465 152 109 152L90 133z"/>
<path style="fill:#969fd7; stroke:none;" d="M91 133L92 134L91 133M92 134L93 135L92 134M93 135L94 136L93 135M94 136L95 137L94 136M152 136L153 137L152 136z"/>
<path style="fill:#555886; stroke:none;" d="M153 136L155 138L155 136L153 136z"/>
<path style="fill:#02095a; stroke:none;" d="M155.667 136.333L156.333 136.667L155.667 136.333z"/>
<path style="fill:#555886; stroke:none;" d="M157.333 136.667L157.667 137.333L157.333 136.667z"/>
<path style="fill:#969fd7; stroke:none;" d="M158 136L159 137L158 136M95 137L96 138L95 137z"/>
<path style="fill:#555886; stroke:none;" d="M151 137L152 138L151 137z"/>
<path style="fill:#02095a; stroke:none;" d="M161 145L160 145C158.272 155.833 143.276 146.176 154 138C137.898 135.779 160.304 165.92 161 145z"/>
<path style="fill:#969fd7; stroke:none;" d="M155.667 137.333L156.333 137.667L155.667 137.333z"/>
<path style="fill:#02095a; stroke:none;" d="M158 137L158 138L161 139L158 137z"/>
<path style="fill:#555886; stroke:none;" d="M160 137L161 138L160 137z"/>
<path style="fill:#969fd7; stroke:none;" d="M96 138L97 139L96 138M149 138L150 139L149 138M152 138L153 139L152 138M159 138L160 139L159 138M161 138L162 139L161 138M85 139L86 140L85 139M97 139L98 140L97 139M86 140L87 141L86 140M98 140L99 141L98 140z"/>
<path style="fill:#555886; stroke:none;" d="M148 140L149 141L148 140M166 140L167 141L166 140z"/>
<path style="fill:#969fd7; stroke:none;" d="M167.333 140.667L167.667 141.333L167.333 140.667M169 140L170 141L169 140z"/>
<path style="fill:#555886; stroke:none;" d="M170.333 140.667L170.667 141.333L170.333 140.667z"/>
<path style="fill:#02095a; stroke:none;" d="M171 140L172 141L171 140z"/>
<path style="fill:#969fd7; stroke:none;" d="M177 140L178 141L177 140z"/>
<path style="fill:#555886; stroke:none;" d="M178.333 140.667L178.667 141.333L178.333 140.667z"/>
<path style="fill:#02095a; stroke:none;" d="M179 140L180 141L179 140z"/>
<path style="fill:#555886; stroke:none;" d="M180.667 140.333L181.333 140.667L180.667 140.333z"/>
<path style="fill:#969fd7; stroke:none;" d="M182 140L183 141L182 140z"/>
<path style="fill:#555886; stroke:none;" d="M189 140L190 141L189 140z"/>
<path style="fill:#969fd7; stroke:none;" d="M190 140L190 148L191 148L190 140z"/>
<path style="fill:#555886; stroke:none;" d="M198 140L197 151L200 152L200 140L198 140M204 140L204 156L205 156L206 140L204 140M208.667 140.333L209.333 140.667L208.667 140.333z"/>
<path style="fill:#02095a; stroke:none;" d="M210 140L211 141L210 140z"/>
<path style="fill:#555886; stroke:none;" d="M211.333 140.667L211.667 141.333L211.333 140.667z"/>
<path style="fill:#969fd7; stroke:none;" d="M212 140L213 141L212 140M87 141L88 142L87 141M99 141L100 142L99 141z"/>
<path style="fill:#555886; stroke:none;" d="M149 141L150 142L149 141z"/>
<path style="fill:#02095a; stroke:none;" d="M166 141L166 152L167 152L170 141L166 141z"/>
<path style="fill:#555886; stroke:none;" d="M168 141L169 142L168 141z"/>
<path style="fill:#969fd7; stroke:none;" d="M171 141L172 142L171 141M175 141L174 143L175 141z"/>
<path style="fill:#02095a; stroke:none;" d="M181 141L181 142C190.164 151.123 169.062 151.711 178 142C172.624 141.873 173.673 149.86 178.055 151.353C185.237 153.798 186.389 143.972 181 141z"/>
<path style="fill:#969fd7; stroke:none;" d="M179.667 141.333L180.333 141.667L179.667 141.333z"/>
<path style="fill:#555886; stroke:none;" d="M183 141L184 142L183 141z"/>
<path style="fill:#02095a; stroke:none;" d="M189 141C189.017 146.999 189.544 152.812 197 151L197 150C190.329 150.566 191.026 145.771 189 141z"/>
<path style="fill:#969fd7; stroke:none;" d="M206 141L206 144L207 144L206 141z"/>
<path style="fill:#02095a; stroke:none;" d="M207.667 141.333L208.333 141.667L207.667 141.333z"/>
<path style="fill:#969fd7; stroke:none;" d="M209.667 141.333L210.333 141.667L209.667 141.333z"/>
<path style="fill:#02095a; stroke:none;" d="M212 141L212 142C216.917 147.446 210.941 152.855 206 147L205 147C208.438 157.302 221.562 146.587 212 141z"/>
<path style="fill:#969fd7; stroke:none;" d="M214 141L215 142L214 141M88 142L89 143L88 142M100 142L101 143L100 142M147 142L147 146L148 146L147 142M149 142L150 143L149 142z"/>
<path style="fill:#555886; stroke:none;" d="M176 142L177 143L176 142z"/>
<path style="fill:#ffffff; stroke:none;" d="M177.529 143.047C173.788 145.62 177.563 151.701 181.569 149.573C186.039 147.2 181.69 140.185 177.529 143.047z"/>
<path style="fill:#969fd7; stroke:none;" d="M182 142L183 143L182 142M184 142L185 143L184 142z"/>
<path style="fill:#02095a; stroke:none;" d="M205 142L205 145L206 145L207 142L205 142z"/>
<path style="fill:#ffffff; stroke:none;" d="M208.317 143.047C204.577 145.421 207.556 151.721 211.698 149.632C215.943 147.49 212.822 140.188 208.317 143.047z"/>
<path style="fill:#555886; stroke:none;" d="M213 142L214 143L213 142z"/>
<path style="fill:#969fd7; stroke:none;" d="M89 143L90 144L89 143M101 143L102 144L101 143z"/>
<path style="fill:#555886; stroke:none;" d="M183 143L184 144L183 143M215 143L216 144L215 143z"/>
<path style="fill:#969fd7; stroke:none;" d="M90 144L91 145L90 144M102 144L103 145L102 144z"/>
<path style="fill:#555886; stroke:none;" d="M160 144L161 145L160 144z"/>
<path style="fill:#969fd7; stroke:none;" d="M161 144L161 151L162 151L161 144z"/>
<path style="fill:#555886; stroke:none;" d="M167 144L168 145L167 144z"/>
<path style="fill:#969fd7; stroke:none;" d="M175.333 144.667L175.667 145.333L175.333 144.667M185 144L186 145L185 144M214 144L214 148L215 148L214 144M91 145L92 146L91 145M103 145L104 146L103 145M167 145L167 152L168 152L167 145M173 145L173 148L174 148L173 145z"/>
<path style="fill:#555886; stroke:none;" d="M185.333 145.667L185.667 146.333L185.333 145.667z"/>
<path style="fill:#969fd7; stroke:none;" d="M216.333 145.667L216.667 146.333L216.333 145.667M92 146L93 147L92 146M104 146L105 147L104 146M149 146L150 147L149 146M93 147L94 148L93 147M105 147L106 148L105 147M175 147L176 148L175 147M185.333 147.667L185.667 148.333L185.333 147.667z"/>
<path style="fill:#02095a; stroke:none;" d="M198 147L197 150L198 147z"/>
<path style="fill:#969fd7; stroke:none;" d="M94 148L95 149L94 148M106 148L107 149L106 148M148 148L149 149L148 148z"/>
<path style="fill:#555886; stroke:none;" d="M150 148L151 149L150 148M175 148L176 149L175 148z"/>
<path style="fill:#969fd7; stroke:none;" d="M183 148L184 149L183 148z"/>
<path style="fill:#555886; stroke:none;" d="M190 148L191 149L190 148z"/>
<path style="fill:#969fd7; stroke:none;" d="M197 148L198 149L197 148M206 148L207 149L206 148M95 149L96 150L95 149M107 149L108 150L107 149M149 149L150 150L149 149z"/>
<path style="fill:#555886; stroke:none;" d="M151 149L152 150L151 149z"/>
<path style="fill:#969fd7; stroke:none;" d="M174 149L175 150L174 149M176 149L177 150L176 149z"/>
<path style="fill:#555886; stroke:none;" d="M184 149L185 150L184 149M189 149L190 150L189 149z"/>
<path style="fill:#969fd7; stroke:none;" d="M213 149L214 150L213 149M215 149L216 150L215 149M96 150L97 151L96 150M108 150L109 151L108 150M150 150L151 151L150 150z"/>
<path style="fill:#555886; stroke:none;" d="M153 150L154 151L153 150z"/>
<path style="fill:#969fd7; stroke:none;" d="M154 150L155 151L154 150M156.667 150.333L157.333 150.667L156.667 150.333z"/>
<path style="fill:#555886; stroke:none;" d="M158 150L159 151L158 150M175 150L176 151L175 150M177 150L178 151L177 150z"/>
<path style="fill:#969fd7; stroke:none;" d="M178 150L179 151L178 150M180.667 150.333L181.333 150.667L180.667 150.333M192 150L193 151L192 150M195 150L196 151L195 150M206 150L207 151L206 150M208.667 150.333L209.333 150.667L208.667 150.333M211 150L212 151L211 150z"/>
<path style="fill:#555886; stroke:none;" d="M212 150L213 151L212 150M214 150L215 151L214 150z"/>
<path style="fill:#969fd7; stroke:none;" d="M97 151L98 152L97 151M109 151L110 152L109 151z"/>
<path style="fill:#555886; stroke:none;" d="M152 151L153 152L152 151z"/>
<path style="fill:#969fd7; stroke:none;" d="M159 151L160 152L159 151M176 151L177 152L176 151M182 151L183 152L182 151z"/>
<path style="fill:#555886; stroke:none;" d="M191 151L192 152L191 151z"/>
<path style="fill:#969fd7; stroke:none;" d="M196 151L197 152L196 151M207 151L208 152L207 151M213 151L214 152L213 151z"/>
<path style="fill:#02095a; stroke:none;" d="M205 155L206 156L205 155z"/>
<path style="fill:#969fd7; stroke:none;" d="M204.667 156.333L205.333 156.667L204.667 156.333z"/>
</svg>
