<?xml version="1.0" standalone="yes"?>
<svg xmlns="http://www.w3.org/2000/svg" width="327" height="180">
<path style="fill:#ffffff; stroke:none;" d="M0 0L0 154L327 154L327 0L0 0z"/>
<path style="fill:#9f9f9f; stroke:none;" d="M70 31L70 32L73 32L73 80L74 80L74 44C74 39.1518 75.4682 32.8149 70 31M85 31C85.0016 45.977 96.9671 42 109 42L109 41L86 41L85 31z"/>
<path style="fill:#575757; stroke:none;" d="M86 31L87 32L86 31z"/>
<path style="fill:#9f9f9f; stroke:none;" d="M87 31L87 32L111 32L87 31M139 31L139 32L150 32L150 61L151.603 70.9722L175 72L175 81L176 81C175.989 66.7343 162.114 71 151 71L151 31L139 31M182 31L182 32L191 32L182 31z"/>
<path style="fill:#575757; stroke:none;" d="M228 31L227 33L228 31z"/>
<path style="fill:#9f9f9f; stroke:none;" d="M229 31L229 32L236 32L229 31z"/>
<path style="fill:#575757; stroke:none;" d="M236 31L237 32L236 31z"/>
<path style="fill:#9f9f9f; stroke:none;" d="M258 31L258 32L271 32L271 41L259 41L259 42L272 42L272 31L258 31M275 31L275 32L284 33L275 31z"/>
<path style="fill:#575757; stroke:none;" d="M286 31L286 32L287 34L288 34L286 31z"/>
<path style="fill:#9f9f9f; stroke:none;" d="M288 31L289 32L288 31M294 31L294 32L297 32L294 31M63 32L64 33L63 32z"/>
<path style="fill:#03a5df; stroke:none;" d="M24 81L73 81L73 32C44.6079 32.0188 26.1396 53.8883 24 81z"/>
<path style="fill:#030303; stroke:none;" d="M86 32L86 41C94.495 41 106.632 38.7483 113.96 43.8542C123.108 50.2285 122.762 63.2808 112.996 68.9105C107.715 71.955 100.851 71 95 71L95 50L86 50L86 80C95.6077 80 108.062 82.1078 117 78.0949C134.834 70.0875 135.151 45.0186 119 34.9946C110.077 29.4562 96.082 32 86 32z"/>
<path style="fill:#9f9f9f; stroke:none;" d="M113.667 32.3333L114.333 32.6667L113.667 32.3333z"/>
<path style="fill:#030303; stroke:none;" d="M139 32C142.159 45.2682 142.159 66.7319 139 80L175 81L175 72L150 72L150 32L139 32M182 32L182 81L192 81L192 52L193 52C195.506 57.3606 202.487 73.8533 209.028 74.534C216.001 75.2596 223.761 56.3495 226 51L227 51L227 80L237 80L237 32C221.11 32.0123 217.884 51.2684 209 62C203.874 50.1039 196.155 32.0109 182 32z"/>
<path style="fill:#575757; stroke:none;" d="M191 32L192 33L191 32M255 32L256 33L255 32z"/>
<path style="fill:#030303; stroke:none;" d="M248 71L248 80C256.448 80 269.174 82.3717 276.985 78.9105C286.442 74.7199 287.889 61.2205 280.786 54.2245C276.157 49.6653 258.152 52.1363 257.327 46.2315C256.445 39.9216 267.443 41 271 41L271 32C265.648 32 258.924 30.9273 254.015 33.4568C245.494 37.8482 244.622 50.7275 252.055 56.5664C257.937 61.187 266.018 56.5934 271.887 60.7423C275.831 63.5296 275.633 68.5463 270.955 70.3966C264.691 72.8745 254.695 71 248 71z"/>
<path style="fill:#575757; stroke:none;" d="M275 32L276 33L275 32z"/>
<path style="fill:#030303; stroke:none;" d="M276 32L276 33L279 33L279 41L280 41L283 33L276 32z"/>
<path style="fill:#9f9f9f; stroke:none;" d="M285 32L286 42L287 42L288 34L287 34L287 41L286 41L285 32z"/>
<path style="fill:#030303; stroke:none;" d="M286 32L286 41L287 41L288 32L286 32M294 32L293 36L294 36L294 34L295 34L295 41L296 41L296 32L294 32z"/>
<path style="fill:#575757; stroke:none;" d="M296 32L296 41L297 41L296 32z"/>
<path style="fill:#9f9f9f; stroke:none;" d="M59 33L60 34L59 33M116 33L117 34L116 33z"/>
<path style="fill:#575757; stroke:none;" d="M139 33L139 79L140 79C140 65.9965 144.01 44.9389 139 33z"/>
<path style="fill:#9f9f9f; stroke:none;" d="M192 33L193 34L192 33M226 33L227 34L226 33z"/>
<path style="fill:#575757; stroke:none;" d="M253 33L254 34L253 33z"/>
<path style="fill:#9f9f9f; stroke:none;" d="M278 33L278 41L279 41L278 33M280 33L281 34L280 33z"/>
<path style="fill:#030303; stroke:none;" d="M288 33L291 41L293 37L292 37L291 39L288 33z"/>
<path style="fill:#9f9f9f; stroke:none;" d="M293 33L294 34L293 33M56 34L57 35L56 34M118 34L119 35L118 34M251 34L252 35L251 34M289 34L290 35L289 34M294 34L295 35L294 34M120 35L121 36L120 35z"/>
<path style="fill:#575757; stroke:none;" d="M193 35L194 36L193 35z"/>
<path style="fill:#9f9f9f; stroke:none;" d="M225 35L226 36L225 35M237 35L237 81L238 81C238 67.9965 242.01 46.9389 237 35M250 35L251 36L250 35z"/>
<path style="fill:#575757; stroke:none;" d="M288 35L289 36L288 35z"/>
<path style="fill:#9f9f9f; stroke:none;" d="M292 35L293 36L292 35M51 36L52 37L51 36M121 36L122 37L121 36M194 36L195 37L194 36M249 36L250 37L249 36M290 36L291 37L290 36z"/>
<path style="fill:#575757; stroke:none;" d="M292.667 36.3333L293.333 36.6667L292.667 36.3333M122 37L123 38L122 37M224 37L225 38L224 37M290 37L291 38L290 37z"/>
<path style="fill:#9f9f9f; stroke:none;" d="M293 37L294 38L293 37z"/>
<path style="fill:#575757; stroke:none;" d="M123 38L124 39L123 38z"/>
<path style="fill:#9f9f9f; stroke:none;" d="M195 38L196 39L195 38M223 38L224 39L223 38z"/>
<path style="fill:#575757; stroke:none;" d="M248 38L249 39L248 38z"/>
<path style="fill:#9f9f9f; stroke:none;" d="M289 38L290 39L289 38z"/>
<path style="fill:#575757; stroke:none;" d="M291 38L292 39L291 38z"/>
<path style="fill:#9f9f9f; stroke:none;" d="M46 39L47 40L46 39z"/>
<path style="fill:#575757; stroke:none;" d="M124 39L125 40L124 39z"/>
<path style="fill:#9f9f9f; stroke:none;" d="M247 39L248 40L247 39M292 39L293 40L292 39z"/>
<path style="fill:#575757; stroke:none;" d="M125 40L126 41L125 40M196 40L197 41L196 40z"/>
<path style="fill:#9f9f9f; stroke:none;" d="M222 40L223 41L222 40z"/>
<path style="fill:#575757; stroke:none;" d="M247 40L248 41L247 40M290 40L291 41L290 40z"/>
<path style="fill:#9f9f9f; stroke:none;" d="M43 41L44 42L43 41z"/>
<path style="fill:#575757; stroke:none;" d="M109 41L110 42L109 41z"/>
<path style="fill:#9f9f9f; stroke:none;" d="M126 41L127 42L126 41M197 41L198 42L197 41M279 41L280 42L279 41M291 41L292 42L291 41M295.667 41.3333L296.333 41.6667L295.667 41.3333M42 42L43 43L42 42M111 42L112 43L111 42z"/>
<path style="fill:#575757; stroke:none;" d="M112 42L113 43L112 42M221 42L222 43L221 42z"/>
<path style="fill:#9f9f9f; stroke:none;" d="M246.333 42.6667L246.667 43.3333L246.333 42.6667M113 43L114 44L113 43z"/>
<path style="fill:#575757; stroke:none;" d="M127 43L128 44L127 43z"/>
<path style="fill:#9f9f9f; stroke:none;" d="M198 43L199 44L198 43M220 43L221 44L220 43M257 43L258 44L257 43z"/>
<path style="fill:#575757; stroke:none;" d="M115 44L116 45L115 44z"/>
<path style="fill:#9f9f9f; stroke:none;" d="M128 44L129 45L128 44z"/>
<path style="fill:#575757; stroke:none;" d="M246 44L246 47L247 47L246 44M116 45L117 46L116 45M199 45L200 46L199 45z"/>
<path style="fill:#9f9f9f; stroke:none;" d="M219 45L220 46L219 45z"/>
<path style="fill:#575757; stroke:none;" d="M256 45L257 46L256 45M117 46L118 47L117 46z"/>
<path style="fill:#9f9f9f; stroke:none;" d="M129 46L130 47L129 46M200 46L201 47L200 46z"/>
<path style="fill:#575757; stroke:none;" d="M129 47L130 48L129 47M218 47L219 48L218 47z"/>
<path style="fill:#9f9f9f; stroke:none;" d="M246.333 47.6667L246.667 48.3333L246.333 47.6667M118 48L119 49L118 48M201 48L202 49L201 48M217 48L218 49L217 48z"/>
<path style="fill:#575757; stroke:none;" d="M257 48L258 49L257 48z"/>
<path style="fill:#9f9f9f; stroke:none;" d="M86 49L86 50L95 50L86 49z"/>
<path style="fill:#575757; stroke:none;" d="M119 49L120 50L119 49z"/>
<path style="fill:#9f9f9f; stroke:none;" d="M130 49L131 50L130 49z"/>
<path style="fill:#575757; stroke:none;" d="M258 49L259 50L258 49z"/>
<path style="fill:#9f9f9f; stroke:none;" d="M259 49L260 50L259 49M34 50L35 51L34 50M85 50L85 81L86 81L85 50M95 50L96.6034 69.9722L110 71L110 70L96 70L95 50M119 50L120 51L119 50z"/>
<path style="fill:#575757; stroke:none;" d="M130 50L131 51L130 50M202 50L203 51L202 50z"/>
<path style="fill:#9f9f9f; stroke:none;" d="M216 50L217 51L216 50z"/>
<path style="fill:#575757; stroke:none;" d="M247 50L248 51L247 50M274 50L275 51L274 50z"/>
<path style="fill:#9f9f9f; stroke:none;" d="M275 50L276 51L275 50M203 51L204 52L203 51z"/>
<path style="fill:#575757; stroke:none;" d="M226 51L225 53L226 51z"/>
<path style="fill:#9f9f9f; stroke:none;" d="M247 51L248 52L247 51M277 51L278 52L277 51z"/>
<path style="fill:#575757; stroke:none;" d="M120 52L121 53L120 52M192 52L193 53L192 52M215 52L216 53L215 52z"/>
<path style="fill:#9f9f9f; stroke:none;" d="M226 52L226 81L227 81L226 52M32 53L33 54L32 53M120 53L120 59L121 59L120 53M192 53L192 81L193 81L194 53L192 53M204 53L205 54L204 53M248 53L249 54L248 53M280 53L281 54L280 53z"/>
<path style="fill:#575757; stroke:none;" d="M214 54L215 55L214 54M224 54L225 55L224 54z"/>
<path style="fill:#9f9f9f; stroke:none;" d="M249 54L250 55L249 54M281 54L282 55L281 54M131.333 55.6667L131.667 56.3333L131.333 55.6667M194 55L195 56L194 55z"/>
<path style="fill:#575757; stroke:none;" d="M205 55L206 56L205 55z"/>
<path style="fill:#9f9f9f; stroke:none;" d="M213 55L214 56L213 55z"/>
<path style="fill:#575757; stroke:none;" d="M250 55L251 56L250 55z"/>
<path style="fill:#9f9f9f; stroke:none;" d="M282 55L283 56L282 55M30 56L31 57L30 56z"/>
<path style="fill:#575757; stroke:none;" d="M195 56L196 57L195 56z"/>
<path style="fill:#9f9f9f; stroke:none;" d="M206 56L207 57L206 56M223 56L224 57L223 56M251 56L252 57L251 56M212 57L213 58L212 57M252 57L253 58L252 57z"/>
<path style="fill:#575757; stroke:none;" d="M283 57L284 58L283 57z"/>
<path style="fill:#9f9f9f; stroke:none;" d="M29 58L30 59L29 58M196 58L197 59L196 58M207 58L208 59L207 58M222 58L223 59L222 58M254 58L255 59L254 58z"/>
<path style="fill:#575757; stroke:none;" d="M120 59L121 60L120 59M211 59L212 60L211 59M221 59L222 60L221 59z"/>
<path style="fill:#9f9f9f; stroke:none;" d="M257 59L258 60L257 59z"/>
<path style="fill:#575757; stroke:none;" d="M258 59L258 60L271 60L258 59M284 59L285 60L284 59z"/>
<path style="fill:#9f9f9f; stroke:none;" d="M28 60L29 61L28 60M197 60L198 61L197 60z"/>
<path style="fill:#575757; stroke:none;" d="M208 60L209 61L208 60z"/>
<path style="fill:#9f9f9f; stroke:none;" d="M210 60L211 61L210 60M272 60L273 61L272 60M119 61L120 62L119 61z"/>
<path style="fill:#575757; stroke:none;" d="M130 61L131 62L130 61M198 61L199 62L198 61z"/>
<path style="fill:#9f9f9f; stroke:none;" d="M209 61L210 62L209 61M220 61L221 62L220 61M285.333 61.6667L285.667 62.3333L285.333 61.6667z"/>
<path style="fill:#575757; stroke:none;" d="M119 62L120 63L119 62z"/>
<path style="fill:#9f9f9f; stroke:none;" d="M130 62L131 63L130 62M274 62L275 63L274 62M199 63L200 64L199 63M219 63L220 64L219 63z"/>
<path style="fill:#575757; stroke:none;" d="M285.333 63.6667L285.667 64.3333L285.333 63.6667M118 64L119 65L118 64M129 64L130 65L129 64M218 64L219 65L218 64M275 64L275 67L276 67L275 64z"/>
<path style="fill:#9f9f9f; stroke:none;" d="M26 65L27 66L26 65M117 65L118 66L117 65M129 65L130 66L129 65M116 66L117 67L116 66z"/>
<path style="fill:#575757; stroke:none;" d="M201 66L202 67L201 66z"/>
<path style="fill:#9f9f9f; stroke:none;" d="M217 66L218 67L217 66z"/>
<path style="fill:#575757; stroke:none;" d="M285.333 66.6667L285.667 67.3333L285.333 66.6667z"/>
<path style="fill:#9f9f9f; stroke:none;" d="M115 67L116 68L115 67M128 67L129 68L128 67z"/>
<path style="fill:#575757; stroke:none;" d="M114 68L115 69L114 68z"/>
<path style="fill:#9f9f9f; stroke:none;" d="M202 68L203 69L202 68M216 68L217 69L216 68M274 68L275 69L274 68M285.333 68.6667L285.667 69.3333L285.333 68.6667M25 69L26 70L25 69M112 69L113 70L112 69M127 69L128 70L127 69z"/>
<path style="fill:#575757; stroke:none;" d="M203 69L204 70L203 69M215 69L216 70L215 69z"/>
<path style="fill:#9f9f9f; stroke:none;" d="M273 69L274 70L273 69z"/>
<path style="fill:#575757; stroke:none;" d="M95 70L96 71L95 70M126 70L127 71L126 70z"/>
<path style="fill:#9f9f9f; stroke:none;" d="M271 70L272 71L271 70z"/>
<path style="fill:#575757; stroke:none;" d="M272 70L273 71L272 70M150 71L151 72L150 71M204 71L205 72L204 71z"/>
<path style="fill:#9f9f9f; stroke:none;" d="M214 71L215 72L214 71z"/>
<path style="fill:#575757; stroke:none;" d="M247 71C247.011 85.4692 261.778 81 273 81L273 80L248 80L247 71z"/>
<path style="fill:#9f9f9f; stroke:none;" d="M284 71L285 72L284 71M205 73L206 74L205 73M213 73L214 74L213 73M283 73L284 74L283 73M24 74L24 77L25 77L24 74z"/>
<path style="fill:#575757; stroke:none;" d="M206 74L207 75L206 74M212 74L213 75L212 74M282 74L283 75L282 74M121 75L122 76L121 75M207 75L208 76L207 75z"/>
<path style="fill:#9f9f9f; stroke:none;" d="M208 75L208 76L211 76L208 75z"/>
<path style="fill:#575757; stroke:none;" d="M211 75L212 76L211 75z"/>
<path style="fill:#9f9f9f; stroke:none;" d="M120 76L121 77L120 76z"/>
<path style="fill:#575757; stroke:none;" d="M118 77L119 78L118 77M279 77L280 78L279 77M116 78L117 79L116 78z"/>
<path style="fill:#9f9f9f; stroke:none;" d="M278 78L279 79L278 78z"/>
<path style="fill:#575757; stroke:none;" d="M113 79L114 80L113 79z"/>
<path style="fill:#9f9f9f; stroke:none;" d="M114 79L115 80L114 79M276 79L277 80L276 79z"/>
<path style="fill:#575757; stroke:none;" d="M86 80L86 81L110 81L86 80z"/>
<path style="fill:#9f9f9f; stroke:none;" d="M110.667 80.3333L111.333 80.6667L110.667 80.3333z"/>
<path style="fill:#575757; stroke:none;" d="M139 80L140 81L139 80M227 80L227 81L237 81L227 80z"/>
<path style="fill:#9f9f9f; stroke:none;" d="M247 80L248 81L247 80M273 80L274 81L273 80z"/>
<path style="fill:#03a5df; stroke:none;" d="M86 93L86 124C103.799 123.631 115.632 110.189 117 93L86 93z"/>
<path style="fill:#9f9f9f; stroke:none;" d="M116.333 97.6667L116.667 98.3333L116.333 97.6667M115 102L116 103L115 102M114 105L115 106L114 105M113 107L114 108L113 107M111 110L112 111L111 110M108 114L109 115L108 114M107 115L108 116L107 115M100 120L101 121L100 120M98 121L99 122L98 121M92 123L93 124L92 123z"/>
</svg>
