<?xml version="1.0" standalone="no"?>
<!DOCTYPE svg PUBLIC "-//W3C//DTD SVG 20010904//EN"
 "http://www.w3.org/TR/2001/REC-SVG-20010904/DTD/svg10.dtd">
<svg version="1.0" xmlns="http://www.w3.org/2000/svg"
 width="240.000000pt" height="180.000000pt" viewBox="0 0 240.000000 180.000000"
 preserveAspectRatio="xMidYMid meet">

<g transform="translate(0.000000,180.000000) scale(0.100000,-0.100000)"
fill="#000000" stroke="none">
<path d="M221 1226 c-14 -17 -7 -36 14 -36 22 0 29 20 13 36 -13 13 -16 13
-27 0z"/>
<path d="M175 1170 c-4 -6 -11 -7 -17 -4 -7 4 -8 2 -4 -4 5 -8 -4 -12 -30 -12
-46 0 -42 -7 6 -11 19 -2 41 -7 48 -13 8 -6 17 -5 24 2 19 19 83 14 111 -8
l26 -20 14 20 c13 19 24 20 126 19 68 0 111 -5 111 -11 0 -6 8 -4 18 3 16 13
16 13 0 -7 -21 -24 -23 -34 -7 -34 5 0 7 6 3 13 -4 6 5 1 19 -12 l27 -24 25
23 c19 18 22 26 14 37 -10 11 13 13 132 13 l144 -1 -35 -19 c-19 -10 -48 -32
-64 -49 -17 -17 -39 -31 -50 -31 -19 1 -19 2 -3 11 23 13 22 32 -3 54 -20 18
-21 18 -50 -10 -17 -16 -30 -34 -30 -39 0 -6 4 -5 9 2 6 10 10 10 21 -3 11
-13 8 -15 -17 -15 -16 0 -34 5 -41 12 -9 9 -15 9 -24 0 -17 -17 -58 -15 -80 5
-17 15 -19 15 -38 -2 -16 -15 -22 -15 -35 -5 -10 8 -15 9 -15 1 0 -7 -32 -11
-97 -11 -76 0 -100 4 -115 17 -17 15 -19 15 -36 0 -14 -13 -38 -17 -97 -17
-101 0 -94 -8 10 -11 44 -1 86 -6 93 -11 8 -7 16 -7 25 0 13 11 57 12 57 2 0
-3 -5 -11 -10 -16 -8 -8 -6 -15 5 -24 13 -11 19 -11 32 3 13 13 14 19 3 31
-11 14 -4 16 66 16 71 0 80 -2 106 -27 l28 -27 30 29 c29 28 54 29 31 2 -8
-11 -6 -20 13 -40 l24 -25 -67 0 c-57 0 -70 3 -93 26 l-28 26 -30 -29 c-26
-25 -33 -27 -41 -15 -8 11 -12 12 -16 3 -7 -20 -93 -16 -116 4 -18 17 -19 17
-32 0 -9 -13 -29 -17 -91 -19 -73 -2 -74 -2 -19 -5 33 -2 63 -10 67 -16 6 -9
10 -8 17 2 8 12 12 13 26 1 12 -10 19 -10 27 -2 7 7 32 12 57 12 44 0 44 0 26
-20 -18 -20 -18 -21 3 -42 21 -21 22 -21 42 -3 24 22 25 29 4 49 -11 11 -12
16 -3 16 7 0 28 -14 46 -32 l33 -32 33 32 c37 36 73 46 42 12 -18 -20 -18 -21
10 -50 l29 -30 -50 0 c-28 0 -55 5 -62 12 -9 9 -15 9 -24 0 -8 -8 -69 -13
-197 -14 l-186 -3 179 -2 c150 -3 183 -6 198 -20 17 -15 19 -15 36 0 17 16 62
24 62 12 0 -3 -11 -18 -25 -32 -18 -20 -21 -30 -13 -40 8 -11 -30 -13 -212
-13 -123 0 -221 -2 -219 -5 3 -2 103 -5 223 -5 133 -1 227 -6 242 -12 16 -8
27 -8 36 -1 7 6 45 11 83 11 61 1 73 -3 96 -24 25 -24 26 -24 44 -4 18 20 18
19 53 -11 19 -17 46 -36 60 -42 21 -10 -65 -13 -409 -17 l-434 -5 457 -3 c251
-1 465 -5 475 -9 17 -6 17 -5 1 13 -17 20 -16 22 20 57 l38 37 39 -41 c39 -40
40 -41 20 -56 -19 -14 -18 -15 20 -9 22 3 127 6 233 6 l192 0 0 80 0 80 73 0
c59 0 84 5 123 25 58 30 54 29 54 8 0 -41 61 -123 117 -161 56 -37 57 -37 157
-37 56 0 109 3 119 7 14 6 17 21 17 103 0 52 -1 95 -3 95 -1 0 -20 -9 -42 -20
-22 -11 -47 -20 -57 -20 -37 0 -87 29 -102 59 -21 40 -20 69 4 108 32 54 109
62 176 18 l24 -15 0 99 0 100 -37 10 c-111 31 -222 3 -300 -74 l-52 -52 -12
29 c-14 35 -64 75 -110 89 -21 6 -291 10 -704 10 -423 0 -674 4 -681 10 -8 7
-14 6 -19 -1 -10 -16 -101 -12 -115 5 -15 17 -26 19 -35 5z m1215 -80 c0 -45
-2 -50 -22 -50 -12 0 -38 15 -58 34 -19 19 -48 42 -65 50 -29 15 -28 16 58 16
l87 0 0 -50z m-578 -100 c-15 -34 -19 -37 -32 -25 -12 13 -17 12 -36 -6 -13
-12 -30 -19 -38 -16 -23 9 -20 30 3 22 27 -8 45 18 31 44 -10 20 -8 21 39 21
l50 0 -17 -40z m577 -2 c0 -24 -3 -36 -6 -28 -3 8 -12 27 -20 43 -13 25 -12
27 7 27 17 0 20 -6 19 -42z m-679 12 c0 -5 -5 -10 -11 -10 -5 0 -7 5 -4 10 3
6 8 10 11 10 2 0 4 -4 4 -10z m285 -10 c3 -5 1 -10 -4 -10 -6 0 -11 5 -11 10
0 6 2 10 4 10 3 0 8 -4 11 -10z m255 -25 l34 -35 -34 -35 c-19 -20 -40 -33
-47 -31 -8 3 -13 -2 -13 -15 0 -19 -6 -20 -97 -17 -94 3 -98 4 -101 27 -2 12
-1 34 2 47 6 22 12 24 74 26 l67 1 -65 6 -65 6 25 18 c28 19 81 22 112 6 17
-9 24 -7 41 10 12 12 24 21 27 21 3 0 21 -16 40 -35z m408 23 c33 -33 2 -78
-52 -78 -24 0 -26 3 -26 45 0 44 1 45 33 45 18 0 38 -5 45 -12z m-1168 -38 c0
-5 -4 -10 -10 -10 -5 0 -10 5 -10 10 0 6 5 10 10 10 6 0 10 -4 10 -10z m418
-43 l32 -33 -35 -34 -35 -34 -35 34 -35 34 32 33 c18 18 35 33 38 33 3 0 20
-15 38 -33z m-182 12 c3 -6 -6 -23 -20 -38 -20 -21 -23 -30 -14 -39 9 -9 2
-12 -32 -12 l-44 0 29 30 c28 29 28 30 10 50 -18 20 -18 20 23 20 22 0 44 -5
48 -11z m-236 -9 c0 -5 -4 -10 -10 -10 -5 0 -10 5 -10 10 0 6 5 10 10 10 6 0
10 -4 10 -10z m120 0 c0 -5 -4 -10 -10 -10 -5 0 -10 5 -10 10 0 6 5 10 10 10
6 0 10 -4 10 -10z m160 -6 c0 -8 -5 -12 -10 -9 -6 4 -8 11 -5 16 9 14 15 11
15 -7z m-160 -34 c0 -5 -2 -10 -4 -10 -3 0 -8 5 -11 10 -3 6 -1 10 4 10 6 0
11 -4 11 -10z m160 0 c0 -5 -4 -10 -10 -10 -5 0 -10 5 -10 10 0 6 5 10 10 10
6 0 10 -4 10 -10z m200 6 c0 -3 -4 -8 -10 -11 -5 -3 -10 -1 -10 4 0 6 5 11 10
11 6 0 10 -2 10 -4z m0 -40 c0 -3 -4 -8 -10 -11 -5 -3 -10 -1 -10 4 0 6 5 11
10 11 6 0 10 -2 10 -4z m-320 -19 c0 -2 -8 -11 -18 -21 -18 -15 -20 -15 -37 4
-18 20 -18 20 18 20 21 0 37 -2 37 -3z m83 -14 c18 -17 19 -17 32 1 8 10 19
15 25 11 14 -9 -57 -85 -79 -85 -11 0 -10 4 4 20 17 19 17 21 2 38 -30 33 -17
44 16 15z m467 -18 l34 -35 -33 -31 -34 -30 -29 27 c-15 16 -26 34 -24 41 4 9
-4 13 -22 13 -32 0 -74 20 -80 38 -3 9 17 12 75 12 77 0 80 -1 113 -35z m-520
15 c0 -5 -4 -10 -10 -10 -5 0 -10 5 -10 10 0 6 5 10 10 10 6 0 10 -4 10 -10z
m710 -35 c0 -25 -4 -35 -16 -35 -11 0 -14 5 -9 18 4 9 10 25 12 35 8 27 13 20
13 -18z m-380 -90 l-40 -40 -37 38 -37 37 39 40 39 40 38 -37 38 -37 -40 -41z
m-100 95 c0 -5 -4 -10 -10 -10 -5 0 -10 5 -10 10 0 6 5 10 10 10 6 0 10 -4 10
-10z m-230 -4 c0 -3 -4 -8 -10 -11 -5 -3 -10 -1 -10 4 0 6 5 11 10 11 6 0 10
-2 10 -4z m710 -96 l0 -50 -82 0 -81 0 47 32 c26 17 53 39 59 50 7 10 22 18
34 18 21 0 23 -5 23 -50z"/>
<path d="M1180 950 c0 -5 5 -10 10 -10 6 0 10 5 10 10 0 6 -4 10 -10 10 -5 0
-10 -4 -10 -10z"/>
<path d="M1180 910 c0 -5 5 -10 10 -10 6 0 10 5 10 10 0 6 -4 10 -10 10 -5 0
-10 -4 -10 -10z"/>
<path d="M850 890 c0 -5 5 -10 10 -10 6 0 10 5 10 10 0 6 -4 10 -10 10 -5 0
-10 -4 -10 -10z"/>
<path d="M850 849 c0 -5 5 -7 10 -4 6 3 10 8 10 11 0 2 -4 4 -10 4 -5 0 -10
-5 -10 -11z"/>
<path d="M1145 780 c-3 -5 -1 -10 4 -10 6 0 11 5 11 10 0 6 -2 10 -4 10 -3 0
-8 -4 -11 -10z"/>
<path d="M1145 740 c3 -5 8 -10 11 -10 2 0 4 5 4 10 0 6 -5 10 -11 10 -5 0 -7
-4 -4 -10z"/>
<path d="M940 730 c0 -5 5 -10 10 -10 6 0 10 5 10 10 0 6 -4 10 -10 10 -5 0
-10 -4 -10 -10z"/>
<path d="M940 690 c0 -5 5 -10 10 -10 6 0 10 5 10 10 0 6 -4 10 -10 10 -5 0
-10 -4 -10 -10z"/>
<path d="M447 1112 c-16 -18 -16 -20 1 -35 18 -16 20 -16 35 1 16 18 16 20 -1
35 -18 16 -20 16 -35 -1z"/>
<path d="M2277 1110 c3 -11 7 -20 8 -20 1 0 5 9 8 20 3 12 0 20 -8 20 -8 0
-11 -8 -8 -20z"/>
<path d="M2310 1112 c0 -14 6 -22 16 -22 14 0 15 3 3 18 -7 9 -15 19 -16 21
-2 2 -3 -5 -3 -17z"/>
<path d="M405 1070 c-3 -5 -1 -10 4 -10 6 0 11 5 11 10 0 6 -2 10 -4 10 -3 0
-8 -4 -11 -10z"/>
<path d="M510 1010 c0 -5 5 -10 10 -10 6 0 10 5 10 10 0 6 -4 10 -10 10 -5 0
-10 -4 -10 -10z"/>
<path d="M600 980 c0 -5 5 -10 10 -10 6 0 10 5 10 10 0 6 -4 10 -10 10 -5 0
-10 -4 -10 -10z"/>
<path d="M210 960 c0 -5 5 -10 10 -10 6 0 10 5 10 10 0 6 -4 10 -10 10 -5 0
-10 -4 -10 -10z"/>
<path d="M320 900 c0 -5 5 -10 10 -10 6 0 10 5 10 10 0 6 -4 10 -10 10 -5 0
-10 -4 -10 -10z"/>
<path d="M320 860 c0 -5 5 -10 10 -10 6 0 10 5 10 10 0 6 -4 10 -10 10 -5 0
-10 -4 -10 -10z"/>
<path d="M485 760 c3 -5 8 -10 11 -10 2 0 4 5 4 10 0 6 -5 10 -11 10 -5 0 -7
-4 -4 -10z"/>
</g>
</svg>
