<?xml version="1.0" standalone="no"?>
<!DOCTYPE svg PUBLIC "-//W3C//DTD SVG 20010904//EN"
 "http://www.w3.org/TR/2001/REC-SVG-20010904/DTD/svg10.dtd">
<svg version="1.0" xmlns="http://www.w3.org/2000/svg"
 width="564.000000pt" height="89.000000pt" viewBox="0 0 564.000000 89.000000"
 preserveAspectRatio="xMidYMid meet">

<g transform="translate(0.000000,89.000000) scale(0.100000,-0.100000)"
fill="#000000" stroke="none">
<path d="M269 879 c-114 -12 -207 -68 -244 -145 -20 -43 -23 -134 -6 -185 19
-58 76 -103 206 -164 66 -31 136 -65 155 -75 64 -34 67 -105 6 -134 -59 -28
-253 -17 -348 19 -16 6 -18 -1 -18 -73 0 -92 -7 -86 105 -102 93 -13 222 -13
287 1 76 16 166 67 199 112 62 85 58 209 -8 287 -29 34 -68 57 -199 121 -100
48 -168 87 -174 100 -17 31 -4 66 33 86 46 25 181 23 265 -4 l62 -21 0 78 0
78 -82 10 c-135 18 -170 19 -239 11z"/>
<path d="M5250 879 c-189 -21 -293 -142 -259 -301 20 -92 98 -151 312 -239 75
-30 107 -59 107 -98 0 -32 -20 -58 -57 -72 -55 -21 -253 -5 -335 26 -16 6 -18
-1 -18 -73 0 -92 -7 -86 105 -102 93 -13 222 -13 287 1 29 6 79 25 111 42 93
49 129 108 129 213 1 122 -39 164 -258 269 -94 46 -157 83 -164 96 -17 31 -4
66 33 86 46 25 181 23 265 -4 l62 -21 0 78 0 78 -82 10 c-135 18 -170 19 -238
11z"/>
<path d="M800 450 l0 -420 115 0 115 0 0 420 0 420 -115 0 -115 0 0 -420z"/>
<path d="M1260 450 l0 -420 310 0 310 0 0 75 0 75 -200 0 -200 0 0 105 0 105
170 0 170 0 0 65 0 65 -167 2 -168 3 -3 98 -3 97 196 0 195 0 0 75 0 75 -305
0 -305 0 0 -420z"/>
<path d="M2040 450 l0 -420 80 0 80 0 0 302 c0 166 4 298 8 293 5 -6 62 -144
128 -308 l119 -298 74 3 75 3 121 298 c67 163 125 300 129 304 3 3 6 -129 6
-295 l0 -302 110 0 110 0 0 420 0 421 -147 -3 -147 -3 -83 -205 c-126 -312
-135 -332 -143 -323 -3 4 -53 126 -110 271 l-103 262 -154 0 -153 0 0 -420z"/>
<path d="M3310 450 l0 -420 305 0 305 0 0 75 0 75 -195 0 -195 0 0 105 0 105
165 0 165 0 0 65 0 65 -165 0 -165 0 0 100 0 100 190 0 190 0 0 75 0 75 -300
0 -300 0 0 -420z"/>
<path d="M4090 450 l0 -420 80 0 80 0 2 288 3 287 150 -287 150 -288 133 0
132 0 0 420 0 420 -80 0 -80 0 -2 -284 -3 -284 -146 282 -145 281 -137 3 -137
3 0 -421z"/>
</g>
</svg>
