<svg xmlns="http://www.w3.org/2000/svg" xmlns:xlink="http://www.w3.org/1999/xlink" viewBox="0,0,255.99409,255.99409" width="50px" height="50px" fill-rule="nonzero"><g fill="#45ce56" fill-rule="nonzero" stroke="none" stroke-width="1" stroke-linecap="butt" stroke-linejoin="miter" stroke-miterlimit="10" stroke-dasharray="" stroke-dashoffset="0" font-family="none" font-weight="none" font-size="none" text-anchor="none" style="mix-blend-mode: normal"><g transform="scale(5.12,5.12)"><path d="M9.43359,8c-0.52734,0 -0.96094,0.17969 -1.33203,0.55078c-1.83594,1.82422 -3.67578,3.64063 -5.52344,5.45313c-0.39062,0.38281 -0.57812,0.82813 -0.57812,1.36328c0.00781,8.03906 0.00781,24.01563 0.00781,25.51563l0.07031,1.11328h1c1.47266,0 25.44531,-0.00391 37.47266,0.00391c0.54297,0 0.99609,-0.1875 1.39453,-0.57812c1.81641,-1.8125 3.64063,-3.61328 5.47266,-5.40625c0.39063,-0.39062 0.58203,-0.84375 0.58203,-1.39844c-0.00781,-8.37109 0,-25.61719 0,-25.61719v-1zM19.09375,14c0.94141,0.00391 1.875,0.08203 2.80078,0.32031c1.87891,0.48047 3.21484,1.58203 4,3.33984c0.46094,1.03516 0.73047,2.12109 0.88672,3.23438c0.16406,1.19531 0.23828,2.40234 0.21094,3.60547c-0.03516,1.5625 -0.14453,3.11328 -0.57812,4.625c-0.30469,1.05859 -0.76953,2.03516 -1.54297,2.83984c-0.29297,0.30859 -0.63281,0.57422 -0.96875,0.87891c0.77734,1.23828 1.5625,2.49219 2.37891,3.78906c-0.98828,0.45703 -1.95312,0.90234 -2.96484,1.36719c-0.85156,-1.37891 -1.69531,-2.74609 -2.53125,-4.09375c-1.66406,0.22656 -3.28125,0.17578 -4.875,-0.24219c-1.83594,-0.48047 -3.14062,-1.57031 -3.88281,-3.30469c-0.41406,-0.96484 -0.65625,-1.96484 -0.80859,-2.99219c-0.16406,-1.09766 -0.23047,-2.20703 -0.21875,-3.31641c0.01953,-1.64453 0.11719,-3.28516 0.58984,-4.87891c0.17188,-0.58203 0.39063,-1.15625 0.64453,-1.70703c0.73047,-1.58203 1.98438,-2.57422 3.65625,-3.07031c0.73828,-0.21484 1.48828,-0.33984 2.25391,-0.375c0.31641,-0.01172 0.63281,-0.01953 0.94922,-0.01953zM31,16h3v4h4v3h-4c0,0 -0.01172,3.10938 0,5c0.00391,0.53125 0.01953,1.34766 0.0625,1.875c0.00781,0.14063 0.04688,0.27734 0.08203,0.41797c0.09375,0.33594 0.31641,0.55859 0.65234,0.62891c0.26563,0.05469 0.53906,0.08203 0.80859,0.07813c0.625,-0.01172 1.41406,-0.10937 2.03906,-0.13281c0.05859,-0.00391 0.11328,0.01172 0.21875,0.01953c0.06641,0.78516 0.10938,1.87891 0.13672,2.69531c-0.28516,0.05469 -0.55078,0.10547 -0.8125,0.15234c-0.93359,0.16797 -2.03906,0.31641 -2.98437,0.23438c-0.49609,-0.04687 -0.98047,-0.14844 -1.44141,-0.34375c-0.60547,-0.26172 -1.03516,-0.6875 -1.29297,-1.29687c-0.30859,-0.71484 -0.46875,-1.55859 -0.46875,-2.32812v-7h-2v-3h2zM18.99609,17.01953c-0.59375,0 -1.1875,0.07031 -1.77734,0.21484c-1.04687,0.26172 -1.83203,0.81641 -2.29687,1.70313c-0.11328,0.21094 -0.21875,0.42969 -0.30078,0.65234c-0.41406,1.07422 -0.57812,2.19141 -0.60937,3.32031c-0.02734,1.04297 -0.00391,2.08984 0.05078,3.13281c0.05469,0.92969 0.24609,1.83984 0.60547,2.72266c0.44531,1.08984 1.29297,1.77344 2.55078,2.05469c1.19922,0.26953 2.40234,0.26563 3.59766,-0.00781c1.17578,-0.27344 2.01172,-0.90234 2.43359,-1.93359c0.10938,-0.26172 0.20703,-0.53125 0.28516,-0.80469c0.37109,-1.28516 0.41016,-2.59766 0.46484,-4.28906c-0.05859,-0.60937 -0.11719,-1.59375 -0.24219,-2.57031c-0.10156,-0.80859 -0.33203,-1.59375 -0.73828,-2.32812c-0.47266,-0.85547 -1.23047,-1.40234 -2.25,-1.65234c-0.58984,-0.14453 -1.18359,-0.21484 -1.77344,-0.21484z"></path></g></g></svg>