<?xml version="1.0" standalone="no"?>
<!DOCTYPE svg PUBLIC "-//W3C//DTD SVG 20010904//EN"
 "http://www.w3.org/TR/2001/REC-SVG-20010904/DTD/svg10.dtd">
<svg version="1.0" xmlns="http://www.w3.org/2000/svg"
 width="225.000000pt" height="225.000000pt" viewBox="0 0 225.000000 225.000000"
 preserveAspectRatio="xMidYMid meet">

<g transform="translate(0.000000,225.000000) scale(0.100000,-0.100000)"
fill="#000000" stroke="none">
<path d="M900 2200 c-436 -93 -772 -436 -855 -873 -19 -102 -19 -302 0 -404
84 -445 433 -794 878 -878 102 -19 302 -19 404 0 445 84 794 433 878 878 20
103 19 302 -1 407 -83 441 -434 791 -877 875 -110 21 -318 19 -427 -5z m481
-54 c188 -48 343 -137 485 -280 142 -142 231 -294 281 -485 23 -84 26 -116 26
-256 0 -140 -3 -172 -26 -257 -49 -186 -134 -335 -270 -475 -139 -143 -302
-239 -495 -290 -85 -23 -117 -26 -257 -26 -140 0 -172 3 -257 26 -193 51 -356
147 -495 290 -136 140 -221 289 -270 475 -23 85 -26 117 -26 257 0 140 3 172
26 257 51 193 147 356 290 495 166 161 357 257 583 293 101 16 297 4 405 -24z"/>
<path d="M975 2094 c-163 -34 -260 -70 -362 -137 -142 -92 -247 -229 -302
-393 -68 -203 -62 -320 23 -433 36 -48 35 -102 0 -130 -36 -28 -66 -26 -105 6
-43 37 -60 82 -70 183 -6 66 -7 47 -5 -85 3 -151 6 -180 30 -260 86 -284 270
-471 542 -550 176 -51 282 -44 375 26 66 49 116 53 148 13 26 -32 26 -57 4
-95 -27 -45 -92 -71 -197 -80 -70 -5 -50 -7 84 -5 157 3 184 6 265 30 228 69
409 215 496 401 49 105 81 231 81 325 1 93 -10 130 -61 200 -41 56 -43 109 -5
139 36 28 66 26 105 -6 43 -37 61 -82 69 -183 7 -83 7 -82 9 48 3 304 -103
549 -307 711 -116 93 -301 161 -447 164 -93 1 -134 -11 -201 -58 -62 -45 -113
-48 -143 -9 -28 36 -26 66 6 105 37 43 82 61 183 69 79 7 74 7 -55 7 -77 1
-149 -1 -160 -3z m62 -400 c23 -23 25 -31 21 -87 -2 -38 -13 -81 -27 -110 -30
-61 -120 -160 -178 -193 -46 -28 -50 -33 -31 -52 42 -42 141 19 168 102 16 50
76 116 104 116 65 0 59 -67 -14 -160 -25 -31 -50 -110 -35 -110 8 0 178 106
205 128 20 16 24 29 25 84 3 123 65 247 145 290 48 25 120 24 149 -3 49 -46
52 -93 10 -178 -22 -43 -52 -81 -105 -128 -41 -37 -74 -72 -74 -77 0 -5 7 -17
15 -26 13 -14 23 -15 63 -7 41 9 55 7 88 -9 30 -14 39 -25 39 -44 0 -35 -37
-51 -117 -49 -55 2 -74 -2 -112 -25 -85 -50 -127 -132 -128 -251 -2 -154 92
-263 218 -253 102 9 171 96 162 205 -8 92 -69 143 -134 112 -38 -19 -45 -76
-15 -115 46 -58 12 -107 -54 -80 -94 40 -101 193 -11 261 110 83 264 33 310
-100 48 -144 -13 -288 -154 -360 -51 -26 -165 -32 -228 -11 -66 22 -144 92
-177 159 -86 177 -25 388 144 498 18 11 22 19 15 32 -8 14 -19 10 -84 -34 -41
-27 -103 -66 -137 -85 -58 -33 -62 -38 -67 -77 -26 -212 -42 -274 -96 -358
-67 -104 -154 -154 -256 -147 -127 8 -196 111 -159 236 34 112 125 199 317
302 80 43 104 60 106 78 3 23 3 23 -27 8 -16 -9 -53 -16 -80 -16 -42 0 -56 5
-86 31 -19 17 -38 42 -41 54 -4 17 -15 25 -42 30 -46 8 -96 59 -112 112 -24
80 14 188 64 181 20 -3 21 -8 18 -78 -3 -65 0 -80 18 -103 12 -15 25 -27 28
-27 4 0 13 27 19 60 23 120 101 247 176 284 17 8 54 16 80 16 38 0 53 -5 74
-26z"/>
<path d="M895 1597 c-40 -42 -78 -120 -92 -189 -8 -40 7 -35 64 23 61 61 106
139 101 176 -5 42 -26 39 -73 -10z"/>
<path d="M1470 1627 c-31 -15 -90 -128 -90 -171 l0 -30 50 49 c64 63 99 130
79 151 -11 11 -19 11 -39 1z"/>
<path d="M856 997 c-79 -47 -175 -132 -206 -181 -11 -19 -23 -54 -26 -79 -5
-37 -3 -48 15 -66 38 -38 120 -21 173 35 15 16 38 52 52 80 26 52 70 215 64
239 -2 9 -24 1 -72 -28z"/>
<path d="M1298 2083 c7 -3 16 -2 19 1 4 3 -2 6 -13 5 -11 0 -14 -3 -6 -6z"/>
<path d="M162 1305 c0 -16 2 -22 5 -12 2 9 2 23 0 30 -3 6 -5 -1 -5 -18z"/>
<path d="M2082 940 c0 -14 2 -19 5 -12 2 6 2 18 0 25 -3 6 -5 1 -5 -13z"/>
<path d="M2071 884 c0 -11 3 -14 6 -6 3 7 2 16 -1 19 -3 4 -6 -2 -5 -13z"/>
<path d="M878 173 c7 -3 16 -2 19 1 4 3 -2 6 -13 5 -11 0 -14 -3 -6 -6z"/>
<path d="M923 163 c9 -2 23 -2 30 0 6 3 -1 5 -18 5 -16 0 -22 -2 -12 -5z"/>
</g>
</svg>
