<?xml version="1.0" standalone="yes"?>
<svg xmlns="http://www.w3.org/2000/svg" width="297" height="170">
<path style="fill:#f5f6f6; stroke:none;" d="M0 0L0 170L297 170L297 0L0 0z"/>
<path style="fill:#f0d91c; stroke:none;" d="M103 18L104 19L103 18M211 18L212 19L211 18M214 18L215 19L214 18z"/>
<path style="fill:#2e5860; stroke:none;" d="M82 19L83 20L82 19z"/>
<path style="fill:#075697; stroke:none;" d="M82 20L82.0787 60L83 151C101.333 151 119.667 151.058 138 150.999C147.342 150.969 156.816 149.448 160 139C155.152 138.748 151.264 136.995 147 134.738C109.674 114.98 138.493 56.3257 176 73.7068C181.381 76.2003 185.777 79.2935 189.481 84.0008C193.813 89.5049 196.679 95.9906 197 103C202.699 99.9148 211.121 92.199 213.397 86C215.575 80.0665 214 71.269 214 65L214 19L124 19L82 20z"/>
<path style="fill:#2e5860; stroke:none;" d="M87 19L88 20L87 19M208 19L209 20L208 19M214 19L214 64L213.397 85L197 103L197 97L196 97L196 106C201.633 102.032 211.753 94.3168 214.397 87.8302C216.401 82.9112 215 75.2483 215 70C215 55.7 219.506 32.1208 214 19M82 22L82 33L83 33L82 22M97 30C100.048 54.1214 98 79.6637 98 104C98 110.912 94.3958 126.624 103 128L103 127L99 127L99 30L173 30L173 67L169 67L169 68L175 67C173.028 58.7181 173.904 49.4798 174.004 41C174.038 38.1311 175.573 33.0822 173.782 30.6034C171.151 26.9633 159.042 29 155 29C136.692 29 114.821 25.7572 97 30z"/>
<path style="fill:#f5f6f6; stroke:none;" d="M99 30L100 31L99 30z"/>
<path style="fill:#f0d91c; stroke:none;" d="M99 127L130 126L124 93L128 89L124 88L124 82L129 82L129 86L130 86L144 72L144 71L129 71L129 38L165 38L165 66L173 67L173 30L120 30C115.296 30 104.437 27.9899 100.603 31.0278C96.4358 34.3302 99.1095 50.8605 99.142 56.0039C99.2905 79.5357 100.116 103.487 99 127z"/>
<path style="fill:#f5f6f6; stroke:none;" d="M172 35L173 36L172 35z"/>
<path style="fill:#2e5860; stroke:none;" d="M129 38L129 71L145 72C141.59 68.0973 135.181 72.1492 131.734 68.3966C126.936 63.1733 130 45.7497 130 39L164 39L164 66L165 66L165 38L129 38z"/>
<path style="fill:#f5f6f6; stroke:none;" d="M99.3333 39.6667L99.6667 40.3333L99.3333 39.6667z"/>
<path style="fill:#2e5860; stroke:none;" d="M82 40L82 49L83 49L82 40M119 47L118 47C106.565 60.673 110.407 31.0021 118 46C119.361 39.3259 108.911 38.5076 107.681 45.0432C106.233 52.7425 116.905 53.8997 119 47z"/>
<path style="fill:#075697; stroke:none;" d="M111.279 42.0471C105.925 45.176 110.205 53.3668 115.758 49.9676C120.66 46.9663 116.309 39.1069 111.279 42.0471z"/>
<path style="fill:#f5f6f6; stroke:none;" d="M99 49L100 50L99 49z"/>
<path style="fill:#2e5860; stroke:none;" d="M82 51L82 56L83 56L82 51z"/>
<path style="fill:#f5f6f6; stroke:none;" d="M99.3333 56.6667L99.6667 57.3333L99.3333 56.6667z"/>
<path style="fill:#2e5860; stroke:none;" d="M107 64L108 64C113.318 49.2153 123.316 73.0609 108 65C111.049 70.2184 119.861 69.2007 118.623 62.0185C117.163 53.5437 108.212 58.0616 107 64z"/>
<path style="fill:#075697; stroke:none;" d="M111.228 58.7616C105.91 60.9887 109.555 69.098 114.772 67.1991C120.332 65.1758 116.972 56.3559 111.228 58.7616z"/>
<path style="fill:#2e5860; stroke:none;" d="M82 64L82 80L83 80L82 64M165 66L165 67L168 67L165 66z"/>
<path style="fill:#f5f6f6; stroke:none;" d="M99 68L99 71L100 71L99 68z"/>
<path style="fill:#2e5860; stroke:none;" d="M150 73L150 74C159.331 71.8671 166.669 71.8671 176 74C169.475 68.8113 157.374 70.3124 150 73M143 72L140 74L140 75L143 72z"/>
<path style="fill:#f0d91c; stroke:none;" d="M149 76C125.277 76.563 126.948 115.57 138.301 127.91C145.345 135.566 156.641 139.773 167 138.395C171.222 137.834 176.892 134.441 180.985 135.248C189.215 136.87 191.556 152.071 200.955 143.981C202.374 142.76 203.677 141.319 205 140C201.62 135.202 194.026 130.658 192.418 125C191.479 121.694 194.338 118.078 195.211 115C196.639 109.968 196.541 103.162 195.79 98C193.482 82.1322 177.996 72 163 72C158.117 72 152.17 71.7802 149 76z"/>
<path style="fill:#2e5860; stroke:none;" d="M148 74L149 75L148 74M177 74L178 75L177 74M139 75L140 76L139 75M146 75L147 76L146 75z"/>
<path style="fill:#f5f6f6; stroke:none;" d="M148 75L149 76L148 75z"/>
<path style="fill:#2e5860; stroke:none;" d="M179 75L182 77L179 75M138 76L139 77L138 76M144 76L145 77L144 76M136 77L136 79L138 77L136 77M142.667 77.3333L143.333 77.6667L142.667 77.3333M182 77L185 79L182 77M141 78L142 79L141 78M135 79L136 80L135 79M140 79L141 80L140 79M185 79L186 80L185 79M134 80L135 81L134 80M139 80L140 81L139 80M155 81L155 82L171 82L155 81M186 80L187 81L186 80M133 81L130 86L133 81M138 81L139 82L138 81z"/>
<path style="fill:#075697; stroke:none;" d="M161.999 81.429C155.231 82.2306 149.211 83.7253 144.554 89.1844C130.579 105.567 144.993 131.398 166 128.815C195.285 125.214 191.782 77.9018 161.999 81.429z"/>
<path style="fill:#2e5860; stroke:none;" d="M187 81L188 82L187 81M107 82L107 88L113 88C112.66 83.6353 111.365 82.3401 107 82M116 82L117 88L116 82z"/>
<path style="fill:#075697; stroke:none;" d="M117 82L117 88L120 87L120 83L117 82z"/>
<path style="fill:#2e5860; stroke:none;" d="M118 82L118 83L118 87L118 88C121.403 87.2708 120.987 85.1942 121 82L118 82M124.667 82.3333L125.333 82.6667L124.667 82.3333z"/>
<path style="fill:#075697; stroke:none;" d="M124 83L124 87L128 87L127 82L124 83z"/>
<path style="fill:#2e5860; stroke:none;" d="M127 82L128 87L124 87L124 88L129 90L127 82M137 82L138 83L137 82M152.667 82.3333L153.333 82.6667L152.667 82.3333M172 82L173 83L172 82M188 82L190 85L188 82z"/>
<path style="fill:#075697; stroke:none;" d="M108 83L108 87L112 87L112 83L108 83z"/>
<path style="fill:#2e5860; stroke:none;" d="M136.333 83.6667L136.667 84.3333L136.333 83.6667M151 83L152 84L151 83M173.667 83.3333L174.333 83.6667L173.667 83.3333M124.333 84.6667L124.667 85.3333L124.333 84.6667z"/>
<path style="fill:#f5f6f6; stroke:none;" d="M130 84L131 85L130 84z"/>
<path style="fill:#2e5860; stroke:none;" d="M149.667 84.3333L150.333 84.6667L149.667 84.3333M176 84L177 85L176 84M135 85L136 86L135 85M148 85L149 86L148 85M177 85L178 86L177 85M190 85L191 86L190 85z"/>
<path style="fill:#f5f6f6; stroke:none;" d="M113 86L114 87L113 86z"/>
<path style="fill:#2e5860; stroke:none;" d="M134 86L133 89L134 86M146.667 86.3333L147.333 86.6667L146.667 86.3333M158 87L160 92L161 92L160 87L168 88C165.424 85.053 161.51 86.1647 158 87M178 86L180 88L180 86L178 86M191.333 86.6667L191.667 87.3333L191.333 86.6667M145 87L146 88L145 87z"/>
<path style="fill:#f0d91c; stroke:none;" d="M160 87L160 88L166 88L160 87z"/>
<path style="fill:#2e5860; stroke:none;" d="M82 88L82 95L83 95L82 88z"/>
<path style="fill:#f5f6f6; stroke:none;" d="M127 88L128 89L127 88z"/>
<path style="fill:#2e5860; stroke:none;" d="M144 88L145 89L144 88M147 96L148 96L156 89C151.557 88.4081 148.738 92.3069 147 96z"/>
<path style="fill:#f0d91c; stroke:none;" d="M171 90C170.88 100.114 165.624 95.1889 160.897 100.603C158.868 102.928 159.903 107.198 160 110L149 110L149 99L160 99L160 88C138.875 90.1778 142.189 122.353 163.17 122.89C179.811 123.315 187.019 94.5372 171 90z"/>
<path style="fill:#2e5860; stroke:none;" d="M160 97L152 99L152 100L159 103L160 103L160 99C168.697 98.999 170.993 98.0159 171 89L174 90C168.738 87.4294 170.756 93.8684 168.358 96.3958C166.191 98.6799 162.614 97.6132 160 97M181 88L182 89L181 88M192 88L194 91L192 88z"/>
<path style="fill:#f5f6f6; stroke:none;" d="M171 89L172 90L171 89z"/>
<path style="fill:#2e5860; stroke:none;" d="M182.333 89.6667L182.667 90.3333L182.333 89.6667z"/>
<path style="fill:#d60e1d; stroke:none;" d="M214 89C203.874 96.7154 198.764 103.425 194.895 115C193.869 118.07 191.086 121.621 191.816 125C192.986 130.411 200.718 135.984 205 139L205 140C202.55 141.722 199.156 145.951 196 145.944C190.161 145.933 187.314 136.682 181.961 134.963C172.155 131.815 157.091 143.114 153 151L215 151L215 109L214 89z"/>
<path style="fill:#2e5860; stroke:none;" d="M132 90L133 91L132 90M143 90L144 91L143 90M174 90L175 91L174 90M107 91L107 96L113 96L111 91L112 94L108 95L109 91L107 91z"/>
<path style="fill:#075697; stroke:none;" d="M109 91L108 95L112 94L112 92L111 91L109 91z"/>
<path style="fill:#2e5860; stroke:none;" d="M115 91L115 96L121 96C120.936 93.0066 121.054 91.6544 118 91L120 94L116 95L117 91L115 91z"/>
<path style="fill:#075697; stroke:none;" d="M117 91L116 95L120 94L117 91z"/>
<path style="fill:#2e5860; stroke:none;" d="M127.333 91.6667L127.667 92.3333L127.333 91.6667M131.333 91.6667L131.667 92.3333L131.333 91.6667M142 91L143 92L142 91M175 91L176 92L175 91M183 91L184 92L183 91M176 92L177 93L176 92M194.333 92.6667L194.667 93.3333L194.333 92.6667M124 96L125 96L127 94C124.86 92.8822 124.473 93.7492 124 96M130 93L130 96L131 96L130 93M141 93L140 96L141 93M177 93L178 94L177 93M184 93L185 94L184 93M178.333 94.6667L178.667 95.3333L178.333 94.6667M185.333 94.6667L185.667 95.3333L185.333 94.6667M195.333 94.6667L195.667 95.3333L195.333 94.6667M82 96L82 104L83 104L82 96M125 96L125 100L126 100L125 96M179 96L179 114L180 114L179 96M129 97L129 113L130 113L129 97M139 97L139 101L140 101L139 97M147 97L146 99L148 99L147 97M186 97L187 109L188 109L186 97M107 99L109 104L109 99L107 99z"/>
<path style="fill:#075697; stroke:none;" d="M109 99L109 104L111 104L112 100L109 99z"/>
<path style="fill:#2e5860; stroke:none;" d="M110 99L110 100L111 104L113 99L110 99M115 99L115 104L121 104L121 99L115 99M145.333 99.6667L145.667 100.333L145.333 99.6667M149 99L149 110L160 110L160 104L159 104L159 109L150 109L149 99z"/>
<path style="fill:#075697; stroke:none;" d="M150 99L150 109L159 109L159 100L150 99z"/>
<path style="fill:#f5f6f6; stroke:none;" d="M160 99L161 100L160 99z"/>
<path style="fill:#075697; stroke:none;" d="M116 100L116 103L120 103L120 100L116 100z"/>
<path style="fill:#2e5860; stroke:none;" d="M124 100L124 103L125 103L124 100M138 101L138 109L139 109L138 101M144 102L144 109L145 109L144 102z"/>
<path style="fill:#f5f6f6; stroke:none;" d="M99 103L100 104L99 103M145 103L145 107L146 107L145 103z"/>
<path style="fill:#2e5860; stroke:none;" d="M124 104L124 113L125 113L124 104M107 107C107.789 117.121 117.121 107.789 107 107M121 113L121 107C114.466 107.509 114.466 112.491 121 113z"/>
<path style="fill:#075697; stroke:none;" d="M108 108L109 112L111 112L112 108L108 108M116 109L116 111L117 112L119 112L120 108L116 109z"/>
<path style="fill:#2e5860; stroke:none;" d="M139 109L139 113L140 113L139 109M145.333 109.667L145.667 110.333L145.333 109.667M186 109L186 113L187 113L186 109M82 112L82 128L83 128L82 112M146 112L147 116L148 116L146 112M125.333 113.667L125.667 114.333L125.333 113.667M130 113L130 116L131 116L130 113M140.333 114.667L140.667 115.333L140.333 114.667M178.333 114.667L178.667 115.333L178.333 114.667M185.333 114.667L185.667 115.333L185.333 114.667M126 115L126 118L127 118L126 115M131.333 116.667L131.667 117.333L131.333 116.667M141 116L142 117L141 116M148 116L149 117L148 116M177 116L178 117L177 116M184 116L185 117L184 116M142 117L144 120L142 117M149 117L150 118L149 117M176 117L177 118L176 117M183 117L182 120L183 117M127 118L127 121L128 121L127 118M150 118L151 119L150 118M175 118L176 119L175 118M132.333 119.667L132.667 120.333L132.333 119.667M151 119L152 120L151 119M174 119L175 120L174 119M144 120L148 124L144 120M152.667 120.333L153.333 120.667L152.667 120.333M170 121L170 122L174 121L170 121M181 120L178 124L181 120M133 121L134 122L133 121M154.667 121.333L155.333 121.667L154.667 121.333z"/>
<path style="fill:#f5f6f6; stroke:none;" d="M99.3333 122.667L99.6667 123.333L99.3333 122.667z"/>
<path style="fill:#2e5860; stroke:none;" d="M128 122L129 123L128 122M156 122L156 123L159 123L156 122z"/>
<path style="fill:#f5f6f6; stroke:none;" d="M160 122L161 123L160 122z"/>
<path style="fill:#2e5860; stroke:none;" d="M168.667 122.333L169.333 122.667L168.667 122.333M129.333 123.667L129.667 124.333L129.333 123.667M134 123L135 124L134 123M159 123L159 124L168 124L159 123M135 124L137 127L135 124M148 124L149 125L148 124M177 124L178 125L177 124M130 125L127 126C128.452 127.904 130.445 127.567 130 125M149 125L150 126L149 125M176 125L177 126L176 125M104 126L105 127L104 126M112 126L113 127L112 126M121 126L122 127L121 126M151 126L152 127L151 126M173.667 126.333L174.333 126.667L173.667 126.333M113 127L113 128L116 128L113 127M117 127L117 128L120 128L117 127M125 127L126 128L125 127M137 127L138 128L137 127M152.667 127.333L153.333 127.667L152.667 127.333M171.667 127.333L172.333 127.667L171.667 127.333M138 128L139 129L138 128M155 128L155 129L158 129L155 128M168 128L168 129L171 129L168 128M139 129L140 130L139 129M158 129L158 130L168 130L158 129M140 130L141 131L140 130M141 131L144 133L141 131M144 133L145 134L144 133M146 134L147 135L146 134M148 135L149 136L148 135M82 136L82 151L83 151L82 136M150.667 136.333L151.333 136.667L150.667 136.333M152.667 137.333L153.333 137.667L152.667 137.333M154 138L154 139L160 142L163 139L154 138M159 142L160 143L159 142M150 150L150 151L159 143L150 150M145 150L146 151L145 150z"/>
<path style="fill:#f0d91c; stroke:none;" d="M144.667 151.333L145.333 151.667L144.667 151.333M150 151L150 152L215 152L194 151L150 151z"/>
</svg>
