<?xml version="1.0" standalone="no"?>
<!DOCTYPE svg PUBLIC "-//W3C//DTD SVG 20010904//EN"
 "http://www.w3.org/TR/2001/REC-SVG-20010904/DTD/svg10.dtd">
<svg version="1.0" xmlns="http://www.w3.org/2000/svg"
 width="398.000000pt" height="127.000000pt" viewBox="0 0 398.000000 127.000000"
 preserveAspectRatio="xMidYMid meet">

<g transform="translate(0.000000,127.000000) scale(0.100000,-0.100000)"
fill="#000000" stroke="none">
<path d="M502 1065 c-7 -14 -12 -36 -12 -48 1 -21 1 -21 15 -3 8 11 16 18 19
15 2 -2 23 -69 46 -149 24 -80 45 -151 48 -159 4 -11 1 -11 -16 -2 -18 10 -22
9 -22 -3 0 -17 55 -50 69 -42 13 8 34 66 27 73 -3 4 -12 -1 -19 -11 -12 -16
-19 2 -60 141 -26 87 -47 162 -47 166 0 4 9 3 20 -3 31 -17 24 6 -9 29 -38 27
-45 26 -59 -4z"/>
<path d="M908 923 c-8 -10 -5 -13 13 -13 l22 0 -23 -25 c-18 -19 -34 -25 -66
-25 -45 0 -46 0 -59 -70 -7 -33 -49 -90 -67 -90 -4 0 -8 9 -8 21 0 11 -4 17
-10 14 -5 -3 -10 -24 -10 -46 0 -37 2 -39 30 -39 37 0 39 -13 4 -29 -17 -7
-24 -17 -20 -26 20 -51 21 -48 -13 -31 l-31 17 -17 -36 c-13 -27 -14 -38 -5
-47 9 -9 12 -8 12 5 0 45 22 5 60 -110 24 -71 45 -134 48 -142 4 -10 -1 -11
-18 -6 -33 10 -21 -15 18 -38 l32 -19 17 36 c13 28 14 39 5 48 -9 9 -12 8 -12
-5 0 -36 -19 -14 -39 45 -29 87 -29 88 28 88 l49 0 12 68 c7 37 14 70 16 73 2
4 30 -1 61 -10 56 -17 57 -17 76 -74 l19 -57 51 0 52 0 120 164 c66 91 123
165 126 165 5 1 -35 -216 -56 -306 -5 -22 -3 -23 60 -23 36 0 65 1 65 3 0 5
80 412 85 435 5 22 4 22 -100 22 l-105 0 -101 -135 c-56 -74 -104 -135 -108
-135 -3 0 -26 59 -51 131 -31 92 -50 133 -62 137 -13 3 -18 14 -18 37 0 30 -3
33 -35 37 -22 2 -40 -1 -47 -9z m57 -53 c-3 -5 -11 -10 -16 -10 -6 0 -7 5 -4
10 3 6 11 10 16 10 6 0 7 -4 4 -10z m-16 -230 c16 -47 28 -86 26 -88 -4 -5
-69 8 -82 16 -8 5 -7 30 4 85 9 42 17 76 19 74 2 -1 16 -41 33 -87z m-175 45
c-6 -16 -24 -21 -24 -7 0 11 11 22 21 22 5 0 6 -7 3 -15z m-46 -164 c9 -5 11
-17 6 -36 -7 -29 -15 -23 -28 23 -8 23 0 28 22 13z"/>
<path d="M2437 843 c-3 -10 -10 -43 -17 -73 -24 -115 -21 -108 -31 -83 -11 30
-77 46 -161 40 -109 -7 -138 -38 -164 -175 -16 -85 -12 -127 16 -142 58 -31
214 -18 256 21 l21 20 -4 -25 c-5 -25 -4 -26 49 -26 l53 0 46 230 46 230 -53
0 c-42 0 -54 -4 -57 -17z m-76 -213 c22 -12 26 -64 7 -105 -20 -45 -157 -61
-195 -22 -21 21 -9 82 22 113 20 20 34 24 85 24 34 0 70 -5 81 -10z"/>
<path d="M2635 848 c-6 -20 -85 -422 -85 -435 0 -9 18 -13 55 -13 53 0 55 1
55 26 l0 27 24 -26 c39 -42 175 -48 248 -11 34 17 66 100 74 192 9 93 -7 112
-98 119 -73 6 -153 -9 -180 -34 -10 -9 -18 -14 -18 -12 0 2 7 36 15 74 22 107
23 105 -35 105 -32 0 -52 -5 -55 -12z m246 -218 c13 -7 19 -21 19 -45 0 -78
-46 -112 -142 -103 -65 7 -82 24 -72 74 11 62 42 84 114 84 34 0 70 -5 81 -10z"/>
<path d="M208 774 l-27 -14 20 -35 c23 -38 59 -52 39 -15 -13 24 -7 24 51 6
24 -8 91 -29 149 -47 90 -27 102 -33 87 -44 -16 -11 -16 -13 -2 -19 15 -5 75
18 75 30 0 17 -33 64 -46 64 -12 0 -13 -4 -3 -22 9 -17 9 -20 -2 -16 -8 3 -81
25 -162 49 -119 35 -145 46 -133 55 36 26 -1 33 -46 8z"/>
<path d="M1697 721 c-21 -4 -50 -17 -65 -28 -54 -40 -94 -229 -57 -267 23 -22
78 -31 191 -30 129 1 169 18 202 86 25 49 39 148 29 190 -4 14 -19 30 -34 38
-33 15 -211 23 -266 11z m174 -91 c23 -13 25 -56 5 -104 -15 -35 -41 -46 -117
-46 -56 0 -89 15 -89 42 0 47 21 99 43 108 31 12 134 12 158 0z"/>
<path d="M3673 721 c-18 -5 -39 -14 -47 -20 -23 -19 -38 -66 -34 -107 3 -35 7
-40 38 -51 19 -7 76 -12 126 -12 101 -1 125 -12 100 -47 -20 -27 -171 -28
-191 -1 -10 14 -24 17 -62 15 -41 -3 -48 -6 -51 -25 -2 -14 6 -32 21 -47 20
-20 38 -25 109 -31 89 -7 174 -1 220 17 33 12 58 63 58 116 0 58 -15 66 -146
72 -116 6 -140 13 -124 40 12 20 171 22 178 3 4 -15 98 -18 107 -3 10 16 -7
60 -28 72 -26 13 -230 20 -274 9z"/>
<path d="M3105 708 c-2 -7 -13 -61 -24 -120 -23 -120 -18 -157 26 -177 74 -34
175 -20 226 30 l29 30 -6 -36 -7 -36 53 3 52 3 28 140 c36 187 38 175 -22 175
-32 0 -52 -5 -55 -12 -2 -7 -11 -49 -20 -92 -22 -104 -43 -126 -119 -126 -36
0 -60 5 -70 16 -19 19 -19 15 -1 111 21 108 22 103 -35 103 -32 0 -52 -5 -55
-12z"/>
<path d="M540 575 c-10 -13 -9 -15 11 -15 20 0 6 -18 -81 -105 -58 -58 -108
-105 -112 -105 -5 0 -8 10 -8 21 0 18 -2 19 -15 9 -8 -7 -15 -28 -15 -46 0
-33 2 -34 38 -34 47 0 82 19 37 20 -28 1 -24 7 85 110 93 88 116 105 118 89 6
-33 22 -10 22 32 0 38 -1 39 -34 39 -18 0 -39 -7 -46 -15z"/>
</g>
</svg>
