<?xml version="1.0" standalone="no"?>
<!DOCTYPE svg PUBLIC "-//W3C//DTD SVG 20010904//EN"
 "http://www.w3.org/TR/2001/REC-SVG-20010904/DTD/svg10.dtd">
<svg version="1.0" xmlns="http://www.w3.org/2000/svg"
 width="298.000000pt" height="169.000000pt" viewBox="0 0 298.000000 169.000000"
 preserveAspectRatio="xMidYMid meet">

<g transform="translate(0.000000,169.000000) scale(0.100000,-0.100000)"
fill="#000000" stroke="none">
<path d="M334 1342 c-28 -10 -63 -26 -78 -35 -61 -41 -86 -159 -46 -224 22
-37 95 -93 120 -93 9 0 20 -4 26 -8 5 -5 38 -19 74 -32 92 -32 120 -54 120
-93 0 -44 -11 -57 -56 -67 -81 -19 -149 9 -160 65 l-6 35 -80 0 -80 0 7 -42
c15 -88 58 -133 160 -168 121 -41 257 -18 333 57 41 41 42 45 42 105 0 115
-57 172 -230 228 -75 24 -127 57 -134 83 -3 11 7 31 23 50 25 27 34 31 80 30
59 -1 101 -30 101 -70 0 -22 3 -23 80 -23 l80 0 0 30 c0 71 -63 144 -149 175
-58 20 -164 19 -227 -3z"/>
<path d="M780 1010 l0 -340 80 0 80 0 2 213 3 212 23 -40 c12 -22 26 -47 31
-55 5 -8 30 -51 56 -95 25 -44 50 -87 55 -95 6 -8 14 -25 20 -37 5 -12 21 -40
35 -63 l25 -40 85 0 85 0 0 340 0 340 -85 0 -85 0 0 -217 0 -217 -123 214
-123 215 -82 3 -82 3 0 -341z"/>
<path d="M1450 1010 l0 -340 81 0 81 0 -6 228 c-3 125 -4 223 -1 217 3 -5 38
-107 78 -225 l73 -215 58 0 58 0 44 130 c25 72 59 172 75 223 17 50 32 92 34
92 2 0 1 -101 -2 -225 l-6 -225 86 0 87 0 0 340 0 341 -111 -3 -111 -3 -18
-55 c-10 -30 -44 -136 -76 -234 -66 -207 -55 -207 -119 -1 -21 66 -50 158 -65
205 l-28 85 -106 3 -106 3 0 -341z"/>
<path d="M2270 1010 l0 -340 83 0 82 0 -3 115 -3 115 89 0 c57 0 109 6 142 17
201 65 210 339 14 413 -47 17 -78 20 -229 20 l-175 0 0 -340z m343 200 c65
-51 52 -159 -22 -180 -20 -5 -64 -10 -98 -10 l-63 0 0 105 0 105 79 0 c63 0
83 -4 104 -20z"/>
<path d="M483 445 c0 -38 2 -53 4 -32 2 20 2 52 0 70 -2 17 -4 1 -4 -38z"/>
<path d="M1173 445 c0 -38 2 -60 4 -47 5 27 14 28 31 2 7 -11 17 -20 24 -20 6
0 2 10 -10 23 -20 22 -21 24 -5 40 10 9 12 17 6 17 -6 0 -13 -7 -17 -15 -11
-28 -25 -15 -29 28 -2 25 -4 13 -4 -28z"/>
<path d="M2883 445 c0 -38 2 -53 4 -32 2 20 2 52 0 70 -2 17 -4 1 -4 -38z"/>
<path d="M102 487 c-14 -17 -4 -30 36 -51 33 -17 42 -40 20 -49 -8 -4 -9 -6
-2 -6 17 -1 34 23 26 35 -4 6 -22 19 -39 28 -34 17 -43 40 -20 49 7 4 8 6 1 6
-6 1 -16 -5 -22 -12z"/>
<path d="M160 485 c7 -9 15 -13 17 -11 7 7 -7 26 -19 26 -6 0 -6 -6 2 -15z"/>
<path d="M642 438 l1 -63 6 49 c7 54 13 52 45 -11 25 -50 36 -40 34 30 l-2 62
-3 -54 -4 -54 -35 51 c-19 29 -37 52 -39 52 -3 0 -4 -28 -3 -62z"/>
<path d="M1292 438 l1 -63 6 50 6 50 20 -47 c11 -27 23 -48 26 -48 3 0 15 19
25 42 l19 43 6 -45 c6 -43 6 -42 7 18 1 34 -2 62 -7 62 -5 0 -17 -23 -26 -51
-19 -55 -27 -54 -48 6 -22 63 -37 56 -35 -17z"/>
<path d="M2300 438 c0 -34 2 -59 5 -56 8 8 11 118 3 118 -5 0 -8 -28 -8 -62z"/>
<path d="M2371 482 c11 -17 10 -24 -2 -38 -12 -15 -12 -17 1 -12 19 6 20 60 2
66 -11 3 -11 0 -1 -16z"/>
<path d="M848 478 c-2 -7 -1 -33 3 -58 l6 -45 1 58 c2 55 -2 71 -10 45z"/>
<path d="M2210 441 c0 -63 17 -76 22 -16 4 50 1 65 -13 65 -5 0 -9 -22 -9 -49z"/>
<path d="M2563 435 c0 -33 2 -45 4 -27 2 18 2 45 0 60 -2 15 -4 0 -4 -33z"/>
<path d="M203 420 c0 -25 2 -35 4 -22 2 12 2 32 0 45 -2 12 -4 2 -4 -23z"/>
<path d="M240 420 c0 -22 2 -40 4 -40 2 0 6 18 8 40 2 22 0 40 -4 40 -5 0 -8
-18 -8 -40z"/>
<path d="M288 420 c2 -22 8 -40 12 -40 4 0 10 18 12 40 3 31 0 40 -12 40 -12
0 -15 -9 -12 -40z"/>
<path d="M348 420 c2 -22 6 -40 8 -40 2 0 4 18 4 40 0 22 -3 40 -8 40 -4 0 -6
-18 -4 -40z"/>
<path d="M380 400 c0 -33 4 -60 10 -60 6 0 10 8 11 18 0 9 1 36 2 60 1 28 -2
42 -10 42 -9 0 -13 -19 -13 -60z"/>
<path d="M440 445 c10 -12 10 -21 2 -40 -7 -14 -7 -25 -2 -25 13 0 22 37 15
60 -3 11 -11 20 -17 20 -6 0 -6 -6 2 -15z"/>
<path d="M514 446 c-9 -22 0 -59 14 -62 7 -1 8 0 2 3 -23 11 -9 33 21 33 23 0
30 4 27 17 -2 9 -9 18 -16 19 -7 1 -8 0 -2 -3 19 -9 10 -23 -16 -23 -19 0 -25
4 -20 15 3 8 3 15 0 15 -2 0 -7 -6 -10 -14z"/>
<path d="M755 440 c-8 -25 2 -60 18 -60 8 0 8 3 -1 12 -20 20 -14 28 24 28 29
0 35 3 30 16 -3 9 -6 18 -6 20 0 2 -4 4 -10 4 -5 0 -7 -7 -4 -15 5 -11 -1 -15
-21 -15 -23 0 -26 2 -15 15 8 9 8 15 2 15 -6 0 -14 -9 -17 -20z"/>
<path d="M897 420 c19 -48 28 -50 37 -7 l7 32 15 -34 c17 -39 29 -33 38 19 l6
35 -13 -28 c-14 -29 -27 -27 -27 5 0 28 -16 21 -31 -14 l-13 -32 -8 32 c-5 18
-13 32 -17 32 -5 0 -2 -18 6 -40z"/>
<path d="M1022 448 c-22 -22 -7 -68 21 -68 5 0 1 7 -7 16 -9 8 -16 19 -16 24
0 5 7 16 16 24 8 9 12 16 7 16 -5 0 -14 -5 -21 -12z"/>
<path d="M1077 436 c3 -14 0 -33 -7 -41 -9 -11 -9 -15 -1 -15 6 0 17 11 23 25
9 21 9 29 -4 41 -14 14 -15 13 -11 -10z"/>
<path d="M1111 418 c2 -35 3 -37 6 -13 3 17 9 36 15 43 8 9 6 12 -6 12 -12 0
-16 -9 -15 -42z"/>
<path d="M1486 446 c4 -10 -3 -16 -23 -18 -20 -2 -28 -9 -28 -22 0 -11 7 -21
15 -23 13 -4 13 -3 0 6 -13 10 -13 12 0 21 22 14 40 12 40 -4 0 -8 -6 -17 -12
-19 -7 -3 -3 -6 10 -6 15 -1 22 5 22 17 0 28 -12 62 -21 62 -5 0 -6 -6 -3 -14z"/>
<path d="M1530 420 c0 -22 2 -40 4 -40 2 0 6 18 8 40 2 22 0 40 -4 40 -5 0 -8
-18 -8 -40z"/>
<path d="M1576 448 c4 -6 11 -25 15 -42 7 -30 7 -30 8 -4 1 32 -8 58 -21 58
-5 0 -6 -5 -2 -12z"/>
<path d="M1620 449 c0 -5 5 -7 10 -4 6 3 10 8 10 11 0 2 -4 4 -10 4 -5 0 -10
-5 -10 -11z"/>
<path d="M1666 445 c4 -10 0 -15 -14 -15 -11 0 -25 -7 -32 -15 -12 -15 -6 -35
12 -35 7 0 7 4 -1 13 -13 16 -5 27 21 27 20 0 25 -26 6 -33 -7 -3 -3 -6 10 -6
15 -1 22 5 22 17 0 28 -12 62 -21 62 -5 0 -6 -7 -3 -15z"/>
<path d="M1705 440 c-7 -23 2 -60 16 -60 5 0 4 9 -3 20 -10 16 -10 24 0 40 7
11 8 20 3 20 -5 0 -13 -9 -16 -20z"/>
<path d="M1755 400 c0 -59 7 -75 19 -44 11 29 7 104 -6 104 -9 0 -13 -19 -13
-60z"/>
<path d="M1802 448 c-22 -22 -7 -69 23 -68 5 0 2 5 -7 11 -29 16 -21 29 18 29
29 0 35 3 30 16 -3 9 -6 18 -6 20 0 2 -5 4 -11 4 -8 0 -8 -5 1 -15 11 -13 8
-15 -15 -15 -20 0 -26 4 -21 15 7 18 4 19 -12 3z"/>
<path d="M1880 420 c0 -22 4 -40 9 -40 5 0 11 18 13 40 2 28 0 40 -9 40 -8 0
-13 -14 -13 -40z"/>
<path d="M1939 418 c5 -38 6 -39 9 -13 2 17 8 36 14 43 8 9 5 12 -9 12 -16 0
-18 -6 -14 -42z"/>
<path d="M2000 417 c4 -41 5 -41 8 -8 2 18 0 37 -5 42 -5 5 -6 -11 -3 -34z"/>
<path d="M2030 440 c-12 -22 2 -60 22 -60 9 0 9 3 0 12 -19 19 -14 28 18 28
30 0 42 21 20 35 -6 3 -7 -1 -4 -9 5 -12 -1 -16 -21 -16 -23 0 -26 2 -15 15 8
10 9 15 2 15 -6 0 -16 -9 -22 -20z"/>
<path d="M2110 420 c0 -22 5 -40 10 -40 6 0 10 15 10 34 0 19 6 37 13 39 6 3
2 6 -10 6 -20 1 -23 -4 -23 -39z"/>
<path d="M2170 421 c0 -23 5 -41 10 -41 6 0 10 15 10 34 0 19 -4 38 -10 41 -6
4 -10 -10 -10 -34z"/>
<path d="M2412 418 c1 -41 1 -41 5 -8 3 19 10 38 16 42 8 5 6 8 -5 8 -15 0
-18 -8 -16 -42z"/>
<path d="M2455 440 c-9 -27 3 -60 21 -60 13 0 13 2 0 16 -9 8 -16 19 -16 24 0
5 7 16 16 24 13 14 13 16 0 16 -8 0 -18 -9 -21 -20z"/>
<path d="M2515 420 c0 -21 3 -36 8 -33 4 2 7 17 7 33 0 16 -3 31 -7 33 -5 3
-8 -12 -8 -33z"/>
<path d="M2604 446 c-9 -23 0 -59 14 -64 11 -3 11 -1 0 17 -10 17 -10 25 0 41
7 13 8 20 2 20 -6 0 -13 -6 -16 -14z"/>
<path d="M2662 440 c10 -16 10 -24 0 -40 -7 -13 -8 -20 -2 -20 6 0 13 7 17 15
5 14 7 14 22 1 14 -13 16 -11 16 25 0 41 -8 51 -20 22 -6 -17 -7 -17 -16 0 -6
9 -14 17 -20 17 -5 0 -4 -9 3 -20z"/>
<path d="M2750 445 c7 -9 15 -13 17 -11 7 7 -7 26 -19 26 -6 0 -6 -6 2 -15z"/>
<path d="M2784 445 c-8 -20 4 -65 16 -65 6 0 5 9 -2 20 -10 16 -10 24 0 40 7
13 8 20 2 20 -6 0 -13 -7 -16 -15z"/>
<path d="M2842 441 c11 -17 11 -25 0 -42 -11 -18 -11 -20 0 -17 7 3 13 19 13
38 0 19 -6 35 -13 38 -11 3 -11 1 0 -17z"/>
<path d="M90 400 c0 -6 7 -13 15 -17 24 -9 27 1 5 15 -13 8 -20 8 -20 2z"/>
<path d="M2750 390 c-9 -6 -10 -10 -3 -10 6 0 15 5 18 10 8 12 4 12 -15 0z"/>
</g>
</svg>
