<?xml version="1.0" standalone="yes"?>
<svg xmlns="http://www.w3.org/2000/svg" width="324" height="180">
<path style="fill:#fefefe; stroke:none;" d="M0 0L0 134L324 134L324 0L0 0z"/>
<path style="fill:#ffbd88; stroke:none;" d="M27 3L27 4L30 4L27 3z"/>
<path style="fill:#ff6c02; stroke:none;" d="M30 3.43904C11.6505 6.32151 -0.864343 23.6425 2.80787 42C5.12286 53.5727 18.2323 70.3538 32 67.3997C53.4872 62.7892 50 42.6401 50 26C50 21.1659 51.8169 11.6204 48.9722 7.49923C45.6054 2.62175 35.1208 2.63464 30 3.43904z"/>
<path style="fill:#ffbd88; stroke:none;" d="M39 3L39 4L42 4L39 3M24 4L25 5L24 4M44 4L45 5L44 4M21 5L22 6L21 5M46.6667 5.33333L47.3333 5.66667L46.6667 5.33333M19 6L20 7L19 6M49 6L50 7L49 6M16 8L17 9L16 8z"/>
<path style="fill:#a5a5a5; stroke:none;" d="M53 9L54 10L53 9z"/>
<path style="fill:#ffbd88; stroke:none;" d="M13 10L14 11L13 10z"/>
<path style="fill:#454546; stroke:none;" d="M53 10L53 47C53 49.8617 51.7659 57.218 55.3179 58.5177C60.0836 60.2616 70.2782 49.6734 74 47L74 59L75 59L89.071 36L75 12L74 12L74 25L53 10z"/>
<path style="fill:#ffbd88; stroke:none;" d="M12 11L13 12L12 11z"/>
<path style="fill:#a5a5a5; stroke:none;" d="M56 11L57 12L56 11z"/>
<path style="fill:#ffbd88; stroke:none;" d="M74 11L75 12L74 11M11 12L12 13L11 12z"/>
<path style="fill:#a5a5a5; stroke:none;" d="M57 12L58 13L57 12z"/>
<path style="fill:#ffbd88; stroke:none;" d="M10 13L11 14L10 13z"/>
<path style="fill:#a5a5a5; stroke:none;" d="M75 13L76 14L75 13z"/>
<path style="fill:#ffbd88; stroke:none;" d="M9 14L10 15L9 14z"/>
<path style="fill:#a5a5a5; stroke:none;" d="M60 14L61 15L60 14z"/>
<path style="fill:#ffbd88; stroke:none;" d="M76 14L77 15L76 14z"/>
<path style="fill:#a5a5a5; stroke:none;" d="M61 15L62 16L61 15M77 16L78 17L77 16z"/>
<path style="fill:#ffbd88; stroke:none;" d="M7 17L8 18L7 17M64 17L65 18L64 17M78 17L79 18L78 17z"/>
<path style="fill:#a5a5a5; stroke:none;" d="M65 18L66 19L65 18M79 19L80 20L79 19z"/>
<path style="fill:#ffbd88; stroke:none;" d="M5 20L6 21L5 20M68 20L69 21L68 20M80 20L81 21L80 20z"/>
<path style="fill:#a5a5a5; stroke:none;" d="M69 21L70 22L69 21z"/>
<path style="fill:#ffbd88; stroke:none;" d="M4.33333 22.6667L4.66667 23.3333L4.33333 22.6667z"/>
<path style="fill:#a5a5a5; stroke:none;" d="M70 22L71 23L70 22M81 22L82 23L81 22z"/>
<path style="fill:#ffbd88; stroke:none;" d="M82 23L83 24L82 23z"/>
<path style="fill:#a5a5a5; stroke:none;" d="M73 24L74 25L73 24z"/>
<path style="fill:#ffbd88; stroke:none;" d="M3 25L4 26L3 25z"/>
<path style="fill:#a5a5a5; stroke:none;" d="M83 25L84 26L83 25z"/>
<path style="fill:#ffbd88; stroke:none;" d="M84 26L85 27L84 26z"/>
<path style="fill:#a5a5a5; stroke:none;" d="M85 28L86 29L85 28z"/>
<path style="fill:#ffbd88; stroke:none;" d="M2.33333 29.6667L2.66667 30.3333L2.33333 29.6667z"/>
<path style="fill:#a5a5a5; stroke:none;" d="M86 29L87 30L86 29M87 31L88 32L87 31M88 32L89 33L88 32M89 34L90 35L89 34M88 38L89 39L88 38z"/>
<path style="fill:#ffbd88; stroke:none;" d="M2 40L2 43L3 43L2 40z"/>
<path style="fill:#a5a5a5; stroke:none;" d="M86 41L87 42L86 41M84 44L85 45L84 44z"/>
<path style="fill:#ffbd88; stroke:none;" d="M3 45L4 46L3 45z"/>
<path style="fill:#a5a5a5; stroke:none;" d="M82 47L83 48L82 47z"/>
<path style="fill:#ffbd88; stroke:none;" d="M4 48L5 49L4 48z"/>
<path style="fill:#a5a5a5; stroke:none;" d="M71 48L72 49L71 48z"/>
<path style="fill:#ffbd88; stroke:none;" d="M70 49L71 50L70 49M5 50L6 51L5 50z"/>
<path style="fill:#a5a5a5; stroke:none;" d="M80 50L81 51L80 50M67 51L68 52L67 51z"/>
<path style="fill:#ffbd88; stroke:none;" d="M6 52L7 53L6 52z"/>
<path style="fill:#a5a5a5; stroke:none;" d="M66 52L67 53L66 52z"/>
<path style="fill:#ffbd88; stroke:none;" d="M79 52L80 53L79 52M7 53L8 54L7 53z"/>
<path style="fill:#a5a5a5; stroke:none;" d="M78 53L79 54L78 53M63 54L64 55L63 54z"/>
<path style="fill:#ffbd88; stroke:none;" d="M8 55L9 56L8 55z"/>
<path style="fill:#a5a5a5; stroke:none;" d="M62 55L63 56L62 55z"/>
<path style="fill:#ffbd88; stroke:none;" d="M77 55L78 56L77 55M9 56L10 57L9 56M49 56L50 57L49 56z"/>
<path style="fill:#a5a5a5; stroke:none;" d="M76 56L77 57L76 56z"/>
<path style="fill:#ffbd88; stroke:none;" d="M98 56L99 57L98 56z"/>
<path style="fill:#a5a5a5; stroke:none;" d="M99 56L99 57L104 57L99 56M124 56L124 57L129 57L124 56z"/>
<path style="fill:#ffbd88; stroke:none;" d="M129 56L130 57L129 56M232 56L233 57L232 56z"/>
<path style="fill:#a5a5a5; stroke:none;" d="M233 56L233 57L238 57L233 56z"/>
<path style="fill:#ffbd88; stroke:none;" d="M303 56L304 57L303 56z"/>
<path style="fill:#a5a5a5; stroke:none;" d="M304 56L304 57L308 57L304 56z"/>
<path style="fill:#ffbd88; stroke:none;" d="M10 57L11 58L10 57M48 57L49 58L48 57z"/>
<path style="fill:#a5a5a5; stroke:none;" d="M59 57L60 58L59 57M95 57L96 58L95 57z"/>
<path style="fill:#454546; stroke:none;" d="M111 82C107.658 75.5419 103.213 80.8258 98.0185 78.0486C79.5405 68.169 108.571 62.8358 111 60C108.07 58.3586 105.414 57.1949 102 57.0471C82.6997 56.2114 82.8664 85.9527 102 84.8904C105.272 84.7088 108.083 83.3611 111 82z"/>
<path style="fill:#a5a5a5; stroke:none;" d="M106 57L107 58L106 57M121 57L122 58L121 57z"/>
<path style="fill:#454546; stroke:none;" d="M122.001 57.6528C105.284 62.9149 113.8 89.5701 131 84.196C148.701 78.6653 139.408 52.1734 122.001 57.6528z"/>
<path style="fill:#a5a5a5; stroke:none;" d="M131 57L132 58L131 57z"/>
<path style="fill:#ffbd88; stroke:none;" d="M132 57L133 58L132 57z"/>
<path style="fill:#a5a5a5; stroke:none;" d="M144 57L144 85L145 85L144 57z"/>
<path style="fill:#454546; stroke:none;" d="M145 57L145 85L150 85L150 67C155.308 73.228 158.992 84.3152 168 85L168 57L163 57L163 74C157.673 67.8431 153.951 57.2968 145 57z"/>
<path style="fill:#a5a5a5; stroke:none;" d="M162 57L162 74L163 74L162 57z"/>
<path style="fill:#ffbd88; stroke:none;" d="M168 57L168 74L169 74L168 57z"/>
<path style="fill:#a5a5a5; stroke:none;" d="M171 57L171 63L179 63L179 62L172 62L171 57z"/>
<path style="fill:#454546; stroke:none;" d="M172 57L172 62C183.532 62.3755 180 76.5105 180 85L185 85C185 75.6096 181.428 62.1486 194 62L194 57L172 57M198 57L198 85L203 85L203 76L219 85L213 75C225.358 61.0927 209.95 57 198 57z"/>
<path style="fill:#a5a5a5; stroke:none;" d="M211 57L212 58L211 57z"/>
<path style="fill:#ffbd88; stroke:none;" d="M212 57L213 58L212 57z"/>
<path style="fill:#a5a5a5; stroke:none;" d="M229.667 57.3333L230.333 57.6667L229.667 57.3333z"/>
<path style="fill:#454546; stroke:none;" d="M231 57.5725C213.797 62.5087 221.871 88.8728 238.999 84.4414C256.556 79.899 248.887 52.4402 231 57.5725z"/>
<path style="fill:#a5a5a5; stroke:none;" d="M240 57L241 58L240 57z"/>
<path style="fill:#454546; stroke:none;" d="M253 57L253 85L270 85L270 80C254.764 79.9983 258 69.3466 258 57L253 57z"/>
<path style="fill:#a5a5a5; stroke:none;" d="M258 57L258 79L259 79L258 57z"/>
<path style="fill:#ffbd88; stroke:none;" d="M273 57L273 84L274 84L273 57z"/>
<path style="fill:#454546; stroke:none;" d="M274 57L274 85L291 85L291 80C279.155 79.9987 277.037 73.01 290 73L290 68L279 68C280.069 61.2984 285.337 62.0006 291 62L291 57L274 57z"/>
<path style="fill:#a5a5a5; stroke:none;" d="M291 57L291 62L280 62L280 63C284.512 63 293.701 64.1093 291 57M300 57L301 58L300 57z"/>
<path style="fill:#454546; stroke:none;" d="M310 78L297 78L295 83C300.907 84.2185 322.386 86.3604 314.817 73.213C313.085 70.2037 302.881 67.8156 303.631 64.2137C304.385 60.5947 311.043 63.381 313 64L314 58C307.752 56.8401 289.489 57.5986 297.603 68.8673C300.68 73.1391 306.615 73.8239 310 78z"/>
<path style="fill:#a5a5a5; stroke:none;" d="M311 57L312 58L311 57z"/>
<path style="fill:#ffbd88; stroke:none;" d="M11 58L12 59L11 58M46 58L47 59L46 58z"/>
<path style="fill:#a5a5a5; stroke:none;" d="M53 58L54 59L53 58M58 58L59 59L58 58z"/>
<path style="fill:#ffbd88; stroke:none;" d="M75 58L76 59L75 58M93 58L94 59L93 58z"/>
<path style="fill:#a5a5a5; stroke:none;" d="M108 58L109 59L108 58M119 58L120 59L119 58M151 58L152 59L151 58z"/>
<path style="fill:#ffbd88; stroke:none;" d="M214 58L215 59L214 58M227 58L228 59L227 58z"/>
<path style="fill:#a5a5a5; stroke:none;" d="M242 58L243 59L242 58M298 58L299 59L298 58M314.333 58.6667L314.667 59.3333L314.333 58.6667z"/>
<path style="fill:#ffbd88; stroke:none;" d="M12 59L13 60L12 59M45 59L46 60L45 59z"/>
<path style="fill:#a5a5a5; stroke:none;" d="M50 59L52 61L50 59M55 59L56 60L55 59M74 59L75 60L74 59M92 59L93 60L92 59z"/>
<path style="fill:#ffbd88; stroke:none;" d="M117 59L118 60L117 59z"/>
<path style="fill:#a5a5a5; stroke:none;" d="M135 59L136 60L135 59z"/>
<path style="fill:#ffbd88; stroke:none;" d="M152 59L153 60L152 59z"/>
<path style="fill:#a5a5a5; stroke:none;" d="M215 59L216 60L215 59M226 59L227 60L226 59M297 59L298 60L297 59z"/>
<path style="fill:#ffbd88; stroke:none;" d="M13 60L14 61L13 60M43 60L44 61L43 60z"/>
<path style="fill:#a5a5a5; stroke:none;" d="M48 60L49 61L48 60z"/>
<path style="fill:#454546; stroke:none;" d="M27 75L27 76L39 76L24 97L76 97L61 76L74 76C69.7731 71.4214 55.4785 59.8678 49 60.9267C41.7201 62.1166 33.0786 70.8993 27 75z"/>
<path style="fill:#ffbd88; stroke:none;" d="M116 60L117 61L116 60z"/>
<path style="fill:#a5a5a5; stroke:none;" d="M136 60L137 61L136 60M216 60L217 61L216 60M225 60L226 61L225 60z"/>
<path style="fill:#ffbd88; stroke:none;" d="M245 60L246 61L245 60M296 60L297 61L296 60M14 61L15 62L14 61M42 61L43 62L42 61z"/>
<path style="fill:#a5a5a5; stroke:none;" d="M53 61L54 62L53 61M90 61L91 62L90 61M110 61L111 62L110 61z"/>
<path style="fill:#ffbd88; stroke:none;" d="M115 61L116 62L115 61z"/>
<path style="fill:#a5a5a5; stroke:none;" d="M137 61L138 62L137 61M153 61L154 62L153 61M224 61L225 62L224 61z"/>
<path style="fill:#ffbd88; stroke:none;" d="M16 62L17 63L16 62M40 62L41 63L40 62z"/>
<path style="fill:#a5a5a5; stroke:none;" d="M45 62L46 63L45 62M54 62L55 63L54 62M89 62L90 63L89 62M99 62L99 63L104 63L99 62M109 62L110 63L109 62M124.667 62.3333L125.333 62.6667L124.667 62.3333z"/>
<path style="fill:#ffbd88; stroke:none;" d="M126 62L127 63L126 62z"/>
<path style="fill:#a5a5a5; stroke:none;" d="M127.667 62.3333L128.333 62.6667L127.667 62.3333M138 62L139 63L138 62z"/>
<path style="fill:#ffbd88; stroke:none;" d="M154 62L155 63L154 62z"/>
<path style="fill:#a5a5a5; stroke:none;" d="M186 62L186 63L194 63L186 62M209 71L209 70L204 70L204 63L208 63C201.821 60.9753 201.833 70.4416 209 71M217 62L218 63L217 62M223 62L224 63L223 62M233.667 62.3333L234.333 62.6667L233.667 62.3333z"/>
<path style="fill:#ffbd88; stroke:none;" d="M235 62L236 63L235 62z"/>
<path style="fill:#a5a5a5; stroke:none;" d="M236.667 62.3333L237.333 62.6667L236.667 62.3333z"/>
<path style="fill:#ffbd88; stroke:none;" d="M291 62L292 63L291 62z"/>
<path style="fill:#a5a5a5; stroke:none;" d="M303.667 62.3333L304.333 62.6667L303.667 62.3333z"/>
<path style="fill:#ffbd88; stroke:none;" d="M305 62L306 63L305 62z"/>
<path style="fill:#a5a5a5; stroke:none;" d="M306 62L306 63L309 63L306 62M313 62L314 63L313 62z"/>
<path style="fill:#ffbd88; stroke:none;" d="M17 63L18 64L17 63M39 63L40 64L39 63z"/>
<path style="fill:#fefefe; stroke:none;" d="M36 72L36 73L45 73L30 94L71 94L56 73L64 73C53.2318 61.2498 47.7971 65.2798 36 72z"/>
<path style="fill:#a5a5a5; stroke:none;" d="M51 63L52 64L51 63M56 63L57 64L56 63M105 63L106 64L105 63M108 63L109 64L108 63M114 63L115 64L114 63M122 63L123 64L122 63z"/>
<path style="fill:#fefefe; stroke:none;" d="M123.108 63.7431C113.808 67.6665 120.723 81.9975 129.945 78.2569C139.743 74.2829 132.822 59.6448 123.108 63.7431z"/>
<path style="fill:#ffbd88; stroke:none;" d="M130 63L131 64L130 63z"/>
<path style="fill:#a5a5a5; stroke:none;" d="M185 63L185 85L186 85L185 63z"/>
<path style="fill:#fefefe; stroke:none;" d="M204 63L204 70C213.174 69.8913 213.119 63.2212 204 63z"/>
<path style="fill:#ffbd88; stroke:none;" d="M210 63L211 64L210 63z"/>
<path style="fill:#fefefe; stroke:none;" d="M231.109 64.0278C222.293 68.9734 229.943 82.6734 238.942 77.8202C248.3 72.7738 240.367 58.8339 231.109 64.0278z"/>
<path style="fill:#a5a5a5; stroke:none;" d="M239 63L240 64L239 63M247 63L248 64L247 63M279 63L279 68L280 68L279 63z"/>
<path style="fill:#ffbd88; stroke:none;" d="M295 63L296 64L295 63z"/>
<path style="fill:#a5a5a5; stroke:none;" d="M302 63L303 64L302 63M311 63L312 64L311 63z"/>
<path style="fill:#ffbd88; stroke:none;" d="M19 64L20 65L19 64M37 64L38 65L37 64z"/>
<path style="fill:#a5a5a5; stroke:none;" d="M42 64L43 65L42 64M47 64L48 65L47 64z"/>
<path style="fill:#ffbd88; stroke:none;" d="M52 64L53 65L52 64z"/>
<path style="fill:#a5a5a5; stroke:none;" d="M57 64L58 65L57 64M88 64L89 65L88 64M95 64L96 65L95 64z"/>
<path style="fill:#ffbd88; stroke:none;" d="M106 64L107 65L106 64z"/>
<path style="fill:#a5a5a5; stroke:none;" d="M107 64L108 65L107 64M132 64L133 65L132 64M139 64L140 65L139 64M155 64L156 65L155 64M222 64L223 65L222 64M229 64L230 65L229 64M295 64L296 65L295 64z"/>
<path style="fill:#ffbd88; stroke:none;" d="M21 65L22 66L21 65M36 65L37 66L36 65z"/>
<path style="fill:#a5a5a5; stroke:none;" d="M54 65L55 66L54 65M59 65L60 66L59 65M94 65L95 66L94 65M113 65L114 66L113 65M133 65L134 66L133 65M156 65L157 66L156 65M212 65L212 68L213 68L212 65M228 65L229 66L228 65M248 65L249 66L248 65z"/>
<path style="fill:#ffbd88; stroke:none;" d="M295 65L296 66L295 65z"/>
<path style="fill:#a5a5a5; stroke:none;" d="M302 65L303 66L302 65z"/>
<path style="fill:#ffbd88; stroke:none;" d="M23.6667 66.3333L24.3333 66.6667L23.6667 66.3333M34 66L35 67L34 66z"/>
<path style="fill:#a5a5a5; stroke:none;" d="M39 66L40 67L39 66M44 66L45 67L44 66z"/>
<path style="fill:#ffbd88; stroke:none;" d="M55 66L56 67L55 66z"/>
<path style="fill:#a5a5a5; stroke:none;" d="M60 66L61 67L60 66M87 66L88 67L87 66M119 66L120 67L119 66M140.333 66.6667L140.667 67.3333L140.333 66.6667M221.333 66.6667L221.667 67.3333L221.333 66.6667M242 66L243 67L242 66M303 66L304 67L303 66z"/>
<path style="fill:#ffbd88; stroke:none;" d="M27.6667 67.3333L28.3333 67.6667L27.6667 67.3333M33 67L34 68L33 67z"/>
<path style="fill:#a5a5a5; stroke:none;" d="M38 67L39 68L38 67M57 67L58 68L57 67M62 67L63 68L62 67M93 67L94 68L93 67z"/>
<path style="fill:#ffbd88; stroke:none;" d="M112 67L113 68L112 67z"/>
<path style="fill:#a5a5a5; stroke:none;" d="M134 67L135 68L134 67M150 67L150 85L151 85L150 67M157 67L158 68L157 67M227 67L228 68L227 67M305 67L306 68L305 67z"/>
<path style="fill:#ffbd88; stroke:none;" d="M306 67L307 68L306 67z"/>
<path style="fill:#a5a5a5; stroke:none;" d="M36 68L37 69L36 68M41 68L42 69L41 68z"/>
<path style="fill:#ffbd88; stroke:none;" d="M58 68L59 69L58 68z"/>
<path style="fill:#a5a5a5; stroke:none;" d="M63 68L64 69L63 68M112 68L112 74L113 74L112 68M118 68L119 69L118 68M158 68L159 69L158 68M243.333 68.6667L243.667 69.3333L243.333 68.6667M249 68L249 74L250 74L249 68M290 68L290 73L291 73L290 68M296 68L297 69L296 68M308 68L309 69L308 68M35 69L36 70L35 69z"/>
<path style="fill:#ffbd88; stroke:none;" d="M40 69L41 70L40 69z"/>
<path style="fill:#a5a5a5; stroke:none;" d="M60 69L61 70L60 69M65 69L66 70L65 69z"/>
<path style="fill:#ffbd88; stroke:none;" d="M118 69L119 70L118 69z"/>
<path style="fill:#a5a5a5; stroke:none;" d="M152 69L153 70L152 69M217 69L218 70L217 69M297 69L298 70L297 69M310 69L311 70L310 69M33 70L34 71L33 70M38 70L39 71L38 70z"/>
<path style="fill:#ffbd88; stroke:none;" d="M61 70L62 71L61 70z"/>
<path style="fill:#a5a5a5; stroke:none;" d="M66 70L67 71L66 70M92.3333 70.6667L92.6667 71.3333L92.3333 70.6667M298 70L299 71L298 70M312 70L313 71L312 70M32 71L33 72L32 71z"/>
<path style="fill:#ffbd88; stroke:none;" d="M37 71L38 72L37 71z"/>
<path style="fill:#a5a5a5; stroke:none;" d="M63 71L64 72L63 71M68 71L69 72L68 71z"/>
<path style="fill:#ffbd88; stroke:none;" d="M153 71L154 72L153 71z"/>
<path style="fill:#a5a5a5; stroke:none;" d="M160 71L161 72L160 71M216 71L217 72L216 71z"/>
<path style="fill:#ffbd88; stroke:none;" d="M243 71L244 72L243 71M30 72L31 73L30 72z"/>
<path style="fill:#a5a5a5; stroke:none;" d="M35 72L36 73L35 72z"/>
<path style="fill:#ffbd88; stroke:none;" d="M64 72L65 73L64 72M118 72L119 73L118 72z"/>
<path style="fill:#a5a5a5; stroke:none;" d="M154 72L155 73L154 72M215 72L216 73L215 72M243.333 72.6667L243.667 73.3333L243.333 72.6667M302 72L303 73L302 72M29 73L30 74L29 73M44 73L45 74L44 73M71 73L72 74L71 73M118 73L119 74L118 73z"/>
<path style="fill:#ffbd88; stroke:none;" d="M134 73L135 74L134 73z"/>
<path style="fill:#a5a5a5; stroke:none;" d="M214 73L215 74L214 73M280 73L280 74L290 74L280 73M304 73L305 74L304 73M315 73L316 74L315 73z"/>
<path style="fill:#ffbd88; stroke:none;" d="M27 74L28 75L27 74M56 74L57 75L56 74z"/>
<path style="fill:#a5a5a5; stroke:none;" d="M93 74L94 75L93 74M134 74L135 75L134 74M140 74L141 75L140 74z"/>
<path style="fill:#ffbd88; stroke:none;" d="M155 74L156 75L155 74z"/>
<path style="fill:#a5a5a5; stroke:none;" d="M168 74L169 75L168 74M213 74L214 75L213 74M221 74L222 75L221 74M227 74L228 75L227 74M279 74L279 79L280 79L279 74M307 74L308 75L307 74M26 75L27 76L26 75z"/>
<path style="fill:#ffbd88; stroke:none;" d="M43 75L44 76L43 75z"/>
<path style="fill:#a5a5a5; stroke:none;" d="M57 75L58 76L57 75M74 75L75 76L74 75M87 75L88 76L87 75M119 75L120 76L119 75M156 75L157 76L156 75z"/>
<path style="fill:#ffbd88; stroke:none;" d="M168.333 75.6667L168.667 76.3333L168.333 75.6667z"/>
<path style="fill:#a5a5a5; stroke:none;" d="M214 75L215 76L214 75z"/>
<path style="fill:#ffbd88; stroke:none;" d="M221 75L222 76L221 75z"/>
<path style="fill:#a5a5a5; stroke:none;" d="M242 75L243 76L242 75M42 76L43 77L42 76M61 76L62 77L61 76M113 76L114 77L113 76z"/>
<path style="fill:#ffbd88; stroke:none;" d="M120 76L121 77L120 76z"/>
<path style="fill:#a5a5a5; stroke:none;" d="M203 76L203 85L204 85L203 76M241 76L242 77L241 76M248 76L249 77L248 76M309.333 76.6667L309.667 77.3333L309.333 76.6667M38 77L39 78L38 77M62 77L63 78L62 77M88 77L89 78L88 77M106 77L107 78L106 77M121 77L122 78L121 77M139 77L140 78L139 77z"/>
<path style="fill:#ffbd88; stroke:none;" d="M157 77L158 78L157 77z"/>
<path style="fill:#a5a5a5; stroke:none;" d="M168.333 77.6667L168.667 78.3333L168.333 77.6667z"/>
<path style="fill:#ffbd88; stroke:none;" d="M208 77L209 78L208 77z"/>
<path style="fill:#a5a5a5; stroke:none;" d="M215 77L216 78L215 77M222 77L223 78L222 77M240 77L241 78L240 77M297 77L298 78L297 77M37 78L38 79L37 78z"/>
<path style="fill:#ffbd88; stroke:none;" d="M59 78L60 79L59 78z"/>
<path style="fill:#a5a5a5; stroke:none;" d="M97 78L98 79L97 78z"/>
<path style="fill:#ffbd88; stroke:none;" d="M104 78L105 79L104 78z"/>
<path style="fill:#a5a5a5; stroke:none;" d="M114 78L115 79L114 78M122 78L123 79L122 78M130 78L131 79L130 78M158 78L159 79L158 78M231 78L232 79L231 78z"/>
<path style="fill:#ffbd88; stroke:none;" d="M238 78L239 79L238 78z"/>
<path style="fill:#a5a5a5; stroke:none;" d="M247 78L248 79L247 78M296 78L297 79L296 78M299.667 78.3333L300.333 78.6667L299.667 78.3333z"/>
<path style="fill:#ffbd88; stroke:none;" d="M40 79L41 80L40 79z"/>
<path style="fill:#a5a5a5; stroke:none;" d="M60 79L61 80L60 79M89 79L90 80L89 79M100.667 79.3333L101.333 79.6667L100.667 79.3333M125 79L125 80L128 80L125 79z"/>
<path style="fill:#ffbd88; stroke:none;" d="M168 79L168 85L169 85L168 79z"/>
<path style="fill:#a5a5a5; stroke:none;" d="M234 79L234 80L237 80L234 79M246 79L247 80L246 79M259 79L259 80L270 80L270 85L271 85L271 79L259 79M280 79L280 80L291 80L291 85C293.701 77.8907 284.512 79 280 79z"/>
<path style="fill:#ffbd88; stroke:none;" d="M291 79L292 80L291 79z"/>
<path style="fill:#a5a5a5; stroke:none;" d="M304 79L304 80L307 80L304 79M315.333 79.6667L315.667 80.3333L315.333 79.6667M39 80L40 81L39 80M64 80L65 81L64 80M90 80L91 81L90 80z"/>
<path style="fill:#ffbd88; stroke:none;" d="M137 80L138 81L137 80M159 80L160 81L159 80z"/>
<path style="fill:#a5a5a5; stroke:none;" d="M210 80L211 81L210 80M217 80L218 81L217 80M224 80L225 81L224 80M35 81L36 82L35 81M65 81L66 82L65 81M91 81L92 82L91 81M136 81L137 82L136 81M160 81L161 82L160 81M225 81L226 82L225 81M295 81L296 82L295 81M34 82L35 83L34 82z"/>
<path style="fill:#ffbd88; stroke:none;" d="M62 82L63 83L62 82z"/>
<path style="fill:#a5a5a5; stroke:none;" d="M92 82L93 83L92 82M109 82L110 83L109 82M118 82L119 83L118 82M211 82L212 83L211 82M218 82L219 83L218 82z"/>
<path style="fill:#ffbd88; stroke:none;" d="M226 82L227 83L226 82z"/>
<path style="fill:#a5a5a5; stroke:none;" d="M243 82L244 83L243 82z"/>
<path style="fill:#ffbd88; stroke:none;" d="M37 83L38 84L37 83z"/>
<path style="fill:#a5a5a5; stroke:none;" d="M63 83L64 84L63 83M94 83L95 84L94 83z"/>
<path style="fill:#ffbd88; stroke:none;" d="M108 83L109 84L108 83M119 83L120 84L119 83z"/>
<path style="fill:#a5a5a5; stroke:none;" d="M133 83L134 84L133 83M161 83L162 84L161 83M228 83L229 84L228 83z"/>
<path style="fill:#ffbd88; stroke:none;" d="M242 83L243 84L242 83M296 83L297 84L296 83z"/>
<path style="fill:#a5a5a5; stroke:none;" d="M297 83L298 84L297 83M312 83L313 84L312 83M36 84L37 85L36 84M67 84L68 85L67 84M96 84L97 85L96 84M105 84L106 85L105 84z"/>
<path style="fill:#ffbd88; stroke:none;" d="M106 84L107 85L106 84M121 84L122 85L121 84z"/>
<path style="fill:#a5a5a5; stroke:none;" d="M122 84L123 85L122 84M130.667 84.3333L131.333 84.6667L130.667 84.3333M162 84L163 85L162 84M212 84L213 85L212 84M219 84L220 85L219 84M230.667 84.3333L231.333 84.6667L230.667 84.3333M239 84L240 85L239 84M300.667 84.3333L301.333 84.6667L300.667 84.3333M309.667 84.3333L310.333 84.6667L309.667 84.3333M32 85L33 86L32 85M35 85L36 86L35 85M68 85L69 86L68 85z"/>
<path style="fill:#ffbd88; stroke:none;" d="M100.667 85.3333L101.333 85.6667L100.667 85.3333z"/>
<path style="fill:#a5a5a5; stroke:none;" d="M31 86L32 87L31 86z"/>
<path style="fill:#ffbd88; stroke:none;" d="M65 86L66 87L65 86M30 87L31 88L30 87M34 87L35 88L34 87z"/>
<path style="fill:#a5a5a5; stroke:none;" d="M66 87L67 88L66 87M33 88L34 89L33 88M67 88L68 89L67 88M70 88L71 89L70 88M32 89L33 90L32 89M71 89L72 90L71 89M28 90L29 91L28 90z"/>
<path style="fill:#ffbd88; stroke:none;" d="M68 90L69 91L68 90M27 91L28 92L27 91z"/>
<path style="fill:#a5a5a5; stroke:none;" d="M69 91L70 92L69 91M30 92L31 93L30 92M70 92L71 93L70 92M73 92L74 93L73 92M29 93L30 94L29 93M74 93L75 94L74 93M25 94L26 95L25 94M30 94L30 95L71 95C60.2501 90.4892 41.6957 94 30 94z"/>
<path style="fill:#ffbd88; stroke:none;" d="M24 95L25 96L24 95z"/>
<path style="fill:#a5a5a5; stroke:none;" d="M76 96L77 97L76 96M157 97L158 98L157 97z"/>
<path style="fill:#454546; stroke:none;" d="M157 99L160 97L157 99z"/>
<path style="fill:#a5a5a5; stroke:none;" d="M123 99L124 100L123 99M157.667 99.3333L158.333 99.6667L157.667 99.3333M190 99L191 100L190 99M262 99L263 100L262 99M87 100L87 112L88 112L87 100z"/>
<path style="fill:#454546; stroke:none;" d="M88 100L88 112L96 112L96 110L89 110L89 107L95 107L95 105L89 105L89 102L96 102L96 100L88 100M98 100L98 112L105 112L105 110L100 110L100 100L98 100z"/>
<path style="fill:#a5a5a5; stroke:none;" d="M100 100L100 110L101 110L100 100M107 100L107 112L108 112L107 100z"/>
<path style="fill:#454546; stroke:none;" d="M108 100L108 112L116 112L116 110L109 110L109 107L115 107L115 105L109 105L109 102L116 102L116 100L108 100z"/>
<path style="fill:#a5a5a5; stroke:none;" d="M120 100L118 103L120 100z"/>
<path style="fill:#454546; stroke:none;" d="M127 109C118.104 110.465 120.488 103.073 128 102C113.841 92.3981 119.529 120.468 127 109z"/>
<path style="fill:#a5a5a5; stroke:none;" d="M126 100L127 101L126 100M129.333 100.667L129.667 101.333L129.333 100.667z"/>
<path style="fill:#454546; stroke:none;" d="M130 100L133 102L133 112L135 112L138 100L130 100z"/>
<path style="fill:#a5a5a5; stroke:none;" d="M138.333 100.667L138.667 101.333L138.333 100.667M140 100L140 112L141 112L140 100z"/>
<path style="fill:#454546; stroke:none;" d="M141 100L141 112L142 112L142 108L150 112L147 108C151.738 102.344 146.548 100.135 141 100z"/>
<path style="fill:#a5a5a5; stroke:none;" d="M147 100L148 101L147 100z"/>
<path style="fill:#ffbd88; stroke:none;" d="M154 100L155 101L154 100z"/>
<path style="fill:#454546; stroke:none;" d="M155.228 101.043C149.029 104.611 154.494 114.417 160.772 110.806C166.966 107.241 161.357 97.5171 155.228 101.043z"/>
<path style="fill:#a5a5a5; stroke:none;" d="M160 100L161 101L160 100z"/>
<path style="fill:#454546; stroke:none;" d="M166 100L166 112L168 112L168 104L177 112L177 100L175 100L175 109L174 109L166 100z"/>
<path style="fill:#a5a5a5; stroke:none;" d="M168 100L169 101L168 100z"/>
<path style="fill:#454546; stroke:none;" d="M180 100L180 112L182 112L182 100L180 100z"/>
<path style="fill:#a5a5a5; stroke:none;" d="M187 100L185 103L187 100z"/>
<path style="fill:#454546; stroke:none;" d="M194 109C185.104 110.465 187.488 103.073 195 102C180.841 92.3981 186.528 120.468 194 109z"/>
<path style="fill:#a5a5a5; stroke:none;" d="M193 100L194 101L193 100M200 100L201 101L200 100z"/>
<path style="fill:#454546; stroke:none;" d="M201 100L196 112C201.152 109.531 202.835 109.693 208 112L203 100L201 100M214 100L214 112L216 112L216 100L214 100M219 100L219 112L221 112L221 104L230 112L230 100L228 100L228 109L227 109L219 100z"/>
<path style="fill:#a5a5a5; stroke:none;" d="M221 100L222 101L221 100z"/>
<path style="fill:#454546; stroke:none;" d="M233 100L233 112C245.07 111.857 245.02 100.291 233 100z"/>
<path style="fill:#a5a5a5; stroke:none;" d="M239.667 100.333L240.333 100.667L239.667 100.333M245 100L245 108L246 108L245 100z"/>
<path style="fill:#454546; stroke:none;" d="M246 100C246.001 113.635 254.999 113.635 255 100L254 100C253.954 105.129 253.708 109.068 248 110L248 100L246 100z"/>
<path style="fill:#a5a5a5; stroke:none;" d="M253 100L253 108L254 108L253 100M255 100L255 109L256 109L255 100M259 100L258 102L259 100z"/>
<path style="fill:#454546; stroke:none;" d="M265 110L258 109C259.76 111.489 266.176 113.323 265.534 108.165C265.225 105.685 261.563 103.747 260 102L266 102C263.826 100.387 256.984 99.9073 259.175 104.605C260.156 106.707 263.425 108.26 265 110z"/>
<path style="fill:#a5a5a5; stroke:none;" d="M265 100L266 101L265 100M267.333 100.667L267.667 101.333L267.333 100.667z"/>
<path style="fill:#454546; stroke:none;" d="M268 100L271 102L271 112L273 112L273 102L277 102L277 100L268 100z"/>
<path style="fill:#a5a5a5; stroke:none;" d="M278 100L278 112L279 112L278 100z"/>
<path style="fill:#454546; stroke:none;" d="M279 100L279 112L281 112L281 108L288 112C286.222 104.675 288.584 100.232 279 100z"/>
<path style="fill:#a5a5a5; stroke:none;" d="M285.667 100.333L286.333 100.667L285.667 100.333M290 100L290 112L291 112L290 100z"/>
<path style="fill:#454546; stroke:none;" d="M291 100L291 112L293 112L293 100L291 100z"/>
<path style="fill:#a5a5a5; stroke:none;" d="M299 100L300 101L299 100z"/>
<path style="fill:#454546; stroke:none;" d="M300 100L295 112L297 109L305 112L306 112L302 100L300 100M308 100L308 112L315 112L315 110L310 110L310 100L308 100z"/>
<path style="fill:#a5a5a5; stroke:none;" d="M310 100L310 110L311 110L310 100M153 101L154 102L153 101M169 101L170 102L169 101M203 101L204 102L203 101M222 101L223 102L222 101M241 101L242 102L241 101M287 101L288 102L287 101M302 101L303 102L302 101M89 102L89 105L90 105L89 102M109 102L109 105L110 105L109 102M121 102L122 103L121 102M127 102L128 103L127 102M142 102L142 106L143 106L142 102z"/>
<path style="fill:#fefefe; stroke:none;" d="M143 102L143 106L147 106L147 102L143 102z"/>
<path style="fill:#a5a5a5; stroke:none;" d="M147 102L147 106L148 106L147 102M149 102L150 103L149 102M155 102L154 104L155 102z"/>
<path style="fill:#fefefe; stroke:none;" d="M156.307 103.086C152.644 105.24 155.891 111.14 159.556 108.914C163.068 106.779 160.012 100.908 156.307 103.086z"/>
<path style="fill:#a5a5a5; stroke:none;" d="M160 102L161 103L160 102M188 102L189 103L188 102M194 102L195 103L194 102z"/>
<path style="fill:#ffbd88; stroke:none;" d="M199 102L200 103L199 102z"/>
<path style="fill:#fefefe; stroke:none;" d="M235 102L235 110C241.648 108.94 241.648 103.06 235 102z"/>
<path style="fill:#a5a5a5; stroke:none;" d="M239 102L240 103L239 102M242 102L243 103L242 102M260.333 102.667L260.667 103.333L260.333 102.667M264.667 102.333L265.333 102.667L264.667 102.333M273 102L273 112L274 112L273 102z"/>
<path style="fill:#fefefe; stroke:none;" d="M281 102L281 106L286 105L286 103L281 102z"/>
<path style="fill:#a5a5a5; stroke:none;" d="M285 102L286 103L285 102M298 102L299 103L298 102M120 103L121 104L120 103M152 103L153 104L152 103M163 103L164 104L163 103M187 103L188 104L187 103M199 103L200 104L199 103M201 103L203 105L201 103M204.333 103.667L204.667 104.333L204.333 103.667z"/>
<path style="fill:#ffbd88; stroke:none;" d="M240 103L241 104L240 103z"/>
<path style="fill:#a5a5a5; stroke:none;" d="M300 103L302 105L300 103M117 104L117 108L118 108L117 104z"/>
<path style="fill:#ffbd88; stroke:none;" d="M161 104L162 105L161 104z"/>
<path style="fill:#a5a5a5; stroke:none;" d="M168 104L168 112L169 112L168 104M171 104L172 105L171 104M184 104L184 108L185 108L184 104z"/>
<path style="fill:#fefefe; stroke:none;" d="M201 104L203 107L201 104z"/>
<path style="fill:#a5a5a5; stroke:none;" d="M221 104L221 112L222 112L221 104M224 104L225 105L224 104M243 104L243 108L244 108L243 104M261 104L262 105L261 104M297 104L298 105L297 104z"/>
<path style="fill:#fefefe; stroke:none;" d="M300 104L299 107C301.566 106.449 301.86 105.86 300 104z"/>
<path style="fill:#a5a5a5; stroke:none;" d="M303 104L304 105L303 104M149 105L150 106L149 105M172 105L173 106L172 105M198 105L199 106L198 105M200 105L201 106L200 105z"/>
<path style="fill:#ffbd88; stroke:none;" d="M205 105L206 106L205 105z"/>
<path style="fill:#a5a5a5; stroke:none;" d="M225 105L226 106L225 105M241 105L241 108L242 108L241 105M264 105L265 106L264 105M285 105L286 106L285 105M299 105L300 106L299 105M170 106L171 107L170 106z"/>
<path style="fill:#ffbd88; stroke:none;" d="M200 106L201 107L200 106z"/>
<path style="fill:#a5a5a5; stroke:none;" d="M203 106L200 107L200 108L203 106M205 106L206 107L205 106M223 106L224 107L223 106M260 106L261 107L260 106M287 106L288 107L287 106M304 106L305 107L304 106M89 107L89 110L90 110L89 107M109 107L109 110L110 110L109 107M147 107L148 108L147 107M161 107L162 108L161 107M171 107L172 108L171 107M197 107L198 108L197 107M224 107L225 108L224 107M263 107L264 108L263 107M266 107L266 110L267 110L266 107M286 107L287 108L286 107M296 107L297 108L296 107M299 107L299 108L302 108L299 107M120 108L121 109L120 108M142 108L142 112L143 112L142 108M145 108L146 109L145 108M152 108L153 109L152 108M154 108L155 109L154 108M163 108L164 109L163 108M174 108L175 109L174 108M187 108L188 109L187 108M206 108L207 109L206 108M227 108L228 109L227 108z"/>
<path style="fill:#ffbd88; stroke:none;" d="M240 108L241 109L240 108z"/>
<path style="fill:#a5a5a5; stroke:none;" d="M264.333 108.667L264.667 109.333L264.333 108.667M283 108L284 109L283 108z"/>
<path style="fill:#ffbd88; stroke:none;" d="M286 108L287 109L286 108z"/>
<path style="fill:#a5a5a5; stroke:none;" d="M305.333 108.667L305.667 109.333L305.333 108.667M118 109L119 110L118 109M121 109L122 110L121 109M125 109L126 110L125 109M127.333 109.667L127.667 110.333L127.333 109.667M148 109L149 110L148 109M155 109L156 110L155 109M160 109L161 110L160 109M185 109L186 110L185 109M188 109L189 110L188 109M192 109L193 110L192 109M194.333 109.667L194.667 110.333L194.333 109.667z"/>
<path style="fill:#ffbd88; stroke:none;" d="M196 109L197 110L196 109z"/>
<path style="fill:#a5a5a5; stroke:none;" d="M199 109L199 110L205 110L199 109M239 109L240 110L239 109M242 109L243 110L242 109M248 109L249 110L248 109M252 109L253 110L252 109M260 109L261 110L260 109M284 109L285 110L284 109M295 109L296 110L295 109M297 111L304 110L297 111M105.333 110.667L105.667 111.333L105.333 110.667M119 110L120 111L119 110z"/>
<path style="fill:#ffbd88; stroke:none;" d="M146 110L147 111L146 110z"/>
<path style="fill:#a5a5a5; stroke:none;" d="M149 110L150 111L149 110M153 110L154 111L153 110M173 110L174 111L173 110M186 110L187 111L186 110M196 110L197 111L196 110M198 110L199 111L198 110M207 110L208 111L207 110M226 110L227 111L226 110M241 110L242 111L241 110M254 110L255 111L254 110M287 110L288 111L287 110M315.333 110.667L315.667 111.333L315.333 110.667M120 111L121 112L120 111M126 111L127 112L126 111M147 111L148 112L147 111M155 111L156 112L155 111M160 111L161 112L160 111M174 111L175 112L174 111M187 111L188 112L187 111M193 111L194 112L193 111M205 111L206 112L205 111M227 111L228 112L227 111M240 111L241 112L240 111M248 111L249 112L248 111M252.667 111.333L253.333 111.667L252.667 111.333M259 111L260 112L259 111M285 111L286 112L285 111M288 111L289 112L288 111M294 111L295 112L294 111M304 111L305 112L304 111M306 111L307 112L306 111z"/>
<path style="fill:#ffbd88; stroke:none;" d="M123 112L124 113L123 112M190 112L191 113L190 112M262 112L263 113L262 112z"/>
<path style="fill:#a5a5a5; stroke:none;" d="M150 116L151 117L150 116z"/>
<path style="fill:#ffbd88; stroke:none;" d="M161 116L162 117L161 116z"/>
<path style="fill:#a5a5a5; stroke:none;" d="M162 116L163 117L162 116M223 116L224 117L223 116z"/>
<path style="fill:#ffbd88; stroke:none;" d="M247.667 116.333L248.333 116.667L247.667 116.333M264 116L265 117L264 116z"/>
<path style="fill:#a5a5a5; stroke:none;" d="M265 116L266 117L265 116z"/>
<path style="fill:#ffbd88; stroke:none;" d="M301.667 116.333L302.333 116.667L301.667 116.333M87 117L88 118L87 117z"/>
<path style="fill:#454546; stroke:none;" d="M88 117L92 129L94 129L98 117L94 122L92 122L88 117z"/>
<path style="fill:#ffbd88; stroke:none;" d="M95 117L96 118L95 117z"/>
<path style="fill:#454546; stroke:none;" d="M103 117L103 119L107 119L107 129L108 129L108 119L112 119L112 117L103 117M114 117L114 129L122 129L122 127L116 127L116 124L121 124L121 122L116 122L116 119L122 119L122 117L114 117z"/>
<path style="fill:#a5a5a5; stroke:none;" d="M122.333 117.667L122.667 118.333L122.333 117.667M124 117L124 129L125 129L124 117z"/>
<path style="fill:#454546; stroke:none;" d="M125 117L125 129L132 129L132 127L127 127L127 117L125 117M134 117L134 129L142 129L142 127L136 127L136 124L141 124L141 122L136 122L136 119L142 119L142 117L134 117z"/>
<path style="fill:#a5a5a5; stroke:none;" d="M142.333 117.667L142.667 118.333L142.333 117.667M147 117L148 118L147 117z"/>
<path style="fill:#454546; stroke:none;" d="M154 126C145.735 127.35 145.735 118.65 154 120C144.053 104.718 143.264 141.129 154 126z"/>
<path style="fill:#a5a5a5; stroke:none;" d="M153 117L154 118L153 117M159 117L160 118L159 117z"/>
<path style="fill:#454546; stroke:none;" d="M160.109 117.786C153.337 120.228 157.209 130.624 163.942 128.353C170.899 126.006 166.997 115.302 160.109 117.786z"/>
<path style="fill:#a5a5a5; stroke:none;" d="M164.667 117.333L165.333 117.667L164.667 117.333M170 117L170 129L171 129L170 117z"/>
<path style="fill:#454546; stroke:none;" d="M171 117L171 129L172 129L172 120L173 120L177 128L181 120L182 120L182 129L183 129L183 117L178 124L176 124L174 117L171 117z"/>
<path style="fill:#a5a5a5; stroke:none;" d="M180 117L181 118L180 117M183 117L183 129L184 129L183 117M186 117L186 125L187 125L186 117z"/>
<path style="fill:#454546; stroke:none;" d="M187 117C187.002 130.825 195.998 130.825 196 117L195 117C194.954 122.129 194.708 126.068 189 127L189 117L187 117z"/>
<path style="fill:#a5a5a5; stroke:none;" d="M194 117L194 125L195 125L194 117M196 117L196 126L197 126L196 117z"/>
<path style="fill:#454546; stroke:none;" d="M199 117L199 129L201 129L201 121L210 129L210 117L208 117L208 126L207 126L199 117z"/>
<path style="fill:#a5a5a5; stroke:none;" d="M201 117L202 118L201 117z"/>
<path style="fill:#454546; stroke:none;" d="M213 117L213 129L215 129L215 117L213 117z"/>
<path style="fill:#a5a5a5; stroke:none;" d="M220 117L218 120L220 117z"/>
<path style="fill:#454546; stroke:none;" d="M227 126C218.104 127.465 220.488 120.073 228 119C213.841 109.398 219.528 137.468 227 126z"/>
<path style="fill:#a5a5a5; stroke:none;" d="M226 117L227 118L226 117M233 117L234 118L233 117z"/>
<path style="fill:#454546; stroke:none;" d="M234 117L229 129C233.052 127.059 235.465 125.445 239 129L240 129L236 117L234 117M252 126C242.826 127.411 243.164 118.177 252 120C241.414 105.035 241.433 140.892 252 126z"/>
<path style="fill:#a5a5a5; stroke:none;" d="M250 117L251 118L250 117M254 117L254 129L255 129L254 117z"/>
<path style="fill:#454546; stroke:none;" d="M255 117L255 129L257 129L257 117L255 117z"/>
<path style="fill:#a5a5a5; stroke:none;" d="M262 117L263 118L262 117z"/>
<path style="fill:#454546; stroke:none;" d="M263.109 117.762C256.394 120.329 260.19 130.63 266.942 128.353C273.876 126.014 270.06 115.103 263.109 117.762z"/>
<path style="fill:#a5a5a5; stroke:none;" d="M268 117L269 118L268 117M273 117L273 129L274 129L273 117z"/>
<path style="fill:#454546; stroke:none;" d="M274 117L274 129L276 129L276 121L277 121L284 129L284 117L283 117L283 125L276 117L274 117z"/>
<path style="fill:#a5a5a5; stroke:none;" d="M282 117L281 125L282 117M284 117L284 129L285 129L284 117M287 117L287 129L288 129L287 117z"/>
<path style="fill:#454546; stroke:none;" d="M288 117L288 129L296 129L296 127L289 127L289 124L295 124L295 122L289 122L289 119L296 119L296 117L288 117z"/>
<path style="fill:#a5a5a5; stroke:none;" d="M299 117L298 119L299 117z"/>
<path style="fill:#454546; stroke:none;" d="M304 127L298 126C299.443 128.034 305.352 130.506 305.364 125.876C305.371 123.294 301.517 120.82 300 119L306 119C304 117.666 298.253 116.35 298.921 120.835C299.261 123.121 302.804 124.999 304 127z"/>
<path style="fill:#a5a5a5; stroke:none;" d="M304 117L305 118L304 117M88 118L89 119L88 118M90 118L91 119L90 118M97 118L98 119L97 118M154 118L155 119L154 118M166 118L167 119L166 118M174 118L175 119L174 118M202 118L203 119L202 118M236 118L237 119L236 118M243 118L244 119L243 118M269 118L270 119L269 118M94 119L95 120L94 119M106 119L106 129L107 129L106 119M108 119L108 129L109 129L108 119M152 119L153 120L152 119z"/>
<path style="fill:#ffbd88; stroke:none;" d="M154 119L155 120L154 119z"/>
<path style="fill:#a5a5a5; stroke:none;" d="M159 119L160 120L159 119z"/>
<path style="fill:#fefefe; stroke:none;" d="M160.444 120.086C156.932 122.221 159.988 128.092 163.693 125.914C167.356 123.76 164.109 117.86 160.444 120.086z"/>
<path style="fill:#a5a5a5; stroke:none;" d="M164 119L165 120L164 119M167 119L168 120L167 119M179 119L180 120L179 119M221 119L222 120L221 119M227 119L228 120L227 119z"/>
<path style="fill:#ffbd88; stroke:none;" d="M232 119L233 120L232 119z"/>
<path style="fill:#a5a5a5; stroke:none;" d="M245 119L246 120L245 119M250 119L251 120L250 119M262 119L263 120L262 119z"/>
<path style="fill:#fefefe; stroke:none;" d="M263.444 120.086C259.932 122.221 262.988 128.092 266.693 125.914C270.356 123.76 267.109 117.86 263.444 120.086z"/>
<path style="fill:#a5a5a5; stroke:none;" d="M267 119L268 120L267 119M270 119L271 120L270 119M277 119L278 120L277 119M289 119L289 122L290 122L289 119M304 119L305 120L304 119M89 120L90 121L89 120z"/>
<path style="fill:#ffbd88; stroke:none;" d="M96 120L97 121L96 120z"/>
<path style="fill:#a5a5a5; stroke:none;" d="M144 120L145 121L144 120M156 120L157 121L156 120M165 120L166 121L165 120M172 120L172 129L173 129L172 120M175.333 120.667L175.667 121.333L175.333 120.667M181 120L181 129L182 129L181 120M220 120L221 121L220 120M232 120L233 121L232 120M234 120L236 122L234 120M237 120L238 121L237 120M242 120L243 121L242 120M244 120L245 121L244 120M259 120L260 121L259 120M268 120L269 121L268 120M278 120L279 121L278 120M90 121L91 122L90 121M92.6667 121.333L93.3333 121.667L92.6667 121.333M95 121L96 122L95 121M146 121L146 125L147 125L146 121M158 121L159 122L158 121M178 121L179 122L178 121M201 121L201 129L202 129L201 121M204 121L205 122L204 121M217 121L217 125L218 125L217 121z"/>
<path style="fill:#fefefe; stroke:none;" d="M234 121L236 124L234 121z"/>
<path style="fill:#a5a5a5; stroke:none;" d="M261 121L262 122L261 121M276 121L277 122L276 121M301 121L302 122L301 121z"/>
<path style="fill:#ffbd88; stroke:none;" d="M90 122L91 123L90 122z"/>
<path style="fill:#a5a5a5; stroke:none;" d="M121.333 122.667L121.667 123.333L121.333 122.667M141.333 122.667L141.667 123.333L141.333 122.667M168.333 122.667L168.667 123.333L168.333 122.667M205 122L206 123L205 122M231 122L232 123L231 122M233 122L234 123L233 122z"/>
<path style="fill:#ffbd88; stroke:none;" d="M238 122L239 123L238 122z"/>
<path style="fill:#a5a5a5; stroke:none;" d="M271.333 122.667L271.667 123.333L271.333 122.667M277 122L278 123L277 122M298 122L299 123L298 122M303.667 122.333L304.333 122.667L303.667 122.333M91 123L92 124L91 123M94 123L95 124L94 123M174 123L175 124L174 123M176.667 123.333L177.333 123.667L176.667 123.333M203 123L204 124L203 123z"/>
<path style="fill:#ffbd88; stroke:none;" d="M233 123L234 124L233 123z"/>
<path style="fill:#a5a5a5; stroke:none;" d="M236 123L233 124L233 125L236 123M238 123L239 124L238 123M280 123L281 124L280 123M300 123L301 124L300 123M305 123L306 124L305 123M158 124L159 125L158 124M179 124L180 125L179 124M204 124L205 125L204 124M230 124L231 125L230 124M261 124L262 125L261 124M289 124L289 127L290 127L289 124M303 124L304 125L303 124z"/>
<path style="fill:#ffbd88; stroke:none;" d="M306 124L307 125L306 124z"/>
<path style="fill:#a5a5a5; stroke:none;" d="M144 125L145 126L144 125M156 125L157 126L156 125M165 125L166 126L165 125M175 125L176 126L175 125M207 125L208 126L207 125M220 125L221 126L220 125M239 125L240 126L239 125M244 125L245 126L244 125M259 125L260 126L259 125M268 125L269 126L268 125M279 125L280 126L279 125M306 125L307 126L306 125z"/>
<path style="fill:#ffbd88; stroke:none;" d="M148 126L149 127L148 126z"/>
<path style="fill:#a5a5a5; stroke:none;" d="M152 126L153 127L152 126M164 126L165 127L164 126M167 126L168 127L167 126M178 126L179 127L178 126M189 126L190 127L189 126M193 126L194 127L193 126M218 126L219 127L218 126M221 126L222 127L221 126M225 126L226 127L225 126M227.333 126.667L227.667 127.333L227.333 126.667z"/>
<path style="fill:#ffbd88; stroke:none;" d="M229 126L230 127L229 126z"/>
<path style="fill:#a5a5a5; stroke:none;" d="M232 126L232 127L238 127L232 126z"/>
<path style="fill:#ffbd88; stroke:none;" d="M242 126L243 127L242 126z"/>
<path style="fill:#a5a5a5; stroke:none;" d="M245 126L246 127L245 126M267 126L268 127L267 126M270 126L271 127L270 126M280 126L281 127L280 126M299 126L300 127L299 126z"/>
<path style="fill:#ffbd88; stroke:none;" d="M306 126L307 127L306 126z"/>
<path style="fill:#a5a5a5; stroke:none;" d="M122.333 127.667L122.667 128.333L122.333 127.667M142.333 127.667L142.667 128.333L142.333 127.667M166 127L167 128L166 127M176 127L177 128L176 127M195 127L196 128L195 127M206 127L207 128L206 127M219 127L220 128L219 127M229 127L230 128L229 127M231 127L232 128L231 127M238.333 127.667L238.667 128.333L238.333 127.667M240.333 127.667L240.667 128.333L240.333 127.667M243 127L244 128L243 127M269 127L270 128L269 127M297 127L298 128L297 127M147 128L148 129L147 128M152 128L153 129L152 128M159 128L160 129L159 128z"/>
<path style="fill:#ffbd88; stroke:none;" d="M165 128L166 129L165 128z"/>
<path style="fill:#a5a5a5; stroke:none;" d="M194 128L195 129L194 128M207 128L208 129L207 128M220 128L221 129L220 128M226 128L227 129L226 128z"/>
<path style="fill:#ffbd88; stroke:none;" d="M244 128L245 129L244 128z"/>
<path style="fill:#a5a5a5; stroke:none;" d="M245 128L246 129L245 128M250 128L251 129L250 128M262 128L263 129L262 128z"/>
<path style="fill:#ffbd88; stroke:none;" d="M268 128L269 129L268 128z"/>
<path style="fill:#a5a5a5; stroke:none;" d="M299 128L300 129L299 128M304 128L305 129L304 128z"/>
<path style="fill:#ffbd88; stroke:none;" d="M223 129L224 130L223 129z"/>
</svg>
