<?xml version="1.0" standalone="no"?>
<!DOCTYPE svg PUBLIC "-//W3C//DTD SVG 20010904//EN"
 "http://www.w3.org/TR/2001/REC-SVG-20010904/DTD/svg10.dtd">
<svg version="1.0" xmlns="http://www.w3.org/2000/svg"
 width="364.000000pt" height="140.000000pt" viewBox="0 0 364.000000 140.000000"
 preserveAspectRatio="xMidYMid meet">

<g transform="translate(0.000000,140.000000) scale(0.100000,-0.100000)"
fill="#000000" stroke="none">
<path d="M60 685 l0 -635 630 0 630 0 -2 633 -3 632 -627 3 -628 2 0 -635z
m688 318 c3 -22 1 -23 -90 -23 -51 0 -99 -4 -106 -9 -9 -5 -12 -29 -10 -82 l3
-74 75 -1 c64 -1 75 -4 75 -19 0 -15 -11 -18 -75 -19 l-75 -1 -3 -87 c-3 -106
1 -110 121 -107 77 2 82 1 85 -19 3 -22 1 -22 -128 -22 l-132 0 -29 29 -29 29
0 189 c0 248 -3 244 190 240 121 -2 125 -3 128 -24z m395 -11 c50 -35 52 -39
37 -62 -8 -12 -13 -11 -37 11 -41 38 -69 51 -118 51 -59 0 -101 -25 -127 -75
-33 -60 -33 -203 -1 -263 53 -100 154 -111 244 -27 38 35 52 44 61 35 17 -17
-37 -80 -93 -110 -84 -45 -207 -16 -282 67 -79 88 -77 233 6 327 58 65 105 85
192 82 60 -3 77 -8 118 -36z m-843 -218 l0 -235 -52 3 -53 3 -3 233 -2 232 55
0 55 0 0 -236z m768 -356 c-4 -10 -100 -14 -429 -16 -233 -1 -430 0 -437 3 -7
3 -10 9 -7 15 10 16 878 14 873 -2z m121 -12 c29 -31 25 -73 -11 -99 -23 -17
-31 -18 -56 -8 -37 15 -55 52 -42 85 18 49 73 60 109 22z m-141 -43 c3 -10
-87 -13 -427 -13 -237 0 -431 4 -431 8 0 5 2 11 5 14 3 3 195 5 427 4 327 -1
422 -4 426 -13z m17 -58 c0 -10 -837 -20 -863 -10 -7 3 -10 9 -7 15 9 14 870
9 870 -5z"/>
<path d="M2016 1210 c-72 -23 -116 -107 -116 -223 0 -124 35 -178 122 -185 88
-7 148 47 148 135 0 58 -17 89 -57 108 -33 16 -75 15 -119 -2 -10 -4 -14 3
-14 27 0 22 9 41 31 62 28 29 33 30 85 24 47 -5 54 -4 54 11 0 10 -4 24 -8 30
-11 17 -89 25 -126 13z m62 -222 c15 -15 16 -82 2 -109 -15 -27 -64 -25 -84 3
-22 31 -21 94 2 107 23 14 65 14 80 -1z"/>
<path d="M2603 1201 c-34 -16 -44 -26 -53 -59 -12 -47 -7 -67 29 -105 l25 -28
-26 -22 c-55 -47 -63 -100 -20 -148 24 -27 37 -33 84 -37 105 -8 168 33 168
111 0 33 -6 46 -37 74 -36 35 -37 35 -16 52 66 52 52 149 -25 170 -53 15 -81
13 -129 -8z m105 -53 c17 -17 15 -58 -5 -80 -21 -23 -32 -23 -60 4 -25 23 -30
57 -11 76 15 15 61 15 76 0z m-4 -189 c28 -22 35 -66 14 -87 -7 -7 -28 -12
-48 -12 -42 0 -60 14 -60 47 0 23 40 73 58 73 5 0 21 -9 36 -21z"/>
<path d="M3251 1202 c-50 -25 -74 -79 -79 -176 -5 -93 9 -154 42 -193 22 -25
31 -28 91 -28 62 0 68 2 95 32 39 44 53 102 48 203 -5 98 -24 141 -74 165 -42
20 -81 19 -123 -3z m95 -66 c16 -12 19 -29 22 -113 3 -120 -7 -148 -58 -148
-46 0 -60 29 -60 127 0 128 35 178 96 134z"/>
<path d="M2292 1175 c-39 -27 -52 -42 -52 -60 0 -28 16 -31 44 -10 42 32 46
22 46 -109 l0 -125 -42 -3 c-39 -3 -43 -6 -46 -30 l-3 -28 121 0 121 0 -3 28
c-3 23 -8 27 -40 30 l-38 3 0 170 0 169 -28 0 c-15 0 -51 -16 -80 -35z"/>
<path d="M2887 1203 c-4 -3 -7 -53 -7 -110 l0 -103 55 0 c46 0 60 -4 81 -25
18 -19 23 -31 19 -48 -12 -40 -34 -49 -108 -43 l-68 5 3 -27 c4 -34 38 -52
101 -52 90 0 157 54 157 127 0 73 -40 111 -126 120 l-54 6 0 43 0 44 74 0 c80
0 92 7 82 46 -6 23 -9 24 -105 24 -54 0 -101 -3 -104 -7z"/>
<path d="M1979 537 c-56 -37 -74 -86 -74 -202 0 -83 4 -106 20 -135 49 -83
194 -72 231 17 22 51 18 117 -9 148 -26 31 -89 43 -136 27 -29 -10 -31 -9 -31
13 0 69 52 110 126 99 40 -6 44 -4 44 15 0 27 -29 41 -88 41 -34 0 -59 -7 -83
-23z m103 -211 c16 -23 8 -93 -11 -110 -43 -39 -91 1 -91 76 0 31 4 38 28 46
29 11 63 6 74 -12z"/>
<path d="M2294 550 c-57 -23 -91 -124 -81 -243 3 -38 14 -82 24 -100 26 -45
77 -69 128 -62 91 14 124 70 125 213 0 104 -13 147 -55 180 -29 23 -99 29
-141 12z m92 -64 c16 -12 20 -29 22 -111 4 -110 -7 -152 -45 -161 -18 -5 -31
0 -46 15 -20 19 -22 32 -22 119 0 133 31 181 91 138z"/>
<path d="M2605 551 c-28 -12 -51 -41 -59 -73 -8 -35 15 -93 44 -108 22 -12 22
-12 -13 -41 -59 -49 -58 -126 2 -165 36 -25 136 -24 178 1 63 37 71 105 18
163 l-34 38 25 26 c38 37 43 96 11 133 -21 25 -32 29 -88 32 -35 1 -73 -1 -84
-6z m97 -53 c30 -23 24 -73 -11 -95 -16 -10 -24 -9 -45 8 -29 23 -34 60 -10
83 19 19 44 20 66 4z m5 -200 c29 -27 31 -73 4 -88 -69 -36 -135 36 -81 90 26
26 48 25 77 -2z"/>
<path d="M3226 528 c-44 -44 -59 -101 -54 -203 7 -128 47 -181 136 -179 91 1
133 57 140 183 5 95 -11 171 -44 202 -18 17 -39 24 -84 27 -57 4 -61 3 -94
-30z m123 -54 c18 -23 21 -41 21 -120 0 -83 -3 -96 -23 -120 -34 -39 -72 -28
-88 25 -17 59 -8 194 15 220 26 28 50 26 75 -5z"/>
<path d="M2860 520 l0 -30 85 0 c57 0 85 -4 85 -11 0 -7 -30 -77 -66 -156 -36
-80 -63 -152 -60 -159 7 -17 60 -18 74 -1 24 30 142 324 142 354 l0 33 -130 0
-130 0 0 -30z"/>
</g>
</svg>
