<svg xmlns="http://www.w3.org/2000/svg" viewBox="0 0 218 208"  width="35px" height="35px" id="el_QQ9wlw0JC">
<style>@-webkit-keyframes el_Qlda4JMGnZ_J0Dx98qCd_Animation{0%{-webkit-transform: rotate(0deg);transform: rotate(0deg);}100%{-webkit-transform: rotate(-360deg);transform: rotate(-360deg);}}@keyframes el_Qlda4JMGnZ_J0Dx98qCd_Animation{0%{-webkit-transform: rotate(0deg);transform: rotate(0deg);}100%{-webkit-transform: rotate(-360deg);transform: rotate(-360deg);}}@-webkit-keyframes el_mVFW-woxV8_fJA8hySOs_Animation{0%{-webkit-transform: rotate(0deg);transform: rotate(0deg);}100%{-webkit-transform: rotate(360deg);transform: rotate(360deg);}}@keyframes el_mVFW-woxV8_fJA8hySOs_Animation{0%{-webkit-transform: rotate(0deg);transform: rotate(0deg);}100%{-webkit-transform: rotate(360deg);transform: rotate(360deg);}}#el_QQ9wlw0JC *{-webkit-animation-duration: 5s;animation-duration: 5s;-webkit-animation-iteration-count: infinite;animation-iteration-count: infinite;-webkit-animation-timing-function: cubic-bezier(0, 0, 1, 1);animation-timing-function: cubic-bezier(0, 0, 1, 1);}#el_m3E41CZsnc{fill: #212529;}#el_mVFW-woxV8{fill: #EBECED;}#el_Qlda4JMGnZ{fill: #DC9B40;}#el_r3BhVadOaj{fill: #212529;}#el_mVFW-woxV8_fJA8hySOs{-webkit-animation-name: el_mVFW-woxV8_fJA8hySOs_Animation;animation-name: el_mVFW-woxV8_fJA8hySOs_Animation;-webkit-transform-origin: 50% 50%;transform-origin: 50% 50%;transform-box: fill-box;-webkit-transform: rotate(0deg);transform: rotate(0deg);}#el_Qlda4JMGnZ_J0Dx98qCd{-webkit-animation-name: el_Qlda4JMGnZ_J0Dx98qCd_Animation;animation-name: el_Qlda4JMGnZ_J0Dx98qCd_Animation;-webkit-transform-origin: 50% 50%;transform-origin: 50% 50%;transform-box: fill-box;-webkit-transform: rotate(0deg);transform: rotate(0deg);}</style>
<defs/><title>Asset 1</title>
<g id="el_c4V8BI8TRh" data-name="Layer 2">
<g id="el_KmpsixNeiJ" data-name="Layer 1">
<path d="M182.91,100.89h-8.59c-4.11,0-8.55-3.35-9.91-7.47l-6.8-15.69a10.67,10.67,0,0,1,1.69-12l5.34-5.37a4.07,4.07,0,0,0,0-5.76L151.49,41.43a4.18,4.18,0,0,0-5.74,0l-6,6a11,11,0,0,1-7.68,3,10.08,10.08,0,0,1-4.32-.92l-15-5.54a10.62,10.62,0,0,1-7.35-9.6V24.86c0-2.53-2-3.06-3.74-3.06H83.12c-.94,0-4,.22-4,3.06v10.5a11.13,11.13,0,0,1-7.14,10L58.88,51.11a9.55,9.55,0,0,1-4.57,1.08A10.43,10.43,0,0,1,47,49.34l-6.22-6.21a4.17,4.17,0,0,0-5.73,0L21.91,56.29a4.06,4.06,0,0,0,0,5.73l6.57,6.57a10.85,10.85,0,0,1,1.86,12.07L25.21,93.52c-1.26,4-5.68,7.37-9.8,7.37H5.35c-2.75,0-3.32,1.88-3.32,3.46V123c0,2.07,1,4.31,3.32,4.31h9.73a10.57,10.57,0,0,1,9.75,7.17l5.08,13a10.92,10.92,0,0,1-2,11.88L20.19,167a4.07,4.07,0,0,0,0,5.73l13.16,13.15a4.18,4.18,0,0,0,5.74,0l7-7A10.4,10.4,0,0,1,53.31,176a9.66,9.66,0,0,1,4.81,1.22l14,6.3a11.12,11.12,0,0,1,7,9.93v8.94a3.93,3.93,0,0,0,4,3.93h18.6a3.71,3.71,0,0,0,3.74-3.93v-7.92a10.73,10.73,0,0,1,7.5-9.68l15.68-6a10.15,10.15,0,0,1,4.41-1,10.88,10.88,0,0,1,7.61,2.95l6.78,6.76a4.2,4.2,0,0,0,5.75,0l13.16-13.15a4.08,4.08,0,0,0,0-5.74l-6.4-6.4a10.66,10.66,0,0,1-1.8-11.95l6.76-16.15c1.16-3.8,5.47-6.93,9.74-6.93h8.26c2.3,0,3.68-2.19,3.68-4.31v-18.6C186.59,102.19,185.22,100.89,182.91,100.89ZM93.19,151.73a35.61,35.61,0,1,1,35.61-35.61A35.65,35.65,0,0,1,93.19,151.73Z" id="el_m3E41CZsnc"/>
<g id="el_mVFW-woxV8_fJA8hySOs" data-animator-group="true" data-animator-type="1"><path d="M101.72,208.39H83.12a5.94,5.94,0,0,1-6.05-6v-8.94a9.15,9.15,0,0,0-5.59-8l-14.19-6.37a8.43,8.43,0,0,0-9.76,1.19l-7,7a6.41,6.41,0,0,1-8.6,0L18.76,174.16a6.08,6.08,0,0,1,0-8.59l7.68-7.66a9,9,0,0,0,1.66-9.54l-5.16-13.21a8.61,8.61,0,0,0-7.86-5.87H5.35C2.25,129.29,0,126.62,0,123v-18.6c0-3.38,2.05-5.48,5.35-5.48H15.41c3.19,0,6.87-2.79,7.87-6l5.18-13A8.92,8.92,0,0,0,27,70l-6.57-6.57a6.1,6.1,0,0,1,0-8.61L33.62,41.7a6.42,6.42,0,0,1,8.61,0l6.21,6.21a8.43,8.43,0,0,0,5.87,2.26,7.41,7.41,0,0,0,3.57-.83l13.26-5.87a9.17,9.17,0,0,0,5.93-8.11V24.86c0-3.09,2.38-5.09,6.05-5.09h18.6c3.56,0,5.77,1.95,5.77,5.09v9.48A8.63,8.63,0,0,0,113.34,42l15.13,5.6A9.05,9.05,0,0,0,138.32,46l6-6a6.41,6.41,0,0,1,8.6,0l13.16,13.16a6.12,6.12,0,0,1,0,8.63l-5.34,5.37a8.7,8.7,0,0,0-1.35,9.6l6.88,15.85c1.15,3.47,4.81,6.26,8,6.26h8.59c3.42,0,5.71,2.2,5.71,5.48V123c0,3.11-2.14,6.34-5.71,6.34h-8.26c-3.32,0-6.89,2.51-7.8,5.49l-.07.2L160,151.12a8.74,8.74,0,0,0,1.35,9.74l6.41,6.4a6.08,6.08,0,0,1,1.77,4.31,6,6,0,0,1-1.78,4.29L154.62,189a6.42,6.42,0,0,1-8.61,0l-6.78-6.76a8.89,8.89,0,0,0-6.18-2.35,8,8,0,0,0-3.52.76l-15.85,6.07c-3.43,1-6.19,4.5-6.19,7.78v7.92A5.74,5.74,0,0,1,101.72,208.39ZM53.31,174a11.74,11.74,0,0,1,5.82,1.49L73,181.71c4.5,1.55,8.16,6.75,8.16,11.78v8.94a1.9,1.9,0,0,0,2,1.9h18.6a1.7,1.7,0,0,0,1.72-1.9v-7.92a12.69,12.69,0,0,1,9-11.63l15.51-5.94a11.89,11.89,0,0,1,5.13-1.1,13,13,0,0,1,9,3.54l6.78,6.76a2.26,2.26,0,0,0,2.89,0L164.92,173a2.05,2.05,0,0,0,0-2.86l-6.41-6.41a12.65,12.65,0,0,1-2.15-14.33L163,133.5a12.68,12.68,0,0,1,11.65-8.27h8.26c1.13,0,1.65-1.36,1.65-2.28v-18.6c0-.69-.12-1.43-1.65-1.43h-8.59c-5,0-10.2-3.89-11.84-8.87l-6.73-15.51a12.64,12.64,0,0,1,2.12-14.25l5.33-5.36a2,2,0,0,0,0-2.9L150.06,42.87a2.24,2.24,0,0,0-2.87,0l-6,6a13.06,13.06,0,0,1-9.11,3.57,12.06,12.06,0,0,1-5.19-1.12L112.1,45.84c-4.7-1.27-8.66-6.46-8.66-11.5V24.86c0-.51,0-1-1.72-1H83.12c-.91,0-2,.18-2,1v10.5a13.08,13.08,0,0,1-8.52,11.89L59.7,53a11.27,11.27,0,0,1-5.39,1.26,12.59,12.59,0,0,1-8.74-3.44l-6.21-6.21a2.22,2.22,0,0,0-2.87,0L23.34,57.72a2,2,0,0,0,0,2.87l6.57,6.57A12.8,12.8,0,0,1,32.14,81.6L27.09,94.27a13.14,13.14,0,0,1-11.68,8.65H5.35c-.9,0-1.29.14-1.29,1.43V123s0,2.28,1.29,2.28h9.73a12.51,12.51,0,0,1,11.69,8.62l5,12.87c2.14,4.24,1.07,10.49-2.5,14.06l-7.68,7.66a2,2,0,0,0,0,2.86l13.15,13.14a2.22,2.22,0,0,0,2.87,0l7-7A12.42,12.42,0,0,1,53.31,174Zm39.88-20.25a37.64,37.64,0,1,1,37.64-37.64A37.68,37.68,0,0,1,93.19,153.76Zm0-71.22a33.59,33.59,0,1,0,33.58,33.58A33.62,33.62,0,0,0,93.19,82.54Z" id="el_mVFW-woxV8"/></g>
<g id="el_Qlda4JMGnZ_J0Dx98qCd" data-animator-group="true" data-animator-type="1"><path d="M214.56,62c1.83,0,4.18.16,4.18-1.67V49.69c0-1.82-2.35-1.69-4.18-1.69h-5c-1.83,0-3.79-2.23-4.36-4l-4-9.45a5,5,0,0,1,.72-5.45l3.13-3.23a3.4,3.4,0,0,0,0-4.75l-7.52-7.55a3.34,3.34,0,0,0-4.7,0l-3.5,3.5A5,5,0,0,1,184,18l-8.81-3.2a4.89,4.89,0,0,1-3.48-4.2V5.06c0-1.83-1-5.06-2.77-5.06H158.33c-1.83,0-3.59,3.23-3.59,5.06v6.08a4.86,4.86,0,0,1-3,4.4L144.2,18.9a4.64,4.64,0,0,1-5.22-.74l-3.6-3.62a3.33,3.33,0,0,0-4.69,0l-7.52,7.52a3.34,3.34,0,0,0,0,4.7L127,30.58a4.83,4.83,0,0,1,.82,5.3l-3,8.14c-.55,1.74-2.49,4-4.32,4h-5.85c-1.82,0-2.91-.13-2.91,1.69V60.33c0,1.83,1.09,1.67,2.91,1.67h5.66c1.83,0,3.75,2.26,4.26,4l3,8a5.31,5.31,0,0,1-.87,5.53l-4.44,4.54a3.38,3.38,0,0,0,0,4.75l7.52,7.55a3.33,3.33,0,0,0,4.69,0l4.08-4.07a4.59,4.59,0,0,1,5.23-.69l8,3.67a4.89,4.89,0,0,1,3,4.41V105c0,1.82,1.76,4,3.59,4H169c1.82,0,2.77-2.21,2.77-4v-4.64a4.92,4.92,0,0,1,3.47-4.22l9.23-3.49a5,5,0,0,1,5.38.85l4,3.93a3.35,3.35,0,0,0,4.71,0L206,89.88a3.33,3.33,0,0,0,0-4.69l-3.73-3.73a4.72,4.72,0,0,1-.76-5.27L205.44,66c.53-1.75,2.47-4,4.3-4Z" id="el_Qlda4JMGnZ"/></g><path d="M182.94,56.4a18.86,18.86,0,1,1-18.86-18.86A18.85,18.85,0,0,1,182.94,56.4Z" id="el_r3BhVadOaj"/></g></g>
<script>(function(){var a=document.querySelector('#el_QQ9wlw0JC'),b=a.querySelectorAll('style'),c=function(d){b.forEach(function(f){var g=f.textContent;g&amp;&amp;(f.textContent=g.replace(/transform-box:[^;\r\n]*/gi,'transform-box: '+d))})};c('initial'),window.requestAnimationFrame(function(){return c('fill-box')})})();</script></svg>